<svg xmlns="http://www.w3.org/2000/svg" width="31.634" height="22.386" viewBox="0 0 31.634 22.386">
  <g>
    <path d="M29.909,2.565A8.174,8.174,0,0,0,23.451.032a5.6,5.6,0,0,0-2.91.494c-1.462.668-2.885,1.381-3.527,3.061a6.067,6.067,0,0,0-.24,3.954,7.727,7.727,0,0,0,3,4.244,7.069,7.069,0,0,0,6.119,1.126,8.537,8.537,0,0,0,3.236-1.65A6,6,0,0,0,31.4,8.241,5.575,5.575,0,0,0,29.909,2.565Zm-1.226,6.2A6.407,6.407,0,0,1,24.042,11.1,5.513,5.513,0,0,1,19.8,8.97a4.792,4.792,0,0,1-1.151-3.313A3.038,3.038,0,0,1,20.287,2.99a6.424,6.424,0,0,1,3.332-.966,6.266,6.266,0,0,1,4.914,2.161C29.784,5.72,30.018,7.115,28.683,8.763Z"/>
    <path d="M13.925,6.97a8.012,8.012,0,0,0-.8-3.33A5.236,5.236,0,0,0,8.447.189,9.216,9.216,0,0,0,4.418.916,1.383,1.383,0,0,0,3.63,1.7a2.459,2.459,0,0,1-.785,1.225,9.98,9.98,0,0,0-2.4,3.247A4.3,4.3,0,0,0,.22,9.409a5.864,5.864,0,0,0,5.215,3.625,11.571,11.571,0,0,0,2.627.047,7.348,7.348,0,0,0,4.212-1.829A5.363,5.363,0,0,0,13.925,6.97Zm-2.186,1.1A3.561,3.561,0,0,1,9.13,10.725a13.579,13.579,0,0,1-2.091.407c-1.7-.156-3.165-.335-4.286-1.5a2.023,2.023,0,0,1-.52-2.215,5.96,5.96,0,0,1,1.5-2.426q.614-.61,1.225-1.225c.111-.112.28-.21.317-.344C5.585,2.33,6.529,2.413,7.34,2.341a3.164,3.164,0,0,1,2.133.295,4.626,4.626,0,0,1,1.229.913A5.74,5.74,0,0,1,11.739,8.07Z"/>
    <path d="M18.523,19.64c-1.55.154-3.1.274-4.654.434-.72.074-1.437.185-2.148.322a.848.848,0,0,0-.682.853,1.457,1.457,0,0,0,.426.937c.189.181.573.159.757.2.413-.033.7-.046.986-.081,1.105-.136,2.208-.295,3.315-.416.75-.081,1.507-.1,2.258-.172a1.041,1.041,0,0,0,.813-1.294A.966.966,0,0,0,18.523,19.64Z"/>
    <path d="M24.04,3.985a1.189,1.189,0,0,0-1.165,1.053c-.065.277-.068.568-.128.846a1.016,1.016,0,0,0,.547,1.3A1.073,1.073,0,0,0,24.746,6.5a10.682,10.682,0,0,0,.283-1.2C24.96,4.462,24.656,4.034,24.04,3.985Z"/>
    <path d="M8.04,3.994a.944.944,0,0,0-1.09.572,2.932,2.932,0,0,0-.128,2.32.932.932,0,0,0,.979.628.915.915,0,0,0,.874-.77c.1-.533.124-1.082.194-1.748A1.438,1.438,0,0,0,8.04,3.994Z"/>
  </g>
</svg>
