<svg xmlns="http://www.w3.org/2000/svg" width="32.994" height="29.068" viewBox="0 0 32.994 29.068">
  <g>
    <path d="M32.061,6.075c-1.184-.141-2.369-.279-3.556-.393-.3-.029-.471-.081-.548-.418-.326-1.431-.692-2.852-1.026-4.28C26.84.6,26.8.191,26.342.057a1.138,1.138,0,0,0-1.2.307.672.672,0,0,0-.091.094,14.883,14.883,0,0,0-.959,1.467c-.472.928-.888,1.885-1.307,2.839a.97.97,0,0,1-.878.658c-.45.041-.892.165-1.338.251A12.193,12.193,0,0,0,17.418,6.86c-.307.155-.617.326-.693.718a.982.982,0,0,0,.669,1.188c.983.4,1.979.772,2.962,1.175.513.211.525.24.278.7-.711,1.313-1.448,2.612-2.157,3.925a7.176,7.176,0,0,0-.541,1.24,1.078,1.078,0,0,0,.626,1.238,1.985,1.985,0,0,0,1.793-.212c.84-.652,1.681-1.3,2.479-2.005.519-.456.952-1.01,1.444-1.5.309-.308.416-.284.627.111.4.747.77,1.509,1.173,2.254a5.787,5.787,0,0,0,1.779,2.019,1,1,0,0,0,1.209.133,1.24,1.24,0,0,0,.61-1.223c-.111-.9-.283-1.792-.476-2.678-.212-.97-.449-1.938-.732-2.889a.438.438,0,0,1,.24-.617c1.146-.707,2.28-1.437,3.41-2.171.428-.278.937-.513.87-1.169C33,6.456,32.737,6.156,32.061,6.075ZM29.4,7.906c-.8.512-1.615,1.016-2.415,1.535a.969.969,0,0,0-.457,1.157c.33,1.276.667,2.552,1,3.828.02.076.038.154.057.231a1.323,1.323,0,0,1-.146-.182c-.483-.873-.94-1.761-1.452-2.617a1.3,1.3,0,0,0-1.512-.766,2.493,2.493,0,0,0-.989.561c-.848.8-1.652,1.638-2.478,2.457a.9.9,0,0,1-.247.121,1.254,1.254,0,0,1,.071-.23c.621-1.168,1.261-2.326,1.864-3.5.511-1,.2-1.339-.657-1.725-.374-.169-.751-.328-1.127-.49-.278-.12-.56-.233-.836-.36a1.189,1.189,0,0,1-.219-.169c.067-.052.127-.135.2-.151.677-.145,1.357-.278,2.037-.414A8.321,8.321,0,0,1,23.3,6.962c.439-.02.6-.27.739-.617q.448-1.15.916-2.293a8.131,8.131,0,0,1,.373-.762c.033-.062.117-.1.177-.145.051.068.128.129.149.205.225.834.437,1.673.663,2.507.392,1.446.427,1.389,2.028,1.6.387.051.775.089,1.163.139a.839.839,0,0,1,.184.089C29.57,7.778,29.49,7.849,29.4,7.906Z"/>
    <path d="M9.317,14.47c.26.264.5.547.739.831a8.578,8.578,0,0,0,2.4,2.284,3.312,3.312,0,0,0,1.147.393c.688.08,1.023-.214,1.109-.893a1.537,1.537,0,0,0-.091-.69c-.245-.671-.492-1.345-.8-1.991-.5-1.06-1-2.122-1.592-3.134-.2-.339-.087-.447.1-.637.576-.572,1.15-1.148,1.724-1.722q.722-.722,1.441-1.445a1.043,1.043,0,0,0,.269-1.072c-.1-.283-.44-.671-.683-.679a10.819,10.819,0,0,0-2.663.18,9.013,9.013,0,0,1-1.477.175.476.476,0,0,1-.516-.3c-.33-.68-.7-1.343-1.035-2.02C9.036,3.029,8.711,2.3,8.336,1.586a.871.871,0,0,0-1.151-.472,1.445,1.445,0,0,0-.616.543c-.423.826-.819,1.67-1.169,2.53a12.408,12.408,0,0,0-.61,1.919A2.081,2.081,0,0,1,3.3,7.842a1.565,1.565,0,0,0-.465.234C2,8.667,1.137,9.219.369,9.881a.917.917,0,0,0,.437,1.641,8.585,8.585,0,0,0,.9.149c.812.13,1.621.277,2.436.381.422.053.51.23.4.615q-.63,2.151-1.229,4.31c-.1.352-.145.719-.215,1.078.053.992.528,1.532,1.329,1.366A2.193,2.193,0,0,0,5.5,18.885a16.817,16.817,0,0,0,1.664-2c.527-.741.971-1.542,1.445-2.32C8.881,14.122,8.952,14.1,9.317,14.47ZM8.079,12.448a16.81,16.81,0,0,0-1.36,1.9c-.349.521-.66,1.068-1,1.6a.75.75,0,0,1-.2.156.729.729,0,0,1-.046-.279c.314-1.167.638-2.331.959-3.5.052-.187.1-.375.149-.564a.762.762,0,0,0-.49-1c-.571-.2-1.164-.329-1.752-.468-.293-.069-.6-.086-.9-.14a1.9,1.9,0,0,1-.33-.126c.086-.1.154-.232.262-.284a14.526,14.526,0,0,1,1.544-.687,1.4,1.4,0,0,0,.988-.936c.4-1.254.835-2.5,1.256-3.749A3.416,3.416,0,0,1,7.3,4.007c.024-.053.083-.089.126-.133.026.053.051.107.079.158C8.055,5.043,8.6,6.057,9.154,7.064a1.309,1.309,0,0,0,1.633.8c.495-.063.993-.1,1.49-.136a1.038,1.038,0,0,1,.3.071,1.185,1.185,0,0,1-.148.267c-.584.594-1.177,1.18-1.764,1.772-.674.679-.686,1.006-.22,1.831.565,1,1.08,2.024,1.615,3.039a1.134,1.134,0,0,1,.061.181l-.048.095a1.187,1.187,0,0,1-.146-.127c-.494-.575-.98-1.157-1.481-1.726a7.782,7.782,0,0,0-.7-.7A1.1,1.1,0,0,0,8.079,12.448Z"/>
    <path d="M23.878,19.645a7.974,7.974,0,0,0-3.385-.591c-.694.063-1.386.168-2.08.177a16.834,16.834,0,0,0-3.065.525c-1.036.2-2.051.517-3.073.789-.835.223-1.672.441-2.5.688a.816.816,0,0,0-.6.982.564.564,0,0,1-.22.618,1.109,1.109,0,0,0-.263.626c-.1.571.277.985.54,1.426a7.814,7.814,0,0,0,5.305,3.98,8.115,8.115,0,0,0,2.6.154,11.61,11.61,0,0,0,4.615-1.653,8.128,8.128,0,0,0,3.7-4.058A2.756,2.756,0,0,0,23.878,19.645Zm-.047,2.9a5.451,5.451,0,0,1-1.867,2.523,10,10,0,0,1-4.528,2.121c-.4.077-.818.092-1.15.127a6.28,6.28,0,0,1-5.73-3.661c-.359-.683-.356-.713.358-.912,1.769-.492,3.53-1.022,5.322-1.414,1.18-.257,2.418-.238,3.609-.461a6.022,6.022,0,0,1,3,.3,2.439,2.439,0,0,1,.676.374A.81.81,0,0,1,23.831,22.542Z"/>
  </g>
</svg>
