<?xml version="1.0" standalone="no"?>
<!DOCTYPE svg PUBLIC "-//W3C//DTD SVG 20010904//EN"
 "http://www.w3.org/TR/2001/REC-SVG-20010904/DTD/svg10.dtd">
<svg version="1.0" xmlns="http://www.w3.org/2000/svg"
 width="735.000000pt" height="879.000000pt" viewBox="0 0 735.000000 879.000000"
 preserveAspectRatio="xMidYMid meet">

<g transform="translate(0.000000,879.000000) scale(0.100000,-0.100000)"
fill="#000000" stroke="none">
<path d="M6870 4395 c0 -4388 0 -4395 20 -4395 20 0 20 7 20 4395 0 4388 0
4395 -20 4395 -20 0 -20 -7 -20 -4395z"/>
<path d="M6950 4395 l0 -4395 200 0 200 0 0 4395 0 4395 -200 0 -200 0 0
-4395z"/>
<path d="M3943 8600 c-3 -11 -12 -20 -19 -20 -11 0 -14 -18 -14 -75 0 -68 -2
-75 -20 -75 -19 0 -20 -7 -20 -109 0 -100 -2 -109 -20 -114 -18 -5 -20 -14
-20 -116 0 -92 -3 -111 -15 -111 -16 0 -17 -12 -15 -136 1 -84 -7 -124 -26
-124 -11 0 -14 -22 -15 -102 -1 -57 -1 -107 0 -111 1 -5 -8 -11 -19 -14 -19
-5 -20 -13 -20 -113 0 -99 -2 -108 -20 -113 -17 -4 -20 -14 -20 -55 0 -42 -3
-52 -20 -57 -11 -3 -20 -13 -20 -21 0 -9 -11 -14 -31 -14 -22 0 -32 -5 -36
-20 -4 -17 -14 -20 -58 -20 -44 0 -54 -3 -58 -20 -4 -17 -14 -20 -55 -20 -41
0 -51 -3 -55 -20 -4 -17 -14 -20 -61 -20 -43 0 -56 -3 -56 -15 0 -12 -13 -15
-55 -15 -48 0 -55 -2 -55 -20 0 -18 -7 -20 -56 -20 -47 0 -57 -3 -61 -20 -5
-17 -14 -20 -59 -20 -41 0 -54 -4 -54 -15 0 -8 -14 -17 -35 -21 -19 -3 -35
-12 -35 -19 0 -8 -17 -16 -40 -20 -25 -4 -40 -12 -40 -21 0 -9 -12 -14 -35
-14 -28 0 -35 -4 -35 -20 0 -16 -7 -20 -35 -20 -24 0 -37 -6 -45 -20 -7 -13
-21 -20 -40 -20 -19 0 -30 -5 -30 -14 0 -7 -9 -16 -20 -19 -11 -3 -20 -12 -20
-20 0 -8 -9 -17 -20 -20 -11 -3 -20 -12 -20 -21 0 -9 -7 -16 -15 -16 -8 0 -15
-7 -15 -16 0 -9 -9 -18 -20 -21 -11 -3 -20 -11 -20 -18 0 -7 -18 -15 -40 -19
-26 -4 -40 -11 -40 -21 0 -11 -13 -15 -55 -15 -48 0 -55 -2 -55 -20 0 -18 -7
-20 -54 -20 -45 0 -54 3 -59 20 -4 17 -14 20 -56 20 -37 0 -51 4 -51 14 0 18
-22 26 -70 26 -24 0 -40 5 -44 15 -3 9 -18 15 -37 15 -22 0 -32 5 -36 20 -4
17 -14 20 -58 20 -44 0 -54 3 -58 19 -4 16 -15 20 -58 23 -30 2 -52 7 -51 12
6 15 -22 26 -70 26 -36 0 -48 4 -48 15 0 11 -12 15 -50 15 -39 0 -52 4 -60 20
-8 16 -21 20 -59 20 -40 0 -50 3 -54 20 -4 17 -14 20 -56 20 -39 0 -51 4 -51
15 0 10 -10 15 -29 15 -49 0 -91 12 -91 26 0 10 -14 14 -50 14 -39 0 -52 4
-60 20 -9 16 -21 20 -61 20 -42 0 -52 3 -56 20 -5 17 -14 20 -59 20 -47 0 -54
-2 -54 -20 0 -13 -7 -20 -20 -20 -17 0 -20 -7 -20 -51 0 -42 3 -52 20 -56 16
-4 20 -14 20 -44 0 -32 4 -39 19 -39 16 0 20 -8 23 -37 2 -26 8 -38 18 -38 11
0 16 -14 18 -57 2 -43 7 -58 17 -58 10 0 15 -11 15 -34 0 -25 5 -35 20 -39 15
-4 20 -14 20 -37 0 -23 5 -33 20 -37 17 -5 20 -14 20 -59 0 -40 4 -54 14 -54
9 0 17 -15 21 -40 4 -24 12 -40 20 -40 8 0 17 -15 21 -35 3 -20 12 -35 20 -35
10 0 14 -15 14 -55 0 -48 2 -55 20 -55 17 0 20 -7 20 -40 0 -28 4 -40 15 -40
8 0 17 -14 21 -35 3 -20 12 -35 20 -35 10 0 14 -15 14 -56 0 -47 3 -57 20 -61
14 -4 20 -14 20 -34 0 -18 7 -32 20 -39 14 -8 20 -21 20 -45 0 -24 5 -35 15
-35 8 0 17 -14 21 -35 3 -20 12 -35 20 -35 10 0 14 -15 14 -54 0 -45 3 -54 20
-59 15 -4 20 -14 20 -41 0 -29 4 -36 20 -36 16 0 20 -7 20 -35 0 -20 6 -37 15
-43 9 -5 18 -29 22 -60 3 -32 11 -52 18 -52 7 0 16 -16 19 -35 4 -21 13 -35
21 -35 10 0 15 -11 15 -36 0 -27 5 -37 20 -41 17 -5 20 -14 20 -59 0 -47 3
-54 19 -54 16 0 20 -8 23 -37 2 -24 8 -37 16 -36 8 2 12 -10 12 -33 0 -27 5
-37 20 -41 17 -4 20 -14 20 -54 0 -38 4 -51 20 -59 13 -7 20 -21 20 -40 0 -16
7 -33 16 -38 11 -6 18 -27 22 -61 3 -31 9 -51 17 -51 15 0 27 -53 19 -86 -3
-13 -12 -24 -19 -24 -7 0 -16 -16 -19 -35 -4 -19 -11 -35 -17 -35 -5 0 -14
-11 -19 -25 -11 -30 -30 -33 -37 -5 -6 24 -43 27 -43 4 0 -9 9 -18 20 -21 11
-3 20 -12 20 -19 0 -8 -9 -14 -20 -14 -13 0 -20 -7 -20 -20 0 -11 -7 -20 -15
-20 -8 0 -15 -7 -15 -16 0 -9 -9 -18 -20 -21 -11 -3 -20 -11 -20 -18 0 -7 -9
-15 -20 -18 -15 -4 -20 -14 -20 -40 0 -26 -5 -36 -20 -40 -11 -3 -20 -12 -20
-21 0 -9 -7 -16 -15 -16 -8 0 -15 -6 -15 -14 0 -7 -9 -16 -20 -19 -11 -3 -20
-12 -20 -21 0 -9 -8 -16 -20 -16 -13 0 -20 -7 -20 -19 0 -10 -9 -21 -20 -24
-11 -3 -20 -12 -20 -21 0 -9 -7 -16 -15 -16 -8 0 -15 -7 -15 -16 0 -9 -9 -18
-20 -21 -28 -8 -28 -68 0 -76 11 -3 20 -12 20 -21 0 -12 10 -16 35 -16 23 0
35 -5 35 -14 0 -15 43 -26 106 -26 31 0 44 -4 44 -14 0 -15 43 -26 106 -26 32
0 44 -4 44 -15 0 -12 15 -15 75 -15 68 0 75 -2 75 -20 0 -18 7 -20 74 -20 65
0 74 -2 79 -20 4 -15 14 -20 41 -20 34 0 36 -2 36 -31 0 -22 -5 -32 -20 -36
-18 -5 -20 -14 -20 -78 0 -64 -2 -73 -20 -78 -18 -4 -20 -14 -20 -75 0 -61 -2
-70 -20 -75 -18 -5 -20 -14 -20 -76 0 -56 -3 -71 -15 -71 -12 0 -15 -15 -15
-71 0 -62 -2 -71 -20 -76 -17 -5 -20 -14 -20 -60 0 -46 3 -56 20 -60 11 -3 20
-12 20 -19 0 -15 7 -16 65 -16 73 0 85 2 85 17 0 9 10 16 28 17 15 0 32 2 37
3 6 2 27 3 48 4 26 1 37 6 37 16 0 12 15 15 74 15 65 0 74 2 79 20 5 18 14 20
76 20 54 0 71 3 71 14 0 19 32 26 118 26 57 0 72 3 72 15 0 12 15 15 71 15 62
0 71 2 76 20 5 18 14 20 75 20 61 0 71 2 75 20 5 18 14 20 79 20 67 0 74 2 74
20 0 16 7 20 35 20 28 0 35 -4 35 -20 0 -11 -7 -20 -15 -20 -8 0 -17 -14 -21
-35 -3 -20 -12 -35 -20 -35 -8 0 -15 -6 -15 -12 -1 -7 -2 -17 -4 -23 -1 -5 -3
-27 -3 -47 -2 -26 -7 -38 -17 -38 -12 0 -15 -15 -15 -71 0 -62 -2 -71 -20 -76
-15 -4 -20 -14 -20 -39 0 -24 -4 -34 -16 -34 -9 0 -18 -9 -21 -20 -3 -11 -11
-20 -18 -20 -7 0 -15 -9 -18 -20 -3 -11 -12 -20 -20 -20 -8 0 -17 -9 -20 -20
-3 -11 -11 -19 -19 -18 -9 2 -14 -10 -16 -34 -3 -30 -7 -38 -23 -38 -16 0 -19
-7 -19 -55 0 -42 -3 -55 -15 -55 -10 0 -15 -11 -16 -37 -1 -49 -11 -84 -24
-84 -6 1 -11 -57 -13 -149 -2 -124 0 -150 12 -150 16 0 26 -30 26 -77 0 -23 5
-33 15 -33 11 0 15 -11 15 -36 0 -27 5 -37 20 -41 11 -3 20 -12 20 -19 0 -8 7
-14 16 -14 9 0 18 -9 21 -20 3 -11 12 -20 20 -20 8 0 17 -9 20 -20 3 -11 11
-20 18 -20 7 0 15 -9 18 -20 3 -11 12 -20 21 -20 9 0 16 -6 16 -14 0 -7 9 -16
20 -19 11 -3 20 -12 20 -21 0 -12 10 -16 34 -16 25 0 35 -5 39 -20 4 -17 14
-20 57 -20 43 0 53 -3 57 -20 5 -18 14 -20 109 -20 93 0 104 2 114 20 9 16 21
20 61 20 42 0 52 3 56 20 4 15 14 20 38 20 25 0 34 5 38 21 3 12 10 18 17 14
7 -4 14 2 17 14 3 12 12 21 20 21 8 0 17 9 20 20 3 11 12 20 19 20 9 0 14 12
14 36 0 27 5 37 20 41 19 5 20 14 20 174 0 138 -3 169 -14 169 -8 0 -16 7 -20
15 -4 12 5 15 50 15 47 0 57 3 61 20 5 17 14 20 59 20 47 0 54 -2 54 -20 0
-11 7 -20 15 -20 11 0 15 -12 15 -51 0 -42 3 -52 20 -56 17 -4 20 -14 20 -54
0 -38 4 -51 20 -59 11 -6 20 -17 20 -25 0 -8 9 -15 20 -15 13 0 20 -7 20 -20
0 -16 7 -20 34 -20 25 0 35 -5 39 -20 4 -17 14 -20 56 -20 39 0 51 -4 51 -15
0 -22 188 -22 196 0 4 11 21 15 56 15 41 0 51 3 55 20 4 15 14 20 38 20 24 0
34 5 38 20 4 15 14 20 37 20 23 0 33 5 37 20 3 11 14 20 24 20 12 0 19 7 19
20 0 11 7 20 15 20 8 0 15 7 15 15 0 8 9 15 20 15 16 0 20 7 20 36 0 27 5 37
20 41 15 4 20 14 20 39 0 22 5 34 14 34 9 0 15 17 18 51 4 34 11 55 22 61 14
8 16 33 16 193 0 150 -3 185 -14 185 -14 0 -26 42 -26 91 0 18 -5 28 -12 26
-8 -1 -14 12 -16 36 -3 29 -7 37 -23 37 -12 0 -19 7 -19 20 0 13 -7 20 -20 20
-13 0 -20 7 -20 20 0 11 -7 20 -15 20 -8 0 -15 7 -15 15 0 8 -8 15 -19 15 -10
0 -21 9 -24 20 -3 11 -12 20 -21 20 -9 0 -16 8 -16 19 0 10 -9 21 -20 24 -18
5 -20 14 -20 76 0 56 -3 71 -15 71 -9 0 -15 9 -15 24 0 45 -13 86 -26 86 -9 0
-14 12 -14 36 0 27 -5 37 -20 41 -24 6 -27 33 -4 33 9 0 18 9 21 20 3 11 12
20 20 20 8 0 17 9 20 20 4 15 14 20 39 20 24 0 34 5 34 15 0 11 11 15 36 15
27 0 37 5 41 20 4 14 14 20 35 20 21 0 31 6 35 20 4 15 14 20 39 20 23 0 37 6
44 20 7 13 21 20 39 20 20 0 30 6 34 20 4 15 14 20 41 20 25 0 36 4 36 15 0
10 11 15 35 15 28 0 35 4 35 20 0 16 7 20 36 20 27 0 37 5 41 20 4 15 14 20
39 20 22 0 34 5 34 14 0 7 9 16 20 19 11 3 20 12 20 20 0 8 9 17 20 20 11 3
20 12 20 21 0 9 7 16 15 16 8 0 15 7 15 16 0 9 9 18 20 21 11 3 20 12 20 19 0
8 16 16 40 20 24 4 40 12 40 20 0 8 7 14 15 14 8 0 15 9 15 20 0 27 36 27 43
0 7 -26 37 -26 37 0 0 13 -7 20 -20 20 -13 0 -20 7 -20 20 0 13 7 20 20 20 13
0 20 7 20 20 0 11 7 20 15 20 9 0 18 7 21 15 8 19 34 19 34 0 0 -8 9 -15 20
-15 14 0 20 7 20 21 0 11 -4 18 -9 15 -5 -3 -14 1 -22 10 -10 13 -9 16 9 21
13 3 22 13 22 24 0 12 7 19 19 19 11 0 21 9 24 21 3 12 10 18 16 14 6 -3 14 2
18 12 13 36 47 63 81 63 25 0 32 4 32 20 0 13 7 20 20 20 13 0 20 7 20 20 0
13 7 20 20 20 11 0 20 7 20 15 0 8 7 15 15 15 8 0 15 -7 15 -15 0 -8 9 -15 20
-15 13 0 20 -7 20 -20 0 -13 -7 -20 -20 -20 -13 0 -20 -7 -20 -20 0 -13 7 -20
20 -20 13 0 20 7 20 19 0 10 9 21 20 24 11 3 20 12 20 21 0 9 -8 16 -20 16
-11 0 -20 7 -20 15 0 8 9 15 20 15 13 0 20 7 20 20 0 11 7 20 15 20 8 0 15 9
15 20 0 11 -7 20 -15 20 -8 0 -15 -7 -15 -16 0 -9 -9 -18 -19 -21 -11 -3 -21
-13 -24 -24 -7 -25 -37 -25 -37 1 0 13 7 20 20 20 13 0 20 7 20 20 0 13 7 20
20 20 13 0 20 7 20 20 0 11 7 20 15 20 8 0 15 7 15 16 0 9 9 18 20 21 11 3 20
12 20 19 0 8 9 14 20 14 13 0 20 7 20 20 0 13 7 20 20 20 13 0 20 7 20 20 0
16 7 20 35 20 23 0 35 5 35 14 0 7 9 16 20 19 11 3 20 12 20 20 0 8 9 17 20
20 11 3 20 12 20 21 0 9 8 16 20 16 13 0 20 7 20 20 0 11 7 20 15 20 8 0 15 7
15 16 0 9 9 18 20 21 11 3 20 11 20 18 0 7 9 15 20 18 15 4 20 14 20 41 0 29
-4 36 -20 36 -13 0 -20 7 -20 20 0 13 -7 20 -20 20 -11 0 -20 6 -20 14 0 8 -7
16 -15 20 -8 3 -15 12 -15 21 0 8 -9 15 -20 15 -12 0 -20 7 -20 16 0 9 -9 18
-20 21 -11 3 -20 14 -20 24 0 12 -7 19 -20 19 -11 0 -20 5 -20 11 0 15 -42 59
-57 59 -7 0 -13 9 -13 20 0 13 -7 20 -20 20 -13 0 -20 7 -20 20 0 13 -7 20
-20 20 -11 0 -20 6 -20 14 0 7 -9 16 -20 19 -12 3 -20 14 -20 26 0 12 -6 21
-15 21 -10 0 -15 10 -15 31 0 22 -5 32 -20 36 -19 5 -20 14 -20 284 0 272 -1
279 -20 279 -20 0 -20 8 -22 528 -2 415 -6 526 -15 524 -10 -1 -13 48 -13 223
l0 225 -60 0 c-46 0 -60 -3 -60 -14 0 -10 -13 -16 -37 -18 -26 -2 -38 -8 -38
-18 0 -10 -12 -16 -37 -18 -30 -3 -38 -7 -38 -23 0 -15 -7 -19 -35 -19 -22 0
-38 -6 -41 -15 -4 -9 -19 -15 -36 -15 -21 0 -31 -6 -35 -20 -4 -14 -14 -20
-34 -20 -18 0 -34 -8 -41 -20 -9 -13 -24 -20 -44 -20 -23 0 -33 -5 -37 -20 -4
-14 -14 -20 -35 -20 -21 0 -31 -6 -35 -20 -3 -11 -12 -20 -21 -20 -9 0 -16 8
-16 20 0 13 -7 20 -19 20 -16 0 -20 8 -23 38 -2 23 -8 36 -15 34 -12 -2 -18
11 -14 31 1 5 -7 11 -18 14 -11 3 -22 11 -25 19 -3 8 -12 14 -21 14 -8 0 -15
8 -15 19 0 10 -9 21 -20 24 -15 4 -20 14 -20 36 0 22 -5 31 -16 31 -9 0 -18 9
-21 20 -3 11 -12 20 -19 20 -8 0 -14 9 -14 20 0 13 -7 20 -19 20 -10 0 -21 9
-24 20 -3 11 -12 20 -21 20 -9 0 -16 7 -16 15 0 9 -7 18 -15 21 -8 3 -17 21
-21 39 -4 22 -13 35 -26 38 -12 3 -17 10 -13 17 4 7 -2 14 -14 17 -12 3 -21
12 -21 20 0 8 -9 17 -20 20 -11 3 -20 11 -20 18 0 7 -9 15 -20 18 -15 4 -20
14 -20 41 0 25 -4 36 -15 36 -8 0 -15 7 -15 15 0 8 -9 15 -20 15 -13 0 -20 7
-20 19 0 10 -9 21 -20 24 -11 3 -20 12 -20 20 0 8 -9 17 -20 20 -15 4 -20 14
-20 41 0 29 -4 36 -20 36 -11 0 -20 7 -20 15 0 8 -7 15 -15 15 -8 0 -15 9 -15
20 0 13 -7 20 -20 20 -13 0 -20 7 -20 20 0 11 -7 20 -15 20 -8 0 -17 14 -20
34 -5 22 -14 36 -26 39 -10 3 -19 12 -19 21 0 9 -7 16 -15 16 -8 0 -15 9 -15
20 0 13 -7 20 -19 20 -10 0 -21 9 -24 20 -3 11 -12 20 -21 20 -9 0 -16 7 -16
15 0 8 -7 15 -15 15 -11 0 -15 11 -15 36 0 27 -5 37 -19 41 -11 3 -21 13 -24
24 -3 10 -12 19 -21 19 -9 0 -16 7 -16 15 0 8 -7 15 -16 15 -9 0 -18 9 -21 19
-3 11 -13 21 -24 24 -13 4 -19 14 -19 36 0 16 -6 34 -13 38 -8 4 -17 16 -20
26 -4 10 -12 15 -18 12 -6 -4 -13 2 -16 14 -3 12 -13 21 -24 21 -12 0 -19 7
-19 20 0 16 -7 20 -36 20 -27 0 -37 -5 -41 -20z m1537 -2966 c0 -9 9 -18 20
-21 11 -3 20 -12 20 -20 0 -8 9 -17 20 -20 15 -4 20 -14 20 -38 0 -24 5 -34
20 -38 15 -4 20 -14 20 -41 0 -25 4 -36 15 -36 12 0 15 -15 15 -74 0 -83 6
-106 26 -106 11 0 14 -28 14 -150 0 -121 -3 -150 -14 -150 -17 0 -26 -44 -26
-126 0 -50 -3 -64 -15 -64 -12 0 -15 -15 -15 -75 0 -68 -2 -75 -20 -75 -16 0
-19 -8 -22 -57 -2 -44 -7 -58 -18 -58 -10 0 -16 -12 -18 -37 -2 -25 -8 -38
-18 -38 -9 0 -14 -11 -14 -31 0 -22 -5 -32 -20 -36 -15 -4 -20 -14 -20 -40 0
-26 -5 -36 -19 -40 -11 -3 -21 -13 -24 -24 -3 -10 -12 -19 -21 -19 -9 0 -16
-8 -16 -20 0 -11 -6 -20 -14 -20 -8 0 -16 -7 -20 -15 -3 -8 -12 -15 -20 -15
-7 0 -16 -9 -19 -20 -4 -15 -14 -20 -37 -20 -23 0 -33 -5 -37 -20 -4 -15 -14
-20 -39 -20 -24 0 -34 -5 -34 -15 0 -11 -11 -15 -40 -15 -29 0 -40 4 -40 15 0
8 -7 15 -15 15 -11 0 -15 11 -15 40 0 29 4 40 15 40 8 0 15 -9 15 -20 0 -18 7
-20 54 -20 45 0 54 3 59 20 4 15 14 20 41 20 25 0 36 4 36 15 0 8 7 15 16 15
9 0 18 9 21 20 3 11 12 20 20 20 8 0 17 9 20 20 3 11 11 20 18 20 7 0 15 9 18
20 3 11 12 20 21 20 12 0 16 10 16 34 0 25 5 35 20 39 17 4 20 14 20 56 0 37
4 51 14 51 20 0 26 23 26 91 0 44 4 61 15 65 13 5 15 38 15 210 0 175 -2 204
-15 204 -11 0 -15 12 -15 51 0 42 -3 52 -20 56 -15 4 -20 14 -20 40 0 26 -5
36 -20 40 -15 4 -20 14 -20 38 0 24 -5 34 -20 38 -15 4 -20 14 -20 41 0 25 -4
36 -15 36 -8 0 -15 7 -15 16 0 9 -9 18 -20 21 -11 3 -20 14 -20 24 0 11 -7 19
-15 19 -8 0 -15 5 -15 10 0 6 6 10 14 10 8 0 16 10 18 23 2 12 9 21 17 19 7
-1 15 7 18 18 3 11 12 20 20 20 8 0 17 9 20 20 3 11 12 20 19 20 8 0 14 9 14
20 0 16 7 20 35 20 25 0 35 -4 35 -16z m-2740 -1303 c0 -20 -6 -30 -20 -34
-15 -4 -20 -14 -20 -36 0 -21 -5 -31 -15 -31 -13 0 -15 -24 -15 -154 0 -145 1
-154 20 -159 17 -4 20 -14 20 -56 0 -39 4 -51 15 -51 11 0 15 -11 15 -36 0
-27 5 -37 20 -41 11 -3 20 -12 20 -19 0 -8 7 -14 16 -14 9 0 18 -9 21 -20 3
-11 14 -20 24 -20 12 0 19 -7 19 -20 0 -11 7 -20 15 -20 8 0 15 -7 15 -15 0
-8 7 -15 16 -15 9 0 18 -9 21 -19 3 -13 17 -22 44 -26 24 -4 39 -12 39 -21 0
-10 14 -14 51 -14 42 0 52 -3 56 -20 5 -19 14 -20 134 -20 122 0 129 1 129 20
0 18 7 20 55 20 40 0 57 4 61 15 3 8 21 17 40 21 24 4 34 12 34 25 0 12 7 19
20 19 11 0 20 7 20 15 0 8 7 15 16 15 9 0 18 9 21 20 3 11 11 20 18 20 7 0 15
9 18 20 3 11 12 20 20 20 8 0 17 9 20 20 3 11 11 19 19 18 9 -2 14 10 16 35 3
29 7 37 23 37 15 0 19 7 19 35 0 24 5 35 15 35 10 0 15 10 15 33 0 47 10 77
26 77 9 0 14 -12 14 -35 0 -28 4 -35 20 -35 13 0 20 -7 20 -20 0 -11 6 -20 14
-20 10 0 16 -13 18 -37 2 -26 8 -38 18 -38 8 0 16 -7 17 -15 9 -69 15 -90 28
-90 11 0 15 -12 15 -40 0 -28 -4 -40 -15 -40 -7 0 -18 -6 -22 -13 -4 -8 -16
-16 -25 -20 -10 -3 -18 -13 -18 -22 0 -14 -6 -16 -50 -19 -8 -1 -16 -9 -18
-19 -3 -14 -14 -17 -57 -17 -44 0 -54 -3 -58 -19 -4 -16 -15 -20 -58 -23 -40
-2 -54 -7 -54 -18 0 -12 -16 -16 -73 -18 -53 -2 -75 -7 -79 -17 -8 -23 -373
-22 -373 0 0 11 -13 15 -54 15 -45 0 -54 3 -59 20 -4 15 -14 20 -37 20 -23 0
-33 5 -37 19 -3 11 -14 22 -25 24 -12 3 -17 10 -13 17 4 7 -1 14 -13 17 -11 2
-22 13 -25 24 -3 10 -12 19 -21 19 -9 0 -16 7 -16 15 0 8 -9 15 -20 15 -13 0
-20 7 -20 20 0 13 -7 20 -20 20 -13 0 -20 7 -20 20 0 11 -7 20 -15 20 -10 0
-15 10 -15 34 0 25 -5 35 -20 39 -15 4 -20 14 -20 41 0 29 -4 36 -20 36 -18 0
-20 7 -20 75 0 60 -3 75 -15 75 -13 0 -15 23 -15 150 0 143 1 150 20 150 11 0
20 7 20 15 0 10 10 15 30 15 18 0 33 6 36 15 11 27 34 17 34 -14z"/>
<path d="M2180 8260 c0 -13 7 -20 20 -20 13 0 20 7 20 20 0 13 -7 20 -20 20
-13 0 -20 -7 -20 -20z"/>
<path d="M2292 8263 c5 -26 38 -29 38 -4 0 15 -6 21 -21 21 -14 0 -19 -5 -17
-17z"/>
<path d="M2860 8260 c0 -15 5 -20 18 -18 9 2 17 10 17 18 0 8 -8 16 -17 18
-13 2 -18 -3 -18 -18z"/>
<path d="M2970 8259 c0 -25 33 -22 38 4 2 12 -3 17 -17 17 -15 0 -21 -6 -21
-21z"/>
<path d="M3080 8260 c0 -13 7 -20 20 -20 13 0 20 7 20 20 0 13 -7 20 -20 20
-13 0 -20 -7 -20 -20z"/>
<path d="M2297 8163 c-14 -13 -6 -33 13 -33 13 0 20 7 20 20 0 19 -20 27 -33
13z"/>
<path d="M2410 8150 c0 -11 7 -20 15 -20 8 0 15 9 15 20 0 11 -7 20 -15 20 -8
0 -15 -9 -15 -20z"/>
<path d="M2860 8150 c0 -15 5 -20 18 -18 9 2 17 10 17 18 0 8 -8 16 -17 18
-13 2 -18 -3 -18 -18z"/>
<path d="M2970 8151 c0 -15 6 -21 21 -21 25 0 22 33 -4 38 -12 2 -17 -3 -17
-17z"/>
<path d="M3080 8150 c0 -13 7 -20 20 -20 13 0 20 7 20 20 0 13 -7 20 -20 20
-13 0 -20 -7 -20 -20z"/>
<path d="M2297 8053 c-14 -13 -6 -33 13 -33 13 0 20 7 20 20 0 19 -20 27 -33
13z"/>
<path d="M2410 8040 c0 -11 7 -20 15 -20 8 0 15 9 15 20 0 11 -7 20 -15 20 -8
0 -15 -9 -15 -20z"/>
<path d="M2527 8054 c-14 -15 -6 -34 14 -34 14 0 19 5 17 17 -3 18 -20 27 -31
17z"/>
<path d="M2977 8054 c-14 -15 -6 -34 14 -34 14 0 19 5 17 17 -3 18 -20 27 -31
17z"/>
<path d="M3087 8054 c-14 -15 -6 -34 14 -34 14 0 19 5 17 17 -3 18 -20 27 -31
17z"/>
<path d="M3197 8054 c-14 -15 -6 -34 14 -34 14 0 19 5 17 17 -3 18 -20 27 -31
17z"/>
<path d="M2412 7924 c4 -21 22 -23 26 -1 2 10 -3 17 -13 17 -10 0 -15 -6 -13
-16z"/>
<path d="M2520 7925 c0 -8 9 -15 20 -15 11 0 20 7 20 15 0 8 -9 15 -20 15 -11
0 -20 -7 -20 -15z"/>
<path d="M2630 7925 c0 -8 9 -15 20 -15 11 0 20 7 20 15 0 8 -9 15 -20 15 -11
0 -20 -7 -20 -15z"/>
<path d="M2740 7925 c0 -8 9 -15 20 -15 11 0 20 7 20 15 0 8 -9 15 -20 15 -11
0 -20 -7 -20 -15z"/>
<path d="M2970 7927 c0 -19 10 -27 26 -20 21 8 17 33 -6 33 -11 0 -20 -6 -20
-13z"/>
<path d="M3080 7925 c0 -8 9 -15 20 -15 11 0 20 7 20 15 0 8 -9 15 -20 15 -11
0 -20 -7 -20 -15z"/>
<path d="M3190 7925 c0 -8 9 -15 20 -15 11 0 20 7 20 15 0 8 -9 15 -20 15 -11
0 -20 -7 -20 -15z"/>
<path d="M3310 7927 c0 -19 10 -27 26 -20 21 8 17 33 -6 33 -11 0 -20 -6 -20
-13z"/>
<path d="M3422 7923 c2 -10 10 -18 18 -18 8 0 16 8 18 18 2 12 -3 17 -18 17
-15 0 -20 -5 -18 -17z"/>
<path d="M2295 7820 c-8 -14 3 -30 21 -30 8 0 14 9 14 20 0 21 -24 28 -35 10z"/>
<path d="M2410 7810 c0 -11 7 -20 15 -20 8 0 15 9 15 20 0 11 -7 20 -15 20 -8
0 -15 -9 -15 -20z"/>
<path d="M2520 7810 c0 -15 5 -20 18 -18 9 2 17 10 17 18 0 8 -8 16 -17 18
-13 2 -18 -3 -18 -18z"/>
<path d="M2630 7810 c0 -13 7 -20 20 -20 13 0 20 7 20 20 0 13 -7 20 -20 20
-13 0 -20 -7 -20 -20z"/>
<path d="M2745 7820 c-8 -14 3 -30 21 -30 8 0 14 9 14 20 0 21 -24 28 -35 10z"/>
<path d="M2860 7810 c0 -11 7 -20 15 -20 8 0 15 9 15 20 0 11 -7 20 -15 20 -8
0 -15 -9 -15 -20z"/>
<path d="M3080 7810 c0 -13 7 -20 20 -20 13 0 20 7 20 20 0 13 -7 20 -20 20
-13 0 -20 -7 -20 -20z"/>
<path d="M3192 7813 c5 -26 38 -29 38 -4 0 15 -6 21 -21 21 -14 0 -19 -5 -17
-17z"/>
<path d="M3310 7809 c0 -25 33 -22 38 4 2 12 -3 17 -17 17 -15 0 -21 -6 -21
-21z"/>
<path d="M3420 7810 c0 -13 7 -20 20 -20 13 0 20 7 20 20 0 13 -7 20 -20 20
-13 0 -20 -7 -20 -20z"/>
<path d="M3532 7813 c5 -26 38 -29 38 -4 0 15 -6 21 -21 21 -14 0 -19 -5 -17
-17z"/>
<path d="M2295 7710 c-8 -14 3 -30 21 -30 8 0 14 9 14 20 0 21 -24 28 -35 10z"/>
<path d="M2410 7700 c0 -11 7 -20 15 -20 8 0 15 9 15 20 0 11 -7 20 -15 20 -8
0 -15 -9 -15 -20z"/>
<path d="M2520 7700 c0 -15 5 -20 18 -18 9 2 17 10 17 18 0 8 -8 16 -17 18
-13 2 -18 -3 -18 -18z"/>
<path d="M2630 7700 c0 -13 7 -20 20 -20 13 0 20 7 20 20 0 13 -7 20 -20 20
-13 0 -20 -7 -20 -20z"/>
<path d="M2747 7713 c-14 -13 -6 -33 13 -33 13 0 20 7 20 20 0 19 -20 27 -33
13z"/>
<path d="M2860 7700 c0 -11 7 -20 15 -20 8 0 15 9 15 20 0 11 -7 20 -15 20 -8
0 -15 -9 -15 -20z"/>
<path d="M2970 7700 c0 -15 5 -20 18 -18 9 2 17 10 17 18 0 8 -8 16 -17 18
-13 2 -18 -3 -18 -18z"/>
<path d="M3080 7700 c0 -13 7 -20 20 -20 13 0 20 7 20 20 0 13 -7 20 -20 20
-13 0 -20 -7 -20 -20z"/>
<path d="M3197 7713 c-14 -13 -6 -33 13 -33 13 0 20 7 20 20 0 19 -20 27 -33
13z"/>
<path d="M3310 7701 c0 -15 6 -21 21 -21 25 0 22 33 -4 38 -12 2 -17 -3 -17
-17z"/>
<path d="M3420 7700 c0 -13 7 -20 20 -20 13 0 20 7 20 20 0 13 -7 20 -20 20
-13 0 -20 -7 -20 -20z"/>
<path d="M3537 7713 c-14 -13 -6 -33 13 -33 13 0 20 7 20 20 0 19 -20 27 -33
13z"/>
<path d="M2293 7594 c-6 -17 15 -37 29 -28 13 9 9 32 -7 38 -9 3 -18 -1 -22
-10z"/>
<path d="M2416 7603 c-12 -12 -6 -33 9 -33 8 0 15 6 15 14 0 17 -14 28 -24 19z"/>
<path d="M2533 7603 c-21 -7 -15 -33 7 -33 11 0 20 6 20 14 0 18 -11 25 -27
19z"/>
<path d="M2641 7600 c-19 -11 -6 -41 14 -34 16 6 20 29 7 38 -4 2 -14 1 -21
-4z"/>
<path d="M2753 7603 c-21 -8 -15 -33 7 -33 13 0 20 7 20 20 0 20 -5 23 -27 13z"/>
<path d="M2864 7596 c-4 -10 -2 -22 4 -28 8 -8 13 -7 18 6 4 10 2 22 -4 28 -8
8 -13 7 -18 -6z"/>
<path d="M2981 7600 c-19 -11 -6 -41 14 -34 16 6 20 29 7 38 -4 2 -14 1 -21
-4z"/>
<path d="M3194 7595 c-7 -18 3 -35 22 -35 8 0 14 10 14 25 0 27 -27 35 -36 10z"/>
<path d="M3310 7585 c0 -20 4 -26 18 -23 9 2 17 12 17 23 0 11 -8 21 -17 23
-14 3 -18 -3 -18 -23z"/>
<path d="M3423 7594 c-8 -21 13 -42 28 -27 13 13 5 43 -11 43 -6 0 -13 -7 -17
-16z"/>
<path d="M3533 7594 c-8 -21 13 -42 28 -27 13 13 5 43 -11 43 -6 0 -13 -7 -17
-16z"/>
<path d="M3644 7595 c-7 -18 3 -35 22 -35 8 0 14 10 14 25 0 27 -27 35 -36 10z"/>
<path d="M2180 7585 c0 -8 9 -15 20 -15 11 0 20 7 20 15 0 8 -9 15 -20 15 -11
0 -20 -7 -20 -15z"/>
<path d="M2182 7473 c2 -10 10 -18 18 -18 8 0 16 8 18 18 2 12 -3 17 -18 17
-15 0 -20 -5 -18 -17z"/>
<path d="M2294 7479 c-8 -14 11 -33 25 -25 16 10 13 36 -3 36 -8 0 -18 -5 -22
-11z"/>
<path d="M2410 7470 c0 -11 7 -20 15 -20 8 0 15 9 15 20 0 11 -7 20 -15 20 -8
0 -15 -9 -15 -20z"/>
<path d="M2520 7469 c0 -25 33 -22 38 4 2 12 -3 17 -17 17 -15 0 -21 -6 -21
-21z"/>
<path d="M2632 7473 c2 -10 10 -18 18 -18 8 0 16 8 18 18 2 12 -3 17 -18 17
-15 0 -20 -5 -18 -17z"/>
<path d="M2745 7480 c-8 -14 3 -30 21 -30 8 0 14 9 14 20 0 21 -24 28 -35 10z"/>
<path d="M2860 7470 c0 -23 25 -27 33 -6 7 16 -1 26 -20 26 -7 0 -13 -9 -13
-20z"/>
<path d="M2972 7473 c4 -21 33 -25 33 -3 0 8 -8 16 -18 18 -14 3 -18 -1 -15
-15z"/>
<path d="M3082 7473 c2 -10 10 -18 18 -18 8 0 16 8 18 18 2 12 -3 17 -18 17
-15 0 -20 -5 -18 -17z"/>
<path d="M3192 7473 c5 -26 38 -29 38 -4 0 15 -6 21 -21 21 -14 0 -19 -5 -17
-17z"/>
<path d="M3310 7469 c0 -25 33 -22 38 4 2 12 -3 17 -17 17 -15 0 -21 -6 -21
-21z"/>
<path d="M3420 7470 c0 -13 7 -20 20 -20 13 0 20 7 20 20 0 13 -7 20 -20 20
-13 0 -20 -7 -20 -20z"/>
<path d="M3532 7473 c5 -26 38 -29 38 -4 0 15 -6 21 -21 21 -14 0 -19 -5 -17
-17z"/>
<path d="M3645 7480 c-8 -14 3 -30 21 -30 8 0 14 9 14 20 0 21 -24 28 -35 10z"/>
<path d="M1960 7360 c0 -11 7 -20 15 -20 8 0 15 9 15 20 0 11 -7 20 -15 20 -8
0 -15 -9 -15 -20z"/>
<path d="M2070 7360 c0 -15 5 -20 18 -18 9 2 17 10 17 18 0 8 -8 16 -17 18
-13 2 -18 -3 -18 -18z"/>
<path d="M2180 7360 c0 -13 7 -20 20 -20 13 0 20 7 20 20 0 13 -7 20 -20 20
-13 0 -20 -7 -20 -20z"/>
<path d="M2295 7370 c-8 -14 3 -30 21 -30 8 0 14 9 14 20 0 21 -24 28 -35 10z"/>
<path d="M2410 7360 c0 -11 7 -20 15 -20 8 0 15 9 15 20 0 11 -7 20 -15 20 -8
0 -15 -9 -15 -20z"/>
<path d="M2520 7360 c0 -15 5 -20 18 -18 9 2 17 10 17 18 0 8 -8 16 -17 18
-13 2 -18 -3 -18 -18z"/>
<path d="M2630 7360 c0 -13 7 -20 20 -20 13 0 20 7 20 20 0 13 -7 20 -20 20
-13 0 -20 -7 -20 -20z"/>
<path d="M2745 7370 c-8 -14 3 -30 21 -30 8 0 14 9 14 20 0 21 -24 28 -35 10z"/>
<path d="M2860 7360 c0 -23 25 -27 33 -6 7 16 -1 26 -20 26 -7 0 -13 -9 -13
-20z"/>
<path d="M2972 7363 c2 -10 10 -18 18 -18 22 0 18 29 -3 33 -14 3 -18 -1 -15
-15z"/>
<path d="M3085 7370 c-8 -14 3 -30 21 -30 8 0 14 9 14 20 0 21 -24 28 -35 10z"/>
<path d="M3195 7370 c-8 -14 3 -30 21 -30 8 0 14 9 14 20 0 21 -24 28 -35 10z"/>
<path d="M3310 7361 c0 -15 6 -21 21 -21 25 0 22 33 -4 38 -12 2 -17 -3 -17
-17z"/>
<path d="M3420 7360 c0 -13 7 -20 20 -20 13 0 20 7 20 20 0 13 -7 20 -20 20
-13 0 -20 -7 -20 -20z"/>
<path d="M3535 7370 c-8 -14 3 -30 21 -30 8 0 14 9 14 20 0 21 -24 28 -35 10z"/>
<path d="M3645 7370 c-8 -14 3 -30 21 -30 8 0 14 9 14 20 0 21 -24 28 -35 10z"/>
<path d="M1960 7250 c0 -11 7 -20 15 -20 8 0 15 9 15 20 0 11 -7 20 -15 20 -8
0 -15 -9 -15 -20z"/>
<path d="M2070 7250 c0 -15 5 -20 18 -18 9 2 17 10 17 18 0 8 -8 16 -17 18
-13 2 -18 -3 -18 -18z"/>
<path d="M2187 7264 c-14 -15 -6 -34 14 -34 14 0 19 5 17 17 -3 18 -20 27 -31
17z"/>
<path d="M2295 7260 c-8 -14 3 -30 21 -30 8 0 14 9 14 20 0 21 -24 28 -35 10z"/>
<path d="M2410 7250 c0 -11 7 -20 15 -20 8 0 15 9 15 20 0 11 -7 20 -15 20 -8
0 -15 -9 -15 -20z"/>
<path d="M2520 7250 c0 -15 5 -20 18 -18 9 2 17 10 17 18 0 8 -8 16 -17 18
-13 2 -18 -3 -18 -18z"/>
<path d="M2630 7251 c0 -15 6 -21 21 -21 25 0 22 33 -4 38 -12 2 -17 -3 -17
-17z"/>
<path d="M2745 7260 c-8 -14 3 -30 21 -30 8 0 14 9 14 20 0 21 -24 28 -35 10z"/>
<path d="M2860 7250 c0 -11 6 -20 13 -20 19 0 27 10 20 26 -8 21 -33 17 -33
-6z"/>
<path d="M2977 7264 c-14 -14 -7 -35 11 -32 9 2 17 10 17 17 0 16 -18 25 -28
15z"/>
<path d="M3087 7264 c-14 -15 -6 -34 14 -34 14 0 19 5 17 17 -3 18 -20 27 -31
17z"/>
<path d="M3195 7260 c-8 -14 3 -30 21 -30 8 0 14 9 14 20 0 21 -24 28 -35 10z"/>
<path d="M3310 7251 c0 -15 6 -21 21 -21 25 0 22 33 -4 38 -12 2 -17 -3 -17
-17z"/>
<path d="M3420 7250 c0 -13 7 -20 20 -20 13 0 20 7 20 20 0 13 -7 20 -20 20
-13 0 -20 -7 -20 -20z"/>
<path d="M3537 7263 c-14 -13 -6 -33 13 -33 13 0 20 7 20 20 0 19 -20 27 -33
13z"/>
<path d="M2077 7154 c-15 -15 -7 -45 11 -42 9 2 17 12 17 22 0 20 -16 31 -28
20z"/>
<path d="M2183 7144 c-8 -21 13 -42 28 -27 13 13 5 43 -11 43 -6 0 -13 -7 -17
-16z"/>
<path d="M2293 7144 c-8 -21 13 -42 28 -27 13 13 5 43 -11 43 -6 0 -13 -7 -17
-16z"/>
<path d="M2410 7135 c0 -18 4 -23 15 -19 8 4 15 15 15 25 0 10 -7 19 -15 19
-9 0 -15 -9 -15 -25z"/>
<path d="M2527 7154 c-14 -15 -7 -42 11 -40 9 2 17 11 17 21 0 19 -17 30 -28
19z"/>
<path d="M2633 7144 c-8 -21 13 -42 28 -27 13 13 5 43 -11 43 -6 0 -13 -7 -17
-16z"/>
<path d="M2744 7145 c-7 -18 0 -28 22 -31 10 -2 14 4 12 19 -4 26 -26 34 -34
12z"/>
<path d="M2867 7153 c-4 -3 -7 -15 -7 -25 0 -26 24 -17 28 10 3 21 -8 29 -21
15z"/>
<path d="M2973 7144 c-8 -21 13 -42 28 -27 13 13 5 43 -11 43 -6 0 -13 -7 -17
-16z"/>
<path d="M3083 7144 c-8 -21 13 -42 28 -27 13 13 5 43 -11 43 -6 0 -13 -7 -17
-16z"/>
<path d="M3194 7145 c-7 -18 3 -35 22 -35 8 0 14 10 14 25 0 27 -27 35 -36 10z"/>
<path d="M3427 7154 c-15 -15 -7 -45 11 -42 9 2 17 12 17 22 0 20 -16 31 -28
20z"/>
<path d="M5340 7135 c0 -17 5 -25 13 -22 6 2 12 12 12 22 0 10 -6 20 -12 23
-8 2 -13 -6 -13 -23z"/>
<path d="M2180 7020 c0 -13 7 -20 20 -20 13 0 20 7 20 20 0 13 -7 20 -20 20
-13 0 -20 -7 -20 -20z"/>
<path d="M2295 7030 c-8 -14 3 -30 21 -30 8 0 14 9 14 20 0 21 -24 28 -35 10z"/>
<path d="M2410 7020 c0 -11 7 -20 15 -20 8 0 15 9 15 20 0 11 -7 20 -15 20 -8
0 -15 -9 -15 -20z"/>
<path d="M2520 7020 c0 -15 5 -20 18 -18 9 2 17 10 17 18 0 8 -8 16 -17 18
-13 2 -18 -3 -18 -18z"/>
<path d="M2630 7020 c0 -13 7 -20 20 -20 13 0 20 7 20 20 0 13 -7 20 -20 20
-13 0 -20 -7 -20 -20z"/>
<path d="M2742 7023 c5 -26 38 -29 38 -4 0 15 -6 21 -21 21 -14 0 -19 -5 -17
-17z"/>
<path d="M2860 7020 c0 -11 7 -20 15 -20 8 0 15 9 15 20 0 11 -7 20 -15 20 -8
0 -15 -9 -15 -20z"/>
<path d="M2970 7020 c0 -15 5 -20 18 -18 9 2 17 10 17 18 0 8 -8 16 -17 18
-13 2 -18 -3 -18 -18z"/>
<path d="M3082 7023 c5 -26 38 -29 38 -4 0 15 -6 21 -21 21 -14 0 -19 -5 -17
-17z"/>
<path d="M6010 7020 c0 -13 7 -20 20 -20 13 0 20 7 20 20 0 13 -7 20 -20 20
-13 0 -20 -7 -20 -20z"/>
<path d="M2295 6920 c-8 -14 3 -30 21 -30 8 0 14 9 14 20 0 21 -24 28 -35 10z"/>
<path d="M2410 6910 c0 -11 7 -20 15 -20 8 0 15 9 15 20 0 11 -7 20 -15 20 -8
0 -15 -9 -15 -20z"/>
<path d="M2520 6910 c0 -15 5 -20 18 -18 9 2 17 10 17 18 0 8 -8 16 -17 18
-13 2 -18 -3 -18 -18z"/>
<path d="M2630 6910 c0 -13 7 -20 20 -20 13 0 20 7 20 20 0 13 -7 20 -20 20
-13 0 -20 -7 -20 -20z"/>
<path d="M2747 6923 c-14 -13 -6 -33 13 -33 13 0 20 7 20 20 0 19 -20 27 -33
13z"/>
<path d="M6010 6910 c0 -13 7 -20 20 -20 13 0 20 7 20 20 0 13 -7 20 -20 20
-13 0 -20 -7 -20 -20z"/>
<path d="M6127 6923 c-14 -13 -6 -33 13 -33 13 0 20 7 20 20 0 19 -20 27 -33
13z"/>
<path d="M2070 6830 c0 -13 7 -20 20 -20 11 0 20 -7 20 -15 0 -8 7 -15 15 -15
8 0 15 -9 15 -20 0 -11 -7 -20 -15 -20 -8 0 -15 -7 -15 -16 0 -9 -9 -18 -20
-21 -11 -3 -20 -14 -20 -24 0 -12 7 -19 20 -19 11 0 20 -7 20 -15 0 -23 27
-18 33 6 6 24 30 21 35 -4 2 -12 -3 -17 -17 -17 -14 0 -21 -6 -21 -20 0 -11
-7 -20 -15 -20 -8 0 -15 9 -15 20 0 13 -7 20 -19 20 -10 0 -21 9 -24 20 -3 11
-12 20 -21 20 -9 0 -16 6 -16 14 0 7 -9 16 -20 19 -11 3 -20 12 -20 21 0 9 8
16 20 16 13 0 20 -7 20 -20 0 -13 7 -20 20 -20 12 0 20 7 20 16 0 9 -9 18 -20
21 -11 3 -20 14 -20 24 0 12 -7 19 -20 19 -11 0 -20 7 -20 15 0 8 -7 15 -15
15 -8 0 -15 -7 -15 -15 0 -8 7 -15 15 -15 8 0 15 -9 15 -20 0 -11 -7 -20 -15
-20 -8 0 -15 -9 -15 -20 0 -11 7 -20 15 -20 8 0 15 -7 15 -15 0 -8 -7 -15 -15
-15 -8 0 -15 7 -15 15 0 8 -9 15 -20 15 -11 0 -20 -6 -20 -14 0 -8 9 -18 20
-21 11 -3 20 -11 20 -17 0 -5 -9 -12 -20 -15 -11 -3 -20 -13 -20 -23 0 -10 9
-20 20 -23 11 -3 20 -12 20 -21 0 -9 6 -16 14 -16 7 0 16 -9 19 -20 3 -11 10
-20 17 -20 7 0 14 9 17 20 3 11 14 20 24 20 12 0 19 -7 19 -20 0 -12 7 -20 16
-20 9 0 18 9 21 20 3 11 12 20 19 20 8 0 14 -9 14 -20 0 -11 -7 -20 -15 -20
-8 0 -15 -7 -15 -15 0 -8 7 -15 15 -15 8 0 15 6 15 14 0 7 9 16 20 19 11 3 20
12 20 21 0 24 37 20 43 -5 3 -12 10 -18 16 -14 16 9 13 35 -4 35 -22 0 -18 37
5 43 22 6 18 37 -5 37 -7 0 -15 9 -18 20 -3 11 -12 20 -21 20 -9 0 -16 7 -16
15 0 8 -9 15 -20 15 -11 0 -20 -7 -20 -15 0 -8 -7 -15 -15 -15 -8 0 -15 7 -15
15 0 8 7 15 15 15 8 0 15 9 15 20 0 13 7 20 20 20 13 0 20 -7 20 -20 0 -13 7
-20 20 -20 13 0 20 7 20 20 0 13 -7 20 -20 20 -13 0 -20 7 -20 20 0 13 -7 20
-20 20 -11 0 -20 7 -20 15 0 8 -7 15 -15 15 -8 0 -15 9 -15 20 0 13 -7 20 -20
20 -13 0 -20 -7 -20 -20z m-40 -186 c0 -8 -9 -14 -20 -14 -13 0 -20 -7 -20
-20 0 -13 7 -20 19 -20 10 0 21 9 24 20 3 11 10 20 17 20 7 0 14 -9 17 -20 3
-11 14 -20 24 -20 12 0 19 -7 19 -20 0 -13 -7 -20 -20 -20 -13 0 -20 7 -20 20
0 13 -7 20 -20 20 -13 0 -20 -7 -20 -20 0 -13 -7 -20 -20 -20 -13 0 -20 7 -20
20 0 11 -7 20 -15 20 -8 0 -15 9 -15 21 0 11 5 17 10 14 6 -3 14 5 20 19 10
27 40 27 40 0z m190 -34 c0 -13 -7 -20 -20 -20 -13 0 -20 -7 -20 -20 0 -13 -7
-20 -20 -20 -13 0 -20 7 -20 20 0 13 7 20 19 20 10 0 21 9 24 20 3 11 12 20
21 20 9 0 16 -8 16 -20z"/>
<path d="M1660 6795 c0 -8 -9 -15 -20 -15 -13 0 -20 -7 -20 -20 0 -13 7 -20
20 -20 13 0 20 -7 20 -20 0 -11 7 -20 15 -20 8 0 15 -7 15 -15 0 -8 9 -15 20
-15 13 0 20 -7 20 -20 0 -13 7 -20 20 -20 12 0 20 7 20 16 0 9 -9 18 -20 21
-11 3 -20 11 -20 18 0 7 9 15 20 18 11 3 20 12 20 21 0 9 -8 16 -20 16 -13 0
-20 7 -20 20 0 13 -7 20 -20 20 -11 0 -20 7 -20 15 0 8 -7 15 -15 15 -8 0 -15
-7 -15 -15z m30 -35 c0 -13 7 -20 20 -20 13 0 20 -7 20 -20 0 -13 -7 -20 -20
-20 -13 0 -20 7 -20 20 0 11 -7 20 -15 20 -8 0 -15 9 -15 20 0 11 7 20 15 20
8 0 15 -9 15 -20z"/>
<path d="M1800 6795 c0 -8 -7 -15 -15 -15 -8 0 -15 -9 -15 -20 0 -13 7 -20 20
-20 13 0 20 7 20 19 0 11 9 21 21 24 12 3 18 10 14 16 -10 16 -45 13 -45 -4z"/>
<path d="M2410 6795 c0 -8 7 -15 15 -15 8 0 15 7 15 15 0 8 -7 15 -15 15 -8 0
-15 -7 -15 -15z"/>
<path d="M2520 6795 c0 -8 9 -15 20 -15 11 0 20 7 20 15 0 8 -9 15 -20 15 -11
0 -20 -7 -20 -15z"/>
<path d="M6120 6795 c0 -8 9 -15 20 -15 11 0 20 7 20 15 0 8 -9 15 -20 15 -11
0 -20 -7 -20 -15z"/>
<path d="M1840 6761 c0 -10 -9 -21 -20 -24 -11 -3 -20 -10 -20 -17 0 -7 9 -14
20 -17 11 -3 20 -11 20 -18 0 -8 9 -16 19 -20 10 -3 21 -15 24 -25 7 -25 37
-16 37 11 0 12 -7 19 -20 19 -11 0 -20 7 -20 15 0 8 -9 15 -20 15 -12 0 -20 7
-20 16 0 9 9 18 20 21 11 3 20 14 20 24 0 12 -7 19 -20 19 -13 0 -20 -7 -20
-19z"/>
<path d="M1880 6720 c0 -13 7 -20 20 -20 13 0 20 7 20 20 0 13 -7 20 -20 20
-13 0 -20 -7 -20 -20z"/>
<path d="M6120 6686 c0 -7 9 -16 20 -19 15 -4 20 0 20 14 0 12 -7 19 -20 19
-11 0 -20 -6 -20 -14z"/>
<path d="M6240 6685 c0 -8 7 -15 15 -15 8 0 15 7 15 15 0 8 -7 15 -15 15 -8 0
-15 -7 -15 -15z"/>
<path d="M1808 6658 c-5 -14 44 -68 61 -68 6 0 11 -9 11 -20 0 -13 7 -20 20
-20 13 0 20 7 20 20 0 13 -7 20 -20 20 -13 0 -20 7 -20 20 0 13 -7 20 -20 20
-13 0 -20 7 -20 20 0 22 -26 28 -32 8z"/>
<path d="M6122 6573 c5 -26 38 -29 38 -4 0 15 -6 21 -21 21 -14 0 -19 -5 -17
-17z"/>
<path d="M6240 6570 c0 -11 7 -20 15 -20 8 0 15 9 15 20 0 11 -7 20 -15 20 -8
0 -15 -9 -15 -20z"/>
<path d="M6350 6570 c0 -15 5 -20 18 -18 9 2 17 10 17 18 0 8 -8 16 -17 18
-13 2 -18 -3 -18 -18z"/>
<path d="M6127 6473 c-14 -13 -6 -33 13 -33 13 0 20 7 20 20 0 19 -20 27 -33
13z"/>
<path d="M6240 6460 c0 -11 7 -20 15 -20 8 0 15 9 15 20 0 11 -7 20 -15 20 -8
0 -15 -9 -15 -20z"/>
<path d="M6120 6345 c0 -8 9 -15 20 -15 11 0 20 7 20 15 0 8 -9 15 -20 15 -11
0 -20 -7 -20 -15z"/>
<path d="M6240 6345 c0 -8 7 -15 15 -15 8 0 15 7 15 15 0 8 -7 15 -15 15 -8 0
-15 -7 -15 -15z"/>
<path d="M6120 6235 c0 -8 9 -15 20 -15 11 0 20 7 20 15 0 8 -9 15 -20 15 -11
0 -20 -7 -20 -15z"/>
<path d="M6242 6234 c4 -21 22 -23 26 -1 2 10 -3 17 -13 17 -10 0 -15 -6 -13
-16z"/>
<path d="M6350 6236 c0 -17 27 -29 35 -16 4 6 3 15 0 20 -9 15 -35 12 -35 -4z"/>
<path d="M6125 6130 c-8 -14 3 -30 21 -30 8 0 14 9 14 20 0 21 -24 28 -35 10z"/>
<path d="M6240 6120 c0 -15 5 -20 18 -18 9 2 17 10 17 18 0 8 -8 16 -17 18
-13 2 -18 -3 -18 -18z"/>
<path d="M6350 6119 c0 -25 33 -22 38 4 2 12 -3 17 -17 17 -15 0 -21 -6 -21
-21z"/>
<path d="M6127 6023 c-14 -13 -6 -33 13 -33 13 0 20 7 20 20 0 19 -20 27 -33
13z"/>
<path d="M6240 6010 c0 -15 5 -20 18 -18 9 2 17 10 17 18 0 8 -8 16 -17 18
-13 2 -18 -3 -18 -18z"/>
<path d="M6350 6011 c0 -15 6 -21 21 -21 14 0 19 5 17 17 -5 26 -38 29 -38 4z"/>
<path d="M6131 5910 c-17 -10 -7 -40 14 -40 8 0 15 9 15 19 0 24 -12 32 -29
21z"/>
<path d="M6353 5904 c-8 -21 13 -42 28 -27 13 13 5 43 -11 43 -6 0 -13 -7 -17
-16z"/>
<path d="M6463 5904 c-8 -21 13 -42 28 -27 13 13 5 43 -11 43 -6 0 -13 -7 -17
-16z"/>
<path d="M6242 5893 c5 -25 28 -28 28 -4 0 12 -6 21 -16 21 -9 0 -14 -7 -12
-17z"/>
<path d="M830 5779 c0 -25 33 -22 38 4 2 12 -3 17 -17 17 -15 0 -21 -6 -21
-21z"/>
<path d="M940 5780 c0 -13 7 -20 20 -20 13 0 20 7 20 20 0 13 -7 20 -20 20
-13 0 -20 -7 -20 -20z"/>
<path d="M6122 5783 c5 -26 38 -29 38 -4 0 15 -6 21 -21 21 -14 0 -19 -5 -17
-17z"/>
<path d="M6240 5780 c0 -11 7 -20 15 -20 8 0 15 9 15 20 0 11 -7 20 -15 20 -8
0 -15 -9 -15 -20z"/>
<path d="M6350 5780 c0 -15 5 -20 18 -18 9 2 17 10 17 18 0 8 -8 16 -17 18
-13 2 -18 -3 -18 -18z"/>
<path d="M720 5670 c0 -11 7 -20 15 -20 8 0 15 9 15 20 0 11 -7 20 -15 20 -8
0 -15 -9 -15 -20z"/>
<path d="M830 5670 c0 -15 5 -20 18 -18 9 2 17 10 17 18 0 8 -8 16 -17 18 -13
2 -18 -3 -18 -18z"/>
<path d="M940 5670 c0 -13 7 -20 20 -20 13 0 20 7 20 20 0 13 -7 20 -20 20
-13 0 -20 -7 -20 -20z"/>
<path d="M6125 5680 c-8 -14 3 -30 21 -30 8 0 14 9 14 20 0 21 -24 28 -35 10z"/>
<path d="M6240 5670 c0 -11 7 -20 15 -20 8 0 15 9 15 20 0 11 -7 20 -15 20 -8
0 -15 -9 -15 -20z"/>
<path d="M6357 5684 c-14 -14 -7 -35 11 -32 9 2 17 10 17 17 0 16 -18 25 -28
15z"/>
<path d="M6464 5679 c-10 -17 13 -36 27 -22 12 12 4 33 -11 33 -5 0 -12 -5
-16 -11z"/>
<path d="M380 5561 c0 -15 6 -21 21 -21 25 0 22 33 -4 38 -12 2 -17 -3 -17
-17z"/>
<path d="M490 5561 c0 -15 6 -21 21 -21 25 0 22 33 -4 38 -12 2 -17 -3 -17
-17z"/>
<path d="M607 5573 c-14 -13 -6 -33 13 -33 13 0 20 7 20 20 0 19 -20 27 -33
13z"/>
<path d="M720 5560 c0 -11 7 -20 15 -20 8 0 15 9 15 20 0 11 -7 20 -15 20 -8
0 -15 -9 -15 -20z"/>
<path d="M830 5561 c0 -15 6 -21 21 -21 25 0 22 33 -4 38 -12 2 -17 -3 -17
-17z"/>
<path d="M947 5574 c-14 -15 -6 -34 14 -34 14 0 19 5 17 17 -3 18 -20 27 -31
17z"/>
<path d="M1057 5573 c-14 -13 -6 -33 13 -33 13 0 20 7 20 20 0 19 -20 27 -33
13z"/>
<path d="M6127 5573 c-14 -13 -6 -33 13 -33 13 0 20 7 20 20 0 19 -20 27 -33
13z"/>
<path d="M6240 5560 c0 -11 7 -20 15 -20 8 0 15 9 15 20 0 11 -7 20 -15 20 -8
0 -15 -9 -15 -20z"/>
<path d="M6357 5574 c-14 -15 -6 -34 14 -34 14 0 19 5 17 17 -3 18 -20 27 -31
17z"/>
<path d="M6467 5574 c-14 -15 -6 -34 14 -34 14 0 19 5 17 17 -3 18 -20 27 -31
17z"/>
<path d="M604 5456 c-7 -19 3 -36 22 -36 10 0 14 8 12 22 -4 26 -26 36 -34 14z"/>
<path d="M726 5463 c-12 -12 -6 -43 9 -43 8 0 15 9 15 19 0 21 -13 34 -24 24z"/>
<path d="M836 5463 c-3 -4 -6 -15 -6 -25 0 -24 33 -21 38 3 3 17 -21 33 -32
22z"/>
<path d="M1054 5455 c-7 -18 3 -35 22 -35 8 0 14 10 14 25 0 27 -27 35 -36 10z"/>
<path d="M6123 5454 c-6 -17 5 -34 23 -34 8 0 14 10 14 23 0 25 -28 33 -37 11z"/>
<path d="M492 5443 c2 -10 10 -18 18 -18 8 0 16 8 18 18 2 12 -3 17 -18 17
-15 0 -20 -5 -18 -17z"/>
<path d="M942 5443 c2 -10 10 -18 18 -18 8 0 16 8 18 18 2 12 -3 17 -18 17
-15 0 -20 -5 -18 -17z"/>
<path d="M6240 5440 c0 -23 25 -27 33 -6 7 16 -1 26 -20 26 -7 0 -13 -9 -13
-20z"/>
<path d="M6352 5443 c2 -10 10 -18 18 -18 8 0 16 8 18 18 2 12 -3 17 -18 17
-15 0 -20 -5 -18 -17z"/>
<path d="M6462 5443 c2 -10 10 -18 18 -18 8 0 16 8 18 18 2 12 -3 17 -18 17
-15 0 -20 -5 -18 -17z"/>
<path d="M490 5330 c0 -13 7 -20 20 -20 13 0 20 7 20 20 0 13 -7 20 -20 20
-13 0 -20 -7 -20 -20z"/>
<path d="M602 5333 c5 -26 38 -29 38 -4 0 15 -6 21 -21 21 -14 0 -19 -5 -17
-17z"/>
<path d="M720 5330 c0 -11 7 -20 15 -20 8 0 15 9 15 20 0 11 -7 20 -15 20 -8
0 -15 -9 -15 -20z"/>
<path d="M830 5329 c0 -25 33 -22 38 4 2 12 -3 17 -17 17 -15 0 -21 -6 -21
-21z"/>
<path d="M940 5330 c0 -13 7 -20 20 -20 13 0 20 7 20 20 0 13 -7 20 -20 20
-13 0 -20 -7 -20 -20z"/>
<path d="M1050 5330 c0 -13 7 -20 20 -20 13 0 20 7 20 20 0 13 -7 20 -20 20
-13 0 -20 -7 -20 -20z"/>
<path d="M1170 5330 c0 -15 5 -20 18 -18 9 2 17 10 17 18 0 8 -8 16 -17 18
-13 2 -18 -3 -18 -18z"/>
<path d="M6240 5330 c0 -15 5 -20 18 -18 9 2 17 10 17 18 0 8 -8 16 -17 18
-13 2 -18 -3 -18 -18z"/>
<path d="M6350 5329 c0 -25 33 -22 38 4 2 12 -3 17 -17 17 -15 0 -21 -6 -21
-21z"/>
<path d="M6460 5330 c0 -13 7 -20 20 -20 13 0 20 7 20 20 0 13 -7 20 -20 20
-13 0 -20 -7 -20 -20z"/>
<path d="M605 5230 c-8 -14 3 -30 21 -30 8 0 14 9 14 20 0 21 -24 28 -35 10z"/>
<path d="M720 5220 c0 -11 7 -20 15 -20 8 0 15 9 15 20 0 11 -7 20 -15 20 -8
0 -15 -9 -15 -20z"/>
<path d="M830 5221 c0 -15 6 -21 21 -21 25 0 22 33 -4 38 -12 2 -17 -3 -17
-17z"/>
<path d="M940 5220 c0 -13 7 -20 20 -20 13 0 20 7 20 20 0 13 -7 20 -20 20
-13 0 -20 -7 -20 -20z"/>
<path d="M1057 5233 c-14 -13 -6 -33 13 -33 13 0 20 7 20 20 0 19 -20 27 -33
13z"/>
<path d="M1170 5220 c0 -15 5 -20 18 -18 9 2 17 10 17 18 0 8 -8 16 -17 18
-13 2 -18 -3 -18 -18z"/>
<path d="M720 5105 c0 -8 7 -15 15 -15 8 0 15 7 15 15 0 8 -7 15 -15 15 -8 0
-15 -7 -15 -15z"/>
<path d="M830 5105 c0 -8 9 -15 20 -15 11 0 20 7 20 15 0 8 -9 15 -20 15 -11
0 -20 -7 -20 -15z"/>
<path d="M940 5105 c0 -8 9 -15 20 -15 11 0 20 7 20 15 0 8 -9 15 -20 15 -11
0 -20 -7 -20 -15z"/>
<path d="M1050 5105 c0 -8 9 -15 20 -15 11 0 20 7 20 15 0 8 -9 15 -20 15 -11
0 -20 -7 -20 -15z"/>
<path d="M1170 5105 c0 -10 7 -15 18 -13 21 4 19 22 -2 26 -10 2 -16 -3 -16
-13z"/>
<path d="M722 4993 c5 -25 28 -28 28 -4 0 12 -6 21 -16 21 -9 0 -14 -7 -12
-17z"/>
<path d="M830 4989 c0 -14 5 -19 17 -17 26 5 29 38 4 38 -15 0 -21 -6 -21 -21z"/>
<path d="M940 4989 c0 -14 5 -19 17 -17 26 5 29 38 4 38 -15 0 -21 -6 -21 -21z"/>
<path d="M1052 4993 c5 -26 38 -29 38 -4 0 15 -6 21 -21 21 -14 0 -19 -5 -17
-17z"/>
<path d="M1170 4996 c0 -21 21 -31 30 -15 5 7 6 17 4 21 -9 14 -34 9 -34 -6z"/>
<path d="M1282 4993 c2 -10 10 -18 18 -18 8 0 16 8 18 18 2 12 -3 17 -18 17
-15 0 -20 -5 -18 -17z"/>
<path d="M830 4880 c0 -13 7 -20 20 -20 13 0 20 7 20 20 0 13 -7 20 -20 20
-13 0 -20 -7 -20 -20z"/>
<path d="M940 4880 c0 -13 7 -20 20 -20 13 0 20 7 20 20 0 13 -7 20 -20 20
-13 0 -20 -7 -20 -20z"/>
<path d="M1050 4880 c0 -13 7 -20 20 -20 13 0 20 7 20 20 0 13 -7 20 -20 20
-13 0 -20 -7 -20 -20z"/>
<path d="M1170 4880 c0 -15 5 -20 18 -18 9 2 17 10 17 18 0 8 -8 16 -17 18
-13 2 -18 -3 -18 -18z"/>
<path d="M1280 4879 c0 -14 5 -19 17 -17 26 5 29 38 4 38 -15 0 -21 -6 -21
-21z"/>
<path d="M267 4784 c-9 -10 4 -34 19 -34 8 0 14 9 14 20 0 19 -19 27 -33 14z"/>
<path d="M380 4771 c0 -15 6 -21 21 -21 14 0 19 5 17 17 -5 26 -38 29 -38 4z"/>
<path d="M490 4770 c0 -13 7 -20 20 -20 13 0 20 7 20 20 0 13 -7 20 -20 20
-13 0 -20 -7 -20 -20z"/>
<path d="M607 4783 c-14 -13 -6 -33 13 -33 13 0 20 7 20 20 0 19 -20 27 -33
13z"/>
<path d="M940 4770 c0 -13 7 -20 20 -20 13 0 20 7 20 20 0 13 -7 20 -20 20
-13 0 -20 -7 -20 -20z"/>
<path d="M1057 4783 c-14 -13 -6 -33 13 -33 13 0 20 7 20 20 0 19 -20 27 -33
13z"/>
<path d="M1170 4770 c0 -11 6 -20 13 -20 19 0 27 10 20 26 -8 21 -33 17 -33
-6z"/>
<path d="M1280 4771 c0 -15 6 -21 21 -21 14 0 19 5 17 17 -5 26 -38 29 -38 4z"/>
<path d="M380 4657 c0 -19 10 -27 26 -20 21 8 17 33 -6 33 -11 0 -20 -6 -20
-13z"/>
<path d="M492 4653 c2 -10 10 -18 18 -18 8 0 16 8 18 18 2 12 -3 17 -18 17
-15 0 -20 -5 -18 -17z"/>
<path d="M600 4657 c0 -19 10 -27 26 -20 21 8 17 33 -6 33 -11 0 -20 -6 -20
-13z"/>
<path d="M940 4655 c0 -8 9 -15 20 -15 11 0 20 7 20 15 0 8 -9 15 -20 15 -11
0 -20 -7 -20 -15z"/>
<path d="M1052 4653 c4 -24 38 -26 38 -2 0 13 -7 19 -21 19 -14 0 -19 -5 -17
-17z"/>
<path d="M1170 4656 c0 -21 21 -31 30 -15 5 7 6 17 4 21 -9 14 -34 9 -34 -6z"/>
<path d="M1282 4653 c2 -10 10 -18 18 -18 8 0 16 8 18 18 2 12 -3 17 -18 17
-15 0 -20 -5 -18 -17z"/>
<path d="M380 4539 c0 -14 5 -19 17 -17 26 5 29 38 4 38 -15 0 -21 -6 -21 -21z"/>
<path d="M492 4543 c5 -26 38 -29 38 -4 0 15 -6 21 -21 21 -14 0 -19 -5 -17
-17z"/>
<path d="M605 4550 c-8 -14 3 -30 21 -30 8 0 14 9 14 20 0 21 -24 28 -35 10z"/>
<path d="M720 4540 c0 -11 7 -20 15 -20 8 0 15 9 15 20 0 11 -7 20 -15 20 -8
0 -15 -9 -15 -20z"/>
<path d="M1052 4543 c5 -26 38 -29 38 -4 0 15 -6 21 -21 21 -14 0 -19 -5 -17
-17z"/>
<path d="M1170 4540 c0 -23 25 -27 33 -6 7 16 -1 26 -20 26 -7 0 -13 -9 -13
-20z"/>
<path d="M1282 4543 c2 -10 10 -18 18 -18 8 0 16 8 18 18 2 12 -3 17 -18 17
-15 0 -20 -5 -18 -17z"/>
<path d="M1392 4543 c2 -10 10 -18 18 -18 8 0 16 8 18 18 2 12 -3 17 -18 17
-15 0 -20 -5 -18 -17z"/>
<path d="M605 4440 c-8 -14 3 -30 21 -30 8 0 14 9 14 20 0 21 -24 28 -35 10z"/>
<path d="M720 4430 c0 -11 7 -20 15 -20 8 0 15 9 15 20 0 11 -7 20 -15 20 -8
0 -15 -9 -15 -20z"/>
<path d="M830 4430 c0 -13 7 -20 20 -20 13 0 20 7 20 20 0 13 -7 20 -20 20
-13 0 -20 -7 -20 -20z"/>
<path d="M1170 4430 c0 -15 5 -20 18 -18 9 2 17 10 17 18 0 8 -8 16 -17 18
-13 2 -18 -3 -18 -18z"/>
<path d="M1280 4430 c0 -13 7 -20 20 -20 13 0 20 7 20 20 0 13 -7 20 -20 20
-13 0 -20 -7 -20 -20z"/>
<path d="M1390 4430 c0 -13 7 -20 20 -20 13 0 20 7 20 20 0 13 -7 20 -20 20
-13 0 -20 -7 -20 -20z"/>
<path d="M1500 4430 c0 -13 7 -20 20 -20 13 0 20 7 20 20 0 13 -7 20 -20 20
-13 0 -20 -7 -20 -20z"/>
<path d="M607 4333 c-14 -13 -6 -33 13 -33 13 0 20 7 20 20 0 19 -20 27 -33
13z"/>
<path d="M720 4320 c0 -11 7 -20 15 -20 8 0 15 9 15 20 0 11 -7 20 -15 20 -8
0 -15 -9 -15 -20z"/>
<path d="M830 4321 c0 -15 6 -21 21 -21 14 0 19 5 17 17 -5 26 -38 29 -38 4z"/>
<path d="M940 4320 c0 -13 7 -20 20 -20 13 0 20 7 20 20 0 13 -7 20 -20 20
-13 0 -20 -7 -20 -20z"/>
<path d="M1280 4321 c0 -15 6 -21 21 -21 25 0 22 33 -4 38 -12 2 -17 -3 -17
-17z"/>
<path d="M1397 4333 c-14 -13 -6 -33 13 -33 13 0 20 7 20 20 0 19 -20 27 -33
13z"/>
<path d="M1507 4333 c-14 -13 -6 -33 13 -33 13 0 20 7 20 20 0 19 -20 27 -33
13z"/>
<path d="M6160 4320 c0 -13 -7 -20 -20 -20 -13 0 -20 -7 -20 -20 0 -13 7 -20
20 -20 13 0 20 -7 20 -20 0 -13 -7 -20 -20 -20 -13 0 -20 -7 -20 -20 0 -11 -7
-20 -15 -20 -8 0 -15 -7 -15 -15 0 -8 7 -15 15 -15 8 0 15 -9 15 -20 0 -13 7
-20 20 -20 12 0 20 -7 20 -16 0 -9 9 -18 20 -21 11 -3 20 -12 20 -19 0 -8 9
-14 20 -14 11 0 20 7 20 15 0 8 -9 15 -20 15 -13 0 -20 7 -20 20 0 13 7 20 20
20 12 0 20 7 20 16 0 9 -9 18 -20 21 -11 3 -20 11 -20 18 0 7 -9 15 -20 18
-11 3 -20 12 -20 20 0 8 9 17 20 20 11 3 20 12 20 21 0 9 8 16 20 16 26 0 26
30 1 37 -11 3 -21 13 -24 24 -7 25 -37 25 -37 -1z m40 -40 c0 -13 -7 -20 -20
-20 -13 0 -20 7 -20 20 0 13 7 20 20 20 13 0 20 -7 20 -20z m-40 -115 c0 -8 9
-15 20 -15 13 0 20 -7 20 -20 0 -13 -7 -20 -20 -20 -13 0 -20 7 -20 20 0 13
-7 20 -20 20 -11 0 -20 7 -20 15 0 8 9 15 20 15 11 0 20 -7 20 -15z"/>
<path d="M836 4223 c-3 -4 -6 -15 -6 -25 0 -24 33 -21 38 3 3 17 -21 33 -32
22z"/>
<path d="M1054 4215 c-3 -8 -3 -19 1 -25 11 -17 35 -11 35 9 0 23 -29 36 -36
16z"/>
<path d="M1286 4223 c-3 -4 -6 -15 -6 -25 0 -24 33 -21 38 3 3 17 -21 33 -32
22z"/>
<path d="M720 4200 c0 -11 7 -20 15 -20 8 0 15 9 15 20 0 11 -7 20 -15 20 -8
0 -15 -9 -15 -20z"/>
<path d="M940 4200 c0 -13 7 -20 20 -20 13 0 20 7 20 20 0 13 -7 20 -20 20
-13 0 -20 -7 -20 -20z"/>
<path d="M1392 4203 c5 -26 38 -29 38 -4 0 15 -6 21 -21 21 -14 0 -19 -5 -17
-17z"/>
<path d="M940 4090 c0 -13 7 -20 20 -20 13 0 20 7 20 20 0 13 -7 20 -20 20
-13 0 -20 -7 -20 -20z"/>
<path d="M1052 4093 c5 -26 38 -29 38 -4 0 15 -6 21 -21 21 -14 0 -19 -5 -17
-17z"/>
<path d="M1390 4090 c0 -13 7 -20 20 -20 13 0 20 7 20 20 0 13 -7 20 -20 20
-13 0 -20 -7 -20 -20z"/>
<path d="M5939 4103 c-1 -4 -1 -12 0 -16 1 -5 -8 -11 -19 -14 -26 -7 -26 -33
0 -40 11 -3 20 -11 20 -18 0 -14 25 -27 34 -18 14 15 5 43 -14 43 -27 0 -26
26 1 33 12 3 19 12 17 19 -5 15 -37 24 -39 11z"/>
<path d="M5970 4059 c0 -6 9 -13 20 -16 22 -6 28 -43 6 -43 -23 0 -29 -31 -6
-37 11 -3 20 -14 20 -24 0 -12 7 -19 20 -19 13 0 20 7 20 20 0 14 -7 20 -21
20 -14 0 -19 5 -17 17 5 24 29 28 35 5 2 -11 14 -22 24 -25 11 -3 18 -11 17
-18 -2 -7 5 -15 15 -17 12 -2 17 3 17 17 0 12 -6 21 -15 21 -8 0 -15 7 -15 15
0 9 7 18 15 21 8 4 15 15 15 25 0 10 -7 19 -15 19 -8 0 -15 7 -15 15 0 8 -9
15 -20 15 -11 0 -20 -7 -20 -15 0 -8 -9 -15 -20 -15 -11 0 -20 7 -20 15 0 8
-9 15 -20 15 -11 0 -20 -5 -20 -11z m118 -42 c2 -12 -3 -17 -17 -17 -12 0 -21
6 -21 13 0 31 32 34 38 4z"/>
<path d="M6120 3980 c0 -13 7 -20 20 -20 13 0 20 7 20 20 0 13 -7 20 -20 20
-13 0 -20 -7 -20 -20z"/>
<path d="M605 3881 c-8 -15 3 -31 21 -31 9 0 14 7 12 17 -4 20 -24 28 -33 14z"/>
<path d="M720 3871 c0 -12 6 -21 16 -21 9 0 14 7 12 17 -5 25 -28 28 -28 4z"/>
<path d="M5790 3871 c0 -12 6 -21 16 -21 9 0 14 7 12 17 -5 25 -28 28 -28 4z"/>
<path d="M490 3865 c0 -8 9 -15 20 -15 11 0 20 7 20 15 0 8 -9 15 -20 15 -11
0 -20 -7 -20 -15z"/>
<path d="M492 3753 c2 -10 10 -18 18 -18 8 0 16 8 18 18 2 12 -3 17 -18 17
-15 0 -20 -5 -18 -17z"/>
<path d="M604 3754 c3 -9 6 -18 6 -20 0 -2 7 -4 15 -4 8 0 15 9 15 20 0 14 -7
20 -21 20 -15 0 -19 -4 -15 -16z"/>
<path d="M720 3750 c0 -11 7 -20 15 -20 8 0 15 9 15 20 0 11 -7 20 -15 20 -8
0 -15 -9 -15 -20z"/>
<path d="M5672 3753 c5 -26 38 -29 38 -4 0 15 -6 21 -21 21 -14 0 -19 -5 -17
-17z"/>
<path d="M5790 3750 c0 -11 7 -20 15 -20 8 0 15 9 15 20 0 11 -7 20 -15 20 -8
0 -15 -9 -15 -20z"/>
<path d="M5900 3749 c0 -14 5 -19 17 -17 26 5 29 38 4 38 -15 0 -21 -6 -21
-21z"/>
<path d="M6012 3753 c2 -10 10 -18 18 -18 8 0 16 8 18 18 2 12 -3 17 -18 17
-15 0 -20 -5 -18 -17z"/>
<path d="M6122 3753 c5 -26 38 -29 38 -4 0 15 -6 21 -21 21 -14 0 -19 -5 -17
-17z"/>
<path d="M6240 3750 c0 -11 7 -20 15 -20 8 0 15 9 15 20 0 11 -7 20 -15 20 -8
0 -15 -9 -15 -20z"/>
<path d="M490 3640 c0 -13 7 -20 20 -20 13 0 20 7 20 20 0 13 -7 20 -20 20
-13 0 -20 -7 -20 -20z"/>
<path d="M605 3650 c-8 -14 3 -30 21 -30 8 0 14 9 14 20 0 21 -24 28 -35 10z"/>
<path d="M720 3640 c0 -11 7 -20 15 -20 8 0 15 9 15 20 0 11 -7 20 -15 20 -8
0 -15 -9 -15 -20z"/>
<path d="M830 3640 c0 -15 5 -20 18 -18 9 2 17 10 17 18 0 8 -8 16 -17 18 -13
2 -18 -3 -18 -18z"/>
<path d="M5675 3650 c-8 -14 3 -30 21 -30 8 0 14 9 14 20 0 21 -24 28 -35 10z"/>
<path d="M5790 3640 c0 -11 7 -20 15 -20 8 0 15 9 15 20 0 11 -7 20 -15 20 -8
0 -15 -9 -15 -20z"/>
<path d="M5900 3640 c0 -15 5 -20 18 -18 9 2 17 10 17 18 0 8 -8 16 -17 18
-13 2 -18 -3 -18 -18z"/>
<path d="M6010 3640 c0 -13 7 -20 20 -20 13 0 20 7 20 20 0 13 -7 20 -20 20
-13 0 -20 -7 -20 -20z"/>
<path d="M6125 3650 c-8 -14 3 -30 21 -30 8 0 14 9 14 20 0 21 -24 28 -35 10z"/>
<path d="M6240 3640 c0 -11 7 -20 15 -20 8 0 15 9 15 20 0 11 -7 20 -15 20 -8
0 -15 -9 -15 -20z"/>
<path d="M6350 3640 c0 -15 5 -20 18 -18 9 2 17 10 17 18 0 8 -8 16 -17 18
-13 2 -18 -3 -18 -18z"/>
<path d="M605 3541 c-8 -15 3 -31 21 -31 9 0 14 7 12 17 -4 20 -24 28 -33 14z"/>
<path d="M727 3543 c-13 -12 -7 -33 8 -33 8 0 15 9 15 20 0 20 -11 26 -23 13z"/>
<path d="M830 3531 c0 -15 6 -21 21 -21 14 0 19 5 17 17 -5 26 -38 29 -38 4z"/>
<path d="M947 3544 c-14 -15 -6 -34 14 -34 14 0 19 5 17 17 -3 18 -20 27 -31
17z"/>
<path d="M5340 3531 c0 -12 6 -21 16 -21 9 0 14 7 12 17 -5 25 -28 28 -28 4z"/>
<path d="M5450 3531 c0 -15 6 -21 21 -21 14 0 19 5 17 17 -5 26 -38 29 -38 4z"/>
<path d="M5677 3543 c-14 -13 -6 -33 13 -33 13 0 20 7 20 20 0 19 -20 27 -33
13z"/>
<path d="M5790 3530 c0 -11 7 -20 15 -20 8 0 15 9 15 20 0 11 -7 20 -15 20 -8
0 -15 -9 -15 -20z"/>
<path d="M5900 3531 c0 -15 6 -21 21 -21 14 0 19 5 17 17 -5 26 -38 29 -38 4z"/>
<path d="M6017 3544 c-14 -15 -6 -34 14 -34 14 0 19 5 17 17 -3 18 -20 27 -31
17z"/>
<path d="M6127 3543 c-14 -13 -6 -33 13 -33 13 0 20 7 20 20 0 19 -20 27 -33
13z"/>
<path d="M6247 3543 c-13 -12 -7 -33 8 -33 8 0 15 9 15 20 0 20 -11 26 -23 13z"/>
<path d="M6357 3544 c-14 -15 -6 -34 14 -34 14 0 19 5 17 17 -3 18 -20 27 -31
17z"/>
<path d="M1540 3450 c0 -13 -7 -20 -20 -20 -11 0 -20 -7 -20 -15 0 -8 9 -15
20 -15 13 0 20 -7 20 -20 0 -13 7 -20 20 -20 13 0 20 -7 20 -20 0 -13 7 -20
20 -20 13 0 20 7 20 20 0 13 -7 20 -20 20 -13 0 -20 7 -20 20 0 13 -7 20 -20
20 -11 0 -20 7 -20 15 0 8 9 15 20 15 13 0 20 7 20 20 0 13 -7 20 -20 20 -13
0 -20 -7 -20 -20z"/>
<path d="M1620 3454 c0 -9 -9 -18 -20 -21 -11 -3 -20 -12 -20 -19 0 -8 9 -14
20 -14 11 0 20 7 20 15 0 8 9 15 20 15 11 0 20 -7 20 -15 0 -8 7 -15 15 -15 8
0 15 -9 15 -20 0 -13 7 -20 20 -20 13 0 20 7 20 20 0 12 7 20 16 20 9 0 18 -9
21 -20 3 -11 12 -20 19 -20 8 0 14 -9 14 -20 0 -11 -6 -20 -14 -20 -7 0 -16
-9 -19 -20 -3 -11 -10 -20 -17 -20 -7 0 -14 9 -17 20 -3 11 -14 20 -24 20 -12
0 -19 -7 -19 -20 0 -13 7 -20 20 -20 13 0 20 -7 20 -20 0 -12 7 -20 16 -20 9
0 18 9 21 20 6 23 33 27 33 5 0 -8 -7 -15 -15 -15 -8 0 -15 -9 -15 -20 0 -23
28 -27 36 -5 4 8 12 15 20 15 22 0 17 30 -8 51 l-23 19 23 6 c25 7 31 44 7 44
-8 0 -15 7 -15 16 0 9 -9 18 -20 21 -11 3 -20 12 -20 19 0 8 -9 14 -20 14 -11
0 -20 -7 -20 -15 0 -8 -9 -15 -20 -15 -11 0 -20 7 -20 15 0 8 -7 15 -15 15 -8
0 -15 9 -15 20 0 13 -7 20 -20 20 -12 0 -20 -7 -20 -16z"/>
<path d="M720 3415 c0 -8 7 -15 15 -15 8 0 15 7 15 15 0 8 -7 15 -15 15 -8 0
-15 -7 -15 -15z"/>
<path d="M830 3415 c0 -8 9 -15 20 -15 11 0 20 7 20 15 0 8 -9 15 -20 15 -11
0 -20 -7 -20 -15z"/>
<path d="M940 3415 c0 -8 9 -15 20 -15 11 0 20 7 20 15 0 8 -9 15 -20 15 -11
0 -20 -7 -20 -15z"/>
<path d="M5220 3415 c0 -8 9 -15 20 -15 11 0 20 7 20 15 0 8 -9 15 -20 15 -11
0 -20 -7 -20 -15z"/>
<path d="M5337 3424 c-9 -10 2 -24 19 -24 8 0 14 7 14 15 0 15 -21 21 -33 9z"/>
<path d="M5450 3415 c0 -8 9 -15 20 -15 11 0 20 7 20 15 0 8 -9 15 -20 15 -11
0 -20 -7 -20 -15z"/>
<path d="M5560 3415 c0 -8 9 -15 20 -15 11 0 20 7 20 15 0 8 -9 15 -20 15 -11
0 -20 -7 -20 -15z"/>
<path d="M5790 3415 c0 -8 7 -15 15 -15 8 0 15 7 15 15 0 8 -7 15 -15 15 -8 0
-15 -7 -15 -15z"/>
<path d="M5900 3415 c0 -8 9 -15 20 -15 11 0 20 7 20 15 0 8 -9 15 -20 15 -11
0 -20 -7 -20 -15z"/>
<path d="M6010 3415 c0 -8 9 -15 20 -15 11 0 20 7 20 15 0 8 -9 15 -20 15 -11
0 -20 -7 -20 -15z"/>
<path d="M6120 3415 c0 -8 9 -15 20 -15 11 0 20 7 20 15 0 8 -9 15 -20 15 -11
0 -20 -7 -20 -15z"/>
<path d="M6240 3415 c0 -8 7 -15 15 -15 8 0 15 7 15 15 0 8 -7 15 -15 15 -8 0
-15 -7 -15 -15z"/>
<path d="M6350 3415 c0 -8 9 -15 20 -15 11 0 20 7 20 15 0 8 -9 15 -20 15 -11
0 -20 -7 -20 -15z"/>
<path d="M1620 3381 c0 -10 9 -21 20 -24 11 -3 20 -12 20 -21 0 -9 -8 -16 -20
-16 -12 0 -20 -7 -20 -16 0 -9 -9 -18 -19 -21 -11 -3 -21 -13 -24 -24 -7 -25
-27 -24 -34 1 -6 24 -43 27 -43 4 0 -9 9 -18 20 -21 11 -3 20 -12 20 -19 0 -8
9 -14 20 -14 11 0 20 7 20 15 0 8 9 15 20 15 11 0 20 -7 20 -15 0 -8 9 -15 20
-15 11 0 20 7 20 15 0 8 7 15 15 15 8 0 15 -7 15 -15 0 -8 9 -15 20 -15 13 0
20 -7 20 -20 0 -13 -7 -20 -20 -20 -13 0 -20 7 -20 20 0 11 -7 20 -15 20 -8 0
-15 -9 -15 -20 0 -13 -7 -20 -20 -20 -13 0 -20 7 -20 20 0 13 -7 20 -20 20
-13 0 -20 -7 -20 -20 0 -13 7 -20 20 -20 13 0 20 -7 20 -20 0 -13 7 -20 20
-20 11 0 20 -7 20 -15 0 -8 7 -15 15 -15 8 0 15 7 15 15 0 8 9 15 20 15 13 0
20 7 20 20 0 13 7 20 20 20 13 0 20 7 20 20 0 13 -7 20 -20 20 -11 0 -20 6
-20 14 0 8 -9 18 -20 21 -11 3 -20 13 -20 21 0 8 -7 14 -15 14 -8 0 -15 9 -15
20 0 11 7 20 15 20 8 0 15 9 15 20 0 11 -7 20 -15 20 -8 0 -15 9 -15 20 0 13
-7 20 -20 20 -13 0 -20 -7 -20 -19z m40 -115 c0 -15 -24 -28 -34 -19 -13 14
-5 33 14 33 11 0 20 -6 20 -14z m30 -116 c0 -11 -7 -20 -15 -20 -8 0 -15 9
-15 20 0 11 7 20 15 20 8 0 15 -9 15 -20z"/>
<path d="M1730 3340 c0 -13 7 -20 20 -20 13 0 20 7 20 20 0 13 -7 20 -20 20
-13 0 -20 -7 -20 -20z"/>
<path d="M832 3303 c2 -10 10 -18 18 -18 22 0 18 29 -3 33 -14 3 -18 -1 -15
-15z"/>
<path d="M942 3303 c2 -10 10 -18 18 -18 8 0 16 8 18 18 2 12 -3 17 -18 17
-15 0 -20 -5 -18 -17z"/>
<path d="M1052 3303 c5 -26 38 -29 38 -4 0 15 -6 21 -21 21 -14 0 -19 -5 -17
-17z"/>
<path d="M1540 3300 c0 -13 7 -20 20 -20 13 0 20 7 20 20 0 13 -7 20 -20 20
-13 0 -20 -7 -20 -20z"/>
<path d="M5000 3299 c0 -14 5 -19 17 -17 26 5 29 38 4 38 -15 0 -21 -6 -21
-21z"/>
<path d="M5110 3299 c0 -25 33 -22 38 4 2 12 -3 17 -17 17 -15 0 -21 -6 -21
-21z"/>
<path d="M5222 3303 c5 -26 38 -29 38 -4 0 15 -6 21 -21 21 -14 0 -19 -5 -17
-17z"/>
<path d="M5332 3303 c5 -26 38 -29 38 -4 0 15 -6 21 -21 21 -14 0 -19 -5 -17
-17z"/>
<path d="M5450 3299 c0 -14 5 -19 17 -17 26 5 29 38 4 38 -15 0 -21 -6 -21
-21z"/>
<path d="M5562 3303 c2 -10 10 -18 18 -18 8 0 16 8 18 18 2 12 -3 17 -18 17
-15 0 -20 -5 -18 -17z"/>
<path d="M5675 3310 c-8 -14 3 -30 21 -30 8 0 14 9 14 20 0 21 -24 28 -35 10z"/>
<path d="M5902 3303 c2 -10 10 -18 18 -18 22 0 18 29 -3 33 -14 3 -18 -1 -15
-15z"/>
<path d="M6012 3303 c2 -10 10 -18 18 -18 8 0 16 8 18 18 2 12 -3 17 -18 17
-15 0 -20 -5 -18 -17z"/>
<path d="M6122 3303 c5 -26 38 -29 38 -4 0 15 -6 21 -21 21 -14 0 -19 -5 -17
-17z"/>
<path d="M6240 3300 c0 -11 7 -20 15 -20 8 0 15 9 15 20 0 11 -7 20 -15 20 -8
0 -15 -9 -15 -20z"/>
<path d="M6352 3303 c2 -10 10 -18 18 -18 22 0 18 29 -3 33 -14 3 -18 -1 -15
-15z"/>
<path d="M940 3190 c0 -13 7 -20 20 -20 13 0 20 7 20 20 0 13 -7 20 -20 20
-13 0 -20 -7 -20 -20z"/>
<path d="M1055 3200 c-8 -14 3 -30 21 -30 8 0 14 9 14 20 0 21 -24 28 -35 10z"/>
<path d="M4880 3190 c0 -13 7 -20 20 -20 13 0 20 7 20 20 0 13 -7 20 -20 20
-13 0 -20 -7 -20 -20z"/>
<path d="M5000 3190 c0 -13 7 -20 20 -20 13 0 20 7 20 20 0 13 -7 20 -20 20
-13 0 -20 -7 -20 -20z"/>
<path d="M5110 3190 c0 -13 7 -20 20 -20 13 0 20 7 20 20 0 13 -7 20 -20 20
-13 0 -20 -7 -20 -20z"/>
<path d="M5220 3190 c0 -13 7 -20 20 -20 13 0 20 7 20 20 0 13 -7 20 -20 20
-13 0 -20 -7 -20 -20z"/>
<path d="M5335 3200 c-8 -14 3 -30 21 -30 8 0 14 9 14 20 0 21 -24 28 -35 10z"/>
<path d="M5450 3190 c0 -13 7 -20 20 -20 13 0 20 7 20 20 0 13 -7 20 -20 20
-13 0 -20 -7 -20 -20z"/>
<path d="M5560 3190 c0 -13 7 -20 20 -20 13 0 20 7 20 20 0 13 -7 20 -20 20
-13 0 -20 -7 -20 -20z"/>
<path d="M5675 3200 c-8 -14 3 -30 21 -30 8 0 14 9 14 20 0 21 -24 28 -35 10z"/>
<path d="M5790 3190 c0 -11 7 -20 15 -20 8 0 15 9 15 20 0 11 -7 20 -15 20 -8
0 -15 -9 -15 -20z"/>
<path d="M5900 3190 c0 -15 5 -20 18 -18 9 2 17 10 17 18 0 8 -8 16 -17 18
-13 2 -18 -3 -18 -18z"/>
<path d="M6010 3190 c0 -13 7 -20 20 -20 13 0 20 7 20 20 0 13 -7 20 -20 20
-13 0 -20 -7 -20 -20z"/>
<path d="M6125 3200 c-8 -14 3 -30 21 -30 8 0 14 9 14 20 0 21 -24 28 -35 10z"/>
<path d="M6240 3190 c0 -11 7 -20 15 -20 8 0 15 9 15 20 0 11 -7 20 -15 20 -8
0 -15 -9 -15 -20z"/>
<path d="M6350 3190 c0 -15 5 -20 18 -18 9 2 17 10 17 18 0 8 -8 16 -17 18
-13 2 -18 -3 -18 -18z"/>
<path d="M6460 3190 c0 -13 7 -20 20 -20 13 0 20 7 20 20 0 13 -7 20 -20 20
-13 0 -20 -7 -20 -20z"/>
<path d="M4660 3081 c0 -15 6 -21 21 -21 25 0 22 33 -4 38 -12 2 -17 -3 -17
-17z"/>
<path d="M4887 3093 c-14 -13 -6 -33 13 -33 13 0 20 7 20 20 0 19 -20 27 -33
13z"/>
<path d="M5000 3081 c0 -15 6 -21 21 -21 25 0 22 33 -4 38 -12 2 -17 -3 -17
-17z"/>
<path d="M5110 3081 c0 -15 6 -21 21 -21 14 0 19 5 17 17 -5 26 -38 29 -38 4z"/>
<path d="M5227 3093 c-14 -13 -6 -33 13 -33 13 0 20 7 20 20 0 19 -20 27 -33
13z"/>
<path d="M5337 3093 c-14 -13 -6 -33 13 -33 13 0 20 7 20 20 0 19 -20 27 -33
13z"/>
<path d="M5450 3081 c0 -15 6 -21 21 -21 14 0 19 5 17 17 -5 26 -38 29 -38 4z"/>
<path d="M5790 3080 c0 -11 7 -20 15 -20 8 0 15 9 15 20 0 11 -7 20 -15 20 -8
0 -15 -9 -15 -20z"/>
<path d="M5900 3081 c0 -15 6 -21 21 -21 14 0 19 5 17 17 -5 26 -38 29 -38 4z"/>
<path d="M6017 3094 c-14 -15 -6 -34 14 -34 14 0 19 5 17 17 -3 18 -20 27 -31
17z"/>
<path d="M6127 3093 c-14 -13 -6 -33 13 -33 13 0 20 7 20 20 0 19 -20 27 -33
13z"/>
<path d="M6240 3080 c0 -11 7 -20 15 -20 8 0 15 9 15 20 0 11 -7 20 -15 20 -8
0 -15 -9 -15 -20z"/>
<path d="M6357 3094 c-14 -15 -6 -34 14 -34 14 0 19 5 17 17 -3 18 -20 27 -31
17z"/>
<path d="M6467 3094 c-14 -15 -6 -34 14 -34 14 0 19 5 17 17 -3 18 -20 27 -31
17z"/>
<path d="M6577 3093 c-14 -13 -6 -33 13 -33 13 0 20 7 20 20 0 19 -20 27 -33
13z"/>
<path d="M4662 2963 c2 -10 10 -18 18 -18 8 0 16 8 18 18 2 12 -3 17 -18 17
-15 0 -20 -5 -18 -17z"/>
<path d="M4772 2963 c2 -10 10 -18 18 -18 8 0 16 8 18 18 2 12 -3 17 -18 17
-15 0 -20 -5 -18 -17z"/>
<path d="M4880 2966 c0 -15 24 -28 34 -19 13 14 5 33 -14 33 -11 0 -20 -6 -20
-14z"/>
<path d="M5000 2967 c0 -19 10 -27 26 -20 21 8 17 33 -6 33 -11 0 -20 -6 -20
-13z"/>
<path d="M5112 2963 c2 -10 10 -18 18 -18 8 0 16 8 18 18 2 12 -3 17 -18 17
-15 0 -20 -5 -18 -17z"/>
<path d="M5222 2963 c2 -10 10 -18 18 -18 8 0 16 8 18 18 2 12 -3 17 -18 17
-15 0 -20 -5 -18 -17z"/>
<path d="M5334 2969 c-7 -12 15 -31 28 -23 4 3 8 12 8 20 0 17 -26 19 -36 3z"/>
<path d="M5452 2963 c2 -10 10 -18 18 -18 8 0 16 8 18 18 2 12 -3 17 -18 17
-15 0 -20 -5 -18 -17z"/>
<path d="M5562 2963 c2 -10 10 -18 18 -18 8 0 16 8 18 18 2 12 -3 17 -18 17
-15 0 -20 -5 -18 -17z"/>
<path d="M5900 2966 c0 -8 4 -17 8 -20 13 -8 35 11 28 23 -10 16 -36 14 -36
-3z"/>
<path d="M6012 2963 c2 -10 10 -18 18 -18 8 0 16 8 18 18 2 12 -3 17 -18 17
-15 0 -20 -5 -18 -17z"/>
<path d="M6120 2965 c0 -8 9 -15 20 -15 11 0 20 7 20 15 0 8 -9 15 -20 15 -11
0 -20 -7 -20 -15z"/>
<path d="M6240 2965 c0 -8 7 -15 15 -15 8 0 15 7 15 15 0 8 -7 15 -15 15 -8 0
-15 -7 -15 -15z"/>
<path d="M6460 2965 c0 -8 9 -15 20 -15 11 0 20 7 20 15 0 8 -9 15 -20 15 -11
0 -20 -7 -20 -15z"/>
<path d="M6570 2966 c0 -15 24 -28 34 -19 13 14 5 33 -14 33 -11 0 -20 -6 -20
-14z"/>
<path d="M6690 2966 c0 -10 9 -16 21 -16 24 0 21 23 -4 28 -10 2 -17 -3 -17
-12z"/>
<path d="M4770 2849 c0 -14 5 -19 17 -17 26 5 29 38 4 38 -15 0 -21 -6 -21
-21z"/>
<path d="M4882 2853 c5 -26 38 -29 38 -4 0 15 -6 21 -21 21 -14 0 -19 -5 -17
-17z"/>
<path d="M5000 2849 c0 -14 5 -19 17 -17 26 5 29 38 4 38 -15 0 -21 -6 -21
-21z"/>
<path d="M5112 2853 c5 -26 38 -29 38 -4 0 15 -6 21 -21 21 -14 0 -19 -5 -17
-17z"/>
<path d="M5337 2864 c-9 -10 4 -34 19 -34 8 0 14 9 14 20 0 19 -19 27 -33 14z"/>
<path d="M5450 2849 c0 -25 33 -22 38 4 2 12 -3 17 -17 17 -15 0 -21 -6 -21
-21z"/>
<path d="M5560 2850 c0 -13 7 -20 20 -20 13 0 20 7 20 20 0 13 -7 20 -20 20
-13 0 -20 -7 -20 -20z"/>
<path d="M5900 2850 c0 -15 5 -20 18 -18 9 2 17 10 17 18 0 8 -8 16 -17 18
-13 2 -18 -3 -18 -18z"/>
<path d="M6012 2853 c2 -10 10 -18 18 -18 8 0 16 8 18 18 2 12 -3 17 -18 17
-15 0 -20 -5 -18 -17z"/>
<path d="M6125 2860 c-8 -14 3 -30 21 -30 8 0 14 9 14 20 0 21 -24 28 -35 10z"/>
<path d="M6240 2850 c0 -11 7 -20 15 -20 8 0 15 9 15 20 0 11 -7 20 -15 20 -8
0 -15 -9 -15 -20z"/>
<path d="M6352 2853 c2 -10 10 -18 18 -18 22 0 18 29 -3 33 -14 3 -18 -1 -15
-15z"/>
<path d="M6575 2860 c-8 -14 3 -30 21 -30 8 0 14 9 14 20 0 21 -24 28 -35 10z"/>
<path d="M6690 2850 c0 -15 5 -20 18 -18 9 2 17 10 17 18 0 8 -8 16 -17 18
-13 2 -18 -3 -18 -18z"/>
<path d="M2930 2810 c0 -13 7 -20 20 -20 13 0 20 7 20 20 0 13 -7 20 -20 20
-13 0 -20 -7 -20 -20z"/>
<path d="M2740 2775 c0 -8 -7 -15 -15 -15 -8 0 -15 -9 -15 -20 0 -11 6 -20 14
-20 7 0 16 9 19 20 3 11 12 20 21 20 9 0 16 -8 16 -20 0 -13 7 -20 20 -20 13
0 20 -7 20 -20 0 -13 7 -20 20 -20 13 0 20 7 20 20 0 13 -7 20 -20 20 -13 0
-20 7 -20 20 0 13 7 20 20 20 14 0 20 -7 20 -21 0 -14 5 -19 18 -17 9 2 17 10
17 18 0 8 8 16 18 18 12 2 17 -3 17 -17 0 -14 6 -21 20 -21 13 0 20 7 20 20 0
13 -7 20 -20 20 -11 0 -20 7 -20 15 0 8 -9 15 -20 15 -11 0 -20 -7 -20 -15 0
-8 -7 -15 -15 -15 -8 0 -15 7 -15 15 0 8 -9 15 -20 15 -11 0 -20 -7 -20 -15 0
-8 -9 -15 -20 -15 -11 0 -20 7 -20 15 0 8 -9 15 -20 15 -11 0 -20 -7 -20 -15z"/>
<path d="M2630 2740 c0 -11 -7 -20 -15 -20 -8 0 -15 -9 -15 -20 0 -11 7 -20
15 -20 8 0 15 -7 15 -15 0 -8 9 -15 20 -15 13 0 20 -7 20 -20 0 -12 7 -20 16
-20 9 0 18 -9 21 -20 3 -11 12 -20 19 -20 8 0 14 -7 14 -16 0 -9 9 -18 20 -21
11 -3 20 -12 20 -20 0 -8 9 -17 20 -20 11 -3 20 -12 20 -19 0 -8 9 -14 20 -14
11 0 20 7 20 15 0 8 7 15 15 15 8 0 15 9 15 20 0 11 -7 20 -15 20 -23 0 -18
37 6 43 12 3 18 10 14 17 -4 7 2 14 14 17 28 7 28 43 1 43 -13 0 -20 -7 -20
-20 0 -11 -7 -20 -15 -20 -8 0 -15 -9 -15 -20 0 -13 -7 -20 -19 -20 -10 0 -21
-9 -24 -20 -3 -11 -12 -20 -21 -20 -9 0 -16 8 -16 20 0 13 7 20 20 20 13 0 20
7 20 20 0 13 -7 20 -20 20 -13 0 -20 -7 -20 -20 0 -13 -7 -20 -20 -20 -13 0
-20 7 -20 20 0 11 -7 20 -15 20 -8 0 -15 9 -15 20 0 13 -7 20 -20 20 -11 0
-20 7 -20 15 0 8 9 15 20 15 13 0 20 7 20 20 0 13 -7 20 -20 20 -13 0 -20 7
-20 20 0 13 -7 20 -20 20 -13 0 -20 -7 -20 -20z m40 -40 c0 -13 -7 -20 -20
-20 -13 0 -20 7 -20 20 0 13 7 20 20 20 13 0 20 -7 20 -20z m190 -190 c0 -13
-7 -20 -20 -20 -13 0 -20 7 -20 20 0 13 7 20 20 20 13 0 20 -7 20 -20z"/>
<path d="M4770 2740 c0 -13 7 -20 20 -20 13 0 20 7 20 20 0 13 -7 20 -20 20
-13 0 -20 -7 -20 -20z"/>
<path d="M4887 2753 c-14 -13 -6 -33 13 -33 13 0 20 7 20 20 0 19 -20 27 -33
13z"/>
<path d="M5000 2740 c0 -13 7 -20 20 -20 13 0 20 7 20 20 0 13 -7 20 -20 20
-13 0 -20 -7 -20 -20z"/>
<path d="M5110 2741 c0 -15 6 -21 21 -21 14 0 19 5 17 17 -5 26 -38 29 -38 4z"/>
<path d="M5227 2753 c-14 -13 -6 -33 13 -33 13 0 20 7 20 20 0 19 -20 27 -33
13z"/>
<path d="M5450 2741 c0 -15 6 -21 21 -21 14 0 19 5 17 17 -5 26 -38 29 -38 4z"/>
<path d="M5560 2740 c0 -13 7 -20 20 -20 13 0 20 7 20 20 0 13 -7 20 -20 20
-13 0 -20 -7 -20 -20z"/>
<path d="M6125 2750 c-8 -14 3 -30 21 -30 8 0 14 9 14 20 0 21 -24 28 -35 10z"/>
<path d="M6240 2740 c0 -11 7 -20 15 -20 8 0 15 9 15 20 0 11 -7 20 -15 20 -8
0 -15 -9 -15 -20z"/>
<path d="M6350 2740 c0 -15 5 -20 18 -18 9 2 17 10 17 18 0 8 -8 16 -17 18
-13 2 -18 -3 -18 -18z"/>
<path d="M6467 2754 c-14 -15 -6 -34 14 -34 14 0 19 5 17 17 -3 18 -20 27 -31
17z"/>
<path d="M6575 2750 c-8 -14 3 -30 21 -30 8 0 14 9 14 20 0 21 -24 28 -35 10z"/>
<path d="M6690 2740 c0 -15 5 -20 18 -18 9 2 17 10 17 18 0 8 -8 16 -17 18
-13 2 -18 -3 -18 -18z"/>
<path d="M2740 2700 c0 -11 -7 -20 -15 -20 -8 0 -15 -6 -15 -14 0 -8 7 -16 15
-20 8 -3 15 -12 15 -21 0 -22 37 -18 43 5 3 11 10 20 17 20 7 0 14 -9 17 -20
3 -11 14 -20 24 -20 12 0 19 7 19 20 0 11 7 20 15 20 8 0 15 7 15 15 0 8 9 15
20 15 13 0 20 7 20 20 0 13 -7 20 -20 20 -13 0 -20 -7 -20 -20 0 -11 -7 -20
-15 -20 -8 0 -15 -7 -15 -15 0 -8 -9 -15 -20 -15 -11 0 -20 7 -20 15 0 8 -9
15 -20 15 -11 0 -20 -7 -20 -15 0 -8 -9 -15 -20 -15 -11 0 -20 7 -20 15 0 8 9
15 20 15 13 0 20 7 20 20 0 13 -7 20 -20 20 -13 0 -20 -7 -20 -20z"/>
<path d="M2187 2643 c-14 -13 -6 -33 13 -33 13 0 20 7 20 20 0 19 -20 27 -33
13z"/>
<path d="M4883 2634 c-9 -23 19 -38 34 -17 7 9 10 20 7 24 -9 15 -34 10 -41
-7z"/>
<path d="M5000 2631 c0 -15 6 -21 21 -21 14 0 19 5 17 17 -5 26 -38 29 -38 4z"/>
<path d="M5117 2644 c-14 -15 -6 -34 14 -34 14 0 19 5 17 17 -3 18 -20 27 -31
17z"/>
<path d="M5224 2635 c-3 -8 -3 -19 0 -24 10 -16 36 -1 36 20 0 22 -28 26 -36
4z"/>
<path d="M5336 2641 c-10 -15 5 -40 20 -34 18 7 18 43 0 43 -8 0 -17 -4 -20
-9z"/>
<path d="M1620 2509 c0 -25 33 -22 38 4 2 12 -3 17 -17 17 -15 0 -21 -6 -21
-21z"/>
<path d="M1732 2513 c2 -10 10 -18 18 -18 8 0 16 8 18 18 2 12 -3 17 -18 17
-15 0 -20 -5 -18 -17z"/>
<path d="M1842 2513 c5 -26 38 -29 38 -4 0 15 -6 21 -21 21 -14 0 -19 -5 -17
-17z"/>
<path d="M1960 2510 c0 -11 7 -20 15 -20 8 0 15 9 15 20 0 11 -7 20 -15 20 -8
0 -15 -9 -15 -20z"/>
<path d="M2070 2509 c0 -25 33 -22 38 4 2 12 -3 17 -17 17 -15 0 -21 -6 -21
-21z"/>
<path d="M2180 2510 c0 -13 7 -20 20 -20 13 0 20 7 20 20 0 13 -7 20 -20 20
-13 0 -20 -7 -20 -20z"/>
<path d="M5000 2509 c0 -25 33 -22 38 4 2 12 -3 17 -17 17 -15 0 -21 -6 -21
-21z"/>
<path d="M5110 2510 c0 -13 7 -20 20 -20 13 0 20 7 20 20 0 13 -7 20 -20 20
-13 0 -20 -7 -20 -20z"/>
<path d="M5222 2513 c5 -26 38 -29 38 -4 0 15 -6 21 -21 21 -14 0 -19 -5 -17
-17z"/>
<path d="M5335 2520 c-8 -14 3 -30 21 -30 8 0 14 9 14 20 0 21 -24 28 -35 10z"/>
<path d="M1055 2410 c-8 -14 3 -30 21 -30 8 0 14 9 14 20 0 21 -24 28 -35 10z"/>
<path d="M1170 2400 c0 -11 6 -20 13 -20 19 0 27 10 20 26 -8 21 -33 17 -33
-6z"/>
<path d="M1620 2400 c0 -15 5 -20 18 -18 9 2 17 10 17 18 0 8 -8 16 -17 18
-13 2 -18 -3 -18 -18z"/>
<path d="M1737 2414 c-14 -14 -7 -35 11 -32 9 2 17 10 17 17 0 16 -18 25 -28
15z"/>
<path d="M1845 2410 c-8 -14 3 -30 21 -30 8 0 14 9 14 20 0 21 -24 28 -35 10z"/>
<path d="M1960 2400 c0 -11 7 -20 15 -20 8 0 15 9 15 20 0 11 -7 20 -15 20 -8
0 -15 -9 -15 -20z"/>
<path d="M2070 2400 c0 -15 5 -20 18 -18 9 2 17 10 17 18 0 8 -8 16 -17 18
-13 2 -18 -3 -18 -18z"/>
<path d="M2180 2400 c0 -13 7 -20 20 -20 13 0 20 7 20 20 0 13 -7 20 -20 20
-13 0 -20 -7 -20 -20z"/>
<path d="M2295 2410 c-8 -14 3 -30 21 -30 8 0 14 9 14 20 0 21 -24 28 -35 10z"/>
<path d="M5110 2400 c0 -13 7 -20 20 -20 13 0 20 7 20 20 0 13 -7 20 -20 20
-13 0 -20 -7 -20 -20z"/>
<path d="M5220 2400 c0 -13 7 -20 20 -20 13 0 20 7 20 20 0 13 -7 20 -20 20
-13 0 -20 -7 -20 -20z"/>
<path d="M5337 2414 c-9 -10 4 -34 19 -34 8 0 14 9 14 20 0 19 -19 27 -33 14z"/>
<path d="M5450 2399 c0 -25 33 -22 38 4 2 12 -3 17 -17 17 -15 0 -21 -6 -21
-21z"/>
<path d="M1055 2300 c-8 -14 3 -30 21 -30 8 0 14 9 14 20 0 21 -24 28 -35 10z"/>
<path d="M1177 2303 c-13 -12 -7 -33 8 -33 8 0 15 9 15 20 0 20 -11 26 -23 13z"/>
<path d="M1283 2294 c-7 -19 2 -28 22 -21 19 8 19 23 0 31 -9 3 -18 -1 -22
-10z"/>
<path d="M1737 2304 c-14 -15 -6 -34 14 -34 14 0 19 5 17 17 -3 18 -20 27 -31
17z"/>
<path d="M1846 2303 c-13 -14 -5 -33 14 -33 11 0 20 6 20 14 0 15 -24 28 -34
19z"/>
<path d="M1960 2291 c0 -12 6 -21 16 -21 9 0 14 7 12 17 -5 25 -28 28 -28 4z"/>
<path d="M2070 2291 c0 -15 6 -21 21 -21 14 0 19 5 17 17 -5 26 -38 29 -38 4z"/>
<path d="M2187 2304 c-14 -15 -6 -34 14 -34 14 0 19 5 17 17 -3 18 -20 27 -31
17z"/>
<path d="M2295 2300 c-8 -14 3 -30 21 -30 8 0 14 9 14 20 0 21 -24 28 -35 10z"/>
<path d="M2410 2290 c0 -11 7 -20 15 -20 8 0 15 9 15 20 0 11 -7 20 -15 20 -8
0 -15 -9 -15 -20z"/>
<path d="M5227 2303 c-14 -13 -6 -33 13 -33 13 0 20 7 20 20 0 19 -20 27 -33
13z"/>
<path d="M5337 2304 c-9 -10 4 -34 19 -34 8 0 14 9 14 20 0 19 -19 27 -33 14z"/>
<path d="M5448 2304 c-12 -11 4 -34 24 -34 13 0 18 6 16 17 -3 18 -29 29 -40
17z"/>
<path d="M5560 2291 c0 -15 6 -21 21 -21 14 0 19 5 17 17 -5 26 -38 29 -38 4z"/>
<path d="M1170 2175 c0 -8 7 -15 15 -15 8 0 15 7 15 15 0 8 -7 15 -15 15 -8 0
-15 -7 -15 -15z"/>
<path d="M1280 2175 c0 -8 9 -15 20 -15 11 0 20 7 20 15 0 8 -9 15 -20 15 -11
0 -20 -7 -20 -15z"/>
<path d="M1390 2175 c0 -8 9 -15 20 -15 11 0 20 7 20 15 0 8 -9 15 -20 15 -11
0 -20 -7 -20 -15z"/>
<path d="M1840 2175 c0 -8 9 -15 20 -15 11 0 20 7 20 15 0 8 -9 15 -20 15 -11
0 -20 -7 -20 -15z"/>
<path d="M1960 2175 c0 -8 7 -15 15 -15 8 0 15 7 15 15 0 8 -7 15 -15 15 -8 0
-15 -7 -15 -15z"/>
<path d="M2070 2175 c0 -8 9 -15 20 -15 11 0 20 7 20 15 0 8 -9 15 -20 15 -11
0 -20 -7 -20 -15z"/>
<path d="M2180 2175 c0 -8 9 -15 20 -15 11 0 20 7 20 15 0 8 -9 15 -20 15 -11
0 -20 -7 -20 -15z"/>
<path d="M2292 2178 c7 -19 38 -22 38 -4 0 10 -9 16 -21 16 -12 0 -19 -5 -17
-12z"/>
<path d="M2410 2175 c0 -8 7 -15 15 -15 8 0 15 7 15 15 0 8 -7 15 -15 15 -8 0
-15 -7 -15 -15z"/>
<path d="M5333 2175 c0 -8 9 -15 19 -15 10 0 18 7 18 15 0 8 -8 15 -18 15 -10
0 -19 -7 -19 -15z"/>
<path d="M5450 2175 c0 -8 9 -15 20 -15 11 0 20 7 20 15 0 8 -9 15 -20 15 -11
0 -20 -7 -20 -15z"/>
<path d="M5560 2175 c0 -8 9 -15 20 -15 11 0 20 7 20 15 0 8 -9 15 -20 15 -11
0 -20 -7 -20 -15z"/>
<path d="M1282 2063 c2 -10 10 -18 18 -18 8 0 16 8 18 18 2 12 -3 17 -18 17
-15 0 -20 -5 -18 -17z"/>
<path d="M1392 2063 c2 -10 10 -18 18 -18 8 0 16 8 18 18 2 12 -3 17 -18 17
-15 0 -20 -5 -18 -17z"/>
<path d="M1505 2070 c-8 -14 3 -30 21 -30 8 0 14 9 14 20 0 21 -24 28 -35 10z"/>
<path d="M1620 2059 c0 -25 33 -22 38 4 2 12 -3 17 -17 17 -15 0 -21 -6 -21
-21z"/>
<path d="M1960 2060 c0 -11 7 -20 15 -20 8 0 15 9 15 20 0 11 -7 20 -15 20 -8
0 -15 -9 -15 -20z"/>
<path d="M2070 2059 c0 -25 33 -22 38 4 2 12 -3 17 -17 17 -15 0 -21 -6 -21
-21z"/>
<path d="M2182 2063 c2 -10 10 -18 18 -18 8 0 16 8 18 18 2 12 -3 17 -18 17
-15 0 -20 -5 -18 -17z"/>
<path d="M2292 2063 c5 -26 38 -29 38 -4 0 15 -6 21 -21 21 -14 0 -19 -5 -17
-17z"/>
<path d="M5332 2063 c5 -26 38 -29 38 -4 0 15 -6 21 -21 21 -14 0 -19 -5 -17
-17z"/>
<path d="M5450 2059 c0 -25 33 -22 38 4 2 12 -3 17 -17 17 -15 0 -21 -6 -21
-21z"/>
<path d="M5560 2060 c0 -13 7 -20 20 -20 13 0 20 7 20 20 0 13 -7 20 -20 20
-13 0 -20 -7 -20 -20z"/>
<path d="M1280 1951 c0 -15 6 -21 21 -21 14 0 19 5 17 17 -5 26 -38 29 -38 4z"/>
<path d="M1390 1950 c0 -13 7 -20 20 -20 13 0 20 7 20 20 0 13 -7 20 -20 20
-13 0 -20 -7 -20 -20z"/>
<path d="M1507 1963 c-14 -13 -6 -33 13 -33 13 0 20 7 20 20 0 19 -20 27 -33
13z"/>
<path d="M1620 1951 c0 -15 6 -21 21 -21 14 0 19 5 17 17 -5 26 -38 29 -38 4z"/>
<path d="M1730 1950 c0 -13 7 -20 20 -20 13 0 20 7 20 20 0 13 -7 20 -20 20
-13 0 -20 -7 -20 -20z"/>
<path d="M2070 1951 c0 -15 6 -21 21 -21 14 0 19 5 17 17 -5 26 -38 29 -38 4z"/>
<path d="M2180 1950 c0 -13 7 -20 20 -20 13 0 20 7 20 20 0 13 -7 20 -20 20
-13 0 -20 -7 -20 -20z"/>
<path d="M2295 1960 c-8 -14 3 -30 21 -30 8 0 14 9 14 20 0 21 -24 28 -35 10z"/>
<path d="M1397 1854 c-14 -15 -6 -34 14 -34 14 0 19 5 17 17 -3 18 -20 27 -31
17z"/>
<path d="M1507 1854 c-14 -15 -6 -34 14 -34 14 0 19 5 17 17 -3 18 -20 27 -31
17z"/>
<path d="M1627 1854 c-14 -15 -6 -34 14 -34 14 0 19 5 17 17 -3 18 -20 27 -31
17z"/>
<path d="M1737 1854 c-14 -15 -6 -34 14 -34 14 0 19 5 17 17 -3 18 -20 27 -31
17z"/>
<path d="M1853 1853 c-21 -7 -15 -33 7 -33 11 0 20 6 20 14 0 18 -11 25 -27
19z"/>
<path d="M1960 1841 c0 -12 6 -21 16 -21 9 0 14 7 12 17 -5 25 -28 28 -28 4z"/>
<path d="M2187 1854 c-14 -15 -6 -34 14 -34 14 0 19 5 17 17 -3 18 -20 27 -31
17z"/>
<path d="M2303 1853 c-21 -7 -15 -33 7 -33 11 0 20 6 20 14 0 18 -11 25 -27
19z"/>
<path d="M2416 1853 c-12 -12 -6 -33 9 -33 8 0 15 6 15 14 0 17 -14 28 -24 19z"/>
<path d="M1500 1725 c0 -8 9 -15 20 -15 11 0 20 7 20 15 0 8 -9 15 -20 15 -11
0 -20 -7 -20 -15z"/>
<path d="M1620 1725 c0 -8 9 -15 20 -15 11 0 20 7 20 15 0 8 -9 15 -20 15 -11
0 -20 -7 -20 -15z"/>
<path d="M1730 1725 c0 -8 9 -15 20 -15 11 0 20 7 20 15 0 8 -9 15 -20 15 -11
0 -20 -7 -20 -15z"/>
<path d="M1840 1725 c0 -8 9 -15 20 -15 11 0 20 7 20 15 0 8 -9 15 -20 15 -11
0 -20 -7 -20 -15z"/>
<path d="M2297 1734 c-9 -10 2 -24 19 -24 8 0 14 7 14 15 0 15 -21 21 -33 9z"/>
<path d="M2410 1725 c0 -8 7 -15 15 -15 8 0 15 7 15 15 0 8 -7 15 -15 15 -8 0
-15 -7 -15 -15z"/>
<path d="M2520 1724 c0 -9 7 -14 17 -12 25 5 28 28 4 28 -12 0 -21 -6 -21 -16z"/>
<path d="M1620 1609 c0 -14 5 -19 17 -17 26 5 29 38 4 38 -15 0 -21 -6 -21
-21z"/>
<path d="M1732 1613 c2 -10 10 -18 18 -18 8 0 16 8 18 18 2 12 -3 17 -18 17
-15 0 -20 -5 -18 -17z"/>
<path d="M1842 1613 c5 -26 38 -29 38 -4 0 15 -6 21 -21 21 -14 0 -19 -5 -17
-17z"/>
<path d="M2410 1610 c0 -11 7 -20 15 -20 8 0 15 9 15 20 0 11 -7 20 -15 20 -8
0 -15 -9 -15 -20z"/>
<path d="M2520 1609 c0 -14 5 -19 17 -17 26 5 29 38 4 38 -15 0 -21 -6 -21
-21z"/>
<path d="M1730 1500 c0 -13 7 -20 20 -20 13 0 20 7 20 20 0 13 -7 20 -20 20
-13 0 -20 -7 -20 -20z"/>
<path d="M1847 1513 c-14 -13 -6 -33 13 -33 13 0 20 7 20 20 0 19 -20 27 -33
13z"/>
<path d="M1960 1500 c0 -11 7 -20 15 -20 8 0 15 9 15 20 0 11 -7 20 -15 20 -8
0 -15 -9 -15 -20z"/>
<path d="M1843 1394 c-7 -18 17 -38 31 -24 11 11 1 40 -14 40 -6 0 -13 -7 -17
-16z"/>
<path d="M1962 1388 c2 -13 8 -23 13 -23 6 0 11 10 13 23 2 15 -2 22 -13 22
-11 0 -15 -7 -13 -22z"/>
<path d="M2070 1391 c0 -15 6 -21 21 -21 14 0 19 5 17 17 -5 26 -38 29 -38 4z"/>
<path d="M1960 1270 c0 -11 7 -20 15 -20 8 0 15 9 15 20 0 11 -7 20 -15 20 -8
0 -15 -9 -15 -20z"/>
<path d="M2070 1269 c0 -14 5 -19 17 -17 26 5 29 38 4 38 -15 0 -21 -6 -21
-21z"/>
</g>
</svg>
