<svg xmlns="http://www.w3.org/2000/svg" width="47.606" height="52.209" viewBox="0 0 47.606 52.209">
  <g>
    <path d="M35.7,23.027c-.312.213-.621.433-.939.638A5.212,5.212,0,0,1,34,24.1c-.3.127-.53-.07-.52-.4a.624.624,0,0,0-.03-.137.744.744,0,0,0-.118.04,2.168,2.168,0,0,0-.8.98c-.238.44-.525.853-.8,1.27a.466.466,0,0,1-.435.246.4.4,0,0,1-.324-.54,2.473,2.473,0,0,1,.16-.322c.2-.377.415-.744.578-1.134a1.361,1.361,0,0,0,.077-.641.7.7,0,0,1,.3-.706,12.335,12.335,0,0,0,2.2-2.216,3.882,3.882,0,0,0,.531-.894c.346-.758.688-1.521.989-2.3a23.033,23.033,0,0,0,.96-2.864.372.372,0,0,0,0-.088.28.28,0,0,0-.058.027c-.126.1-.254.205-.375.315-.087.079-.164.17-.244.257-.123.137-.239.28-.367.412-.219.223-.444.439-.668.657-.045.045-.125.082-.134.132-.04.243-.25.332-.4.483-.287.3-.555.612-.835.916s-.579.606-.856.92a.309.309,0,0,0-.033.254q.208.654.445,1.3a.911.911,0,0,1-.314,1.107,1.191,1.191,0,0,1-.791.344,1.648,1.648,0,0,1-.331-.081c.066-.089.129-.181.2-.266a2.946,2.946,0,0,0,.235-.268.813.813,0,0,0,.068-.634,7.626,7.626,0,0,1-.211-1.119,2.622,2.622,0,0,1,.157-.759,1.355,1.355,0,0,1,.363-.749.557.557,0,0,0,.116-.356c.014-.262-.02-.527,0-.788a10.735,10.735,0,0,1,.141-1.132c.056-.3.213-.407.477-.384.244.021.376.179.387.479.006.175-.009.35,0,.525a.762.762,0,0,0,.067.2.85.85,0,0,0,.159-.1q.322-.321.638-.65c.482-.5.968-1,1.445-1.51.364-.388.7-.8,1.08-1.177a23.676,23.676,0,0,1,2.094-1.871c.333-.259.634-.561.964-.824.387-.309.789-.6,1.188-.895.621-.458,1.229-.935,1.87-1.363A11.59,11.59,0,0,1,45.548,6.48a2.309,2.309,0,0,1,1.506-.069c.285.087.37.387.468.637a1.921,1.921,0,0,1,.077.8,4.761,4.761,0,0,1-.714,2.239c-.126.214-.235.44-.372.647-.385.58-.78,1.154-1.171,1.73-.245.36-.486.722-.741,1.075a.844.844,0,0,1-.624.371.441.441,0,0,1-.434-.234c-.1-.155,0-.289.085-.415.243-.347.487-.693.729-1.04a.784.784,0,0,0,.11-.2c.014-.041-.013-.1-.021-.144a.44.44,0,0,0-.146.047c-.089.074-.163.165-.252.239-.583.484-1.289.774-1.9,1.212-.265.191-.523.393-.774.6a2.094,2.094,0,0,1-.562.432c-.146.057-.248.234-.366.361-.154.166-.3.339-.458.505a.368.368,0,0,1-.155.114,1.63,1.63,0,0,0-.923.768c-.333.481-.724.922-1.089,1.381-.075.092-.155.182-.222.279a2.342,2.342,0,0,0-.125.238,1.534,1.534,0,0,0,.28-.061c.348-.145.688-.31,1.039-.447.7-.272,1.4-.522,2.095-.8a1.123,1.123,0,0,0,.633-.479,2.027,2.027,0,0,1,.5-.5c.128-.106.241-.084.346.08.324.5.328.593-.055,1.07-.361.45-.727.895-1.081,1.349a3.273,3.273,0,0,0-.219.389c-.2.353-.4.711-.619,1.055-.071.112-.208.18-.3.281-.3.331-.585.676-.89,1-.323.344-.669.668-1,1.01-.385.4-.75.823-1.141,1.22a10.41,10.41,0,0,1-.913.832c-.116.092-.113.106-.029.207.19.227.153.411-.116.548a2.155,2.155,0,0,1-.519.179,6.127,6.127,0,0,1-.84.127,1.716,1.716,0,0,1-.58-.057.336.336,0,0,1-.15-.591.724.724,0,0,1,.505-.274c.151-.011.3-.057.452-.066.2-.012.288-.062.3-.3a1.3,1.3,0,0,1,.505-.811l.014-.02ZM45.566,7.589l.019-.041-.043.017-.019.043ZM36.206,18.4a.73.73,0,0,0,.112-.068c.428-.449.881-.877,1.275-1.355.462-.561.878-1.16,1.3-1.75a8.519,8.519,0,0,0,1.4-2.256c.04-.122.136-.225.187-.344q.4-.921.786-1.848a2.112,2.112,0,0,0,.072-.262,2.189,2.189,0,0,0-.336.042c-.058.015-.1.076-.154.117-.488.4-.977.79-1.463,1.189-.19.156-.38.313-.555.485a1.964,1.964,0,0,0-.5.894,14.5,14.5,0,0,0-.656,1.509,1.3,1.3,0,0,1-.278.641.262.262,0,0,0-.04.088c-.1.286-.176.579-.293.857-.273.647-.565,1.286-.847,1.93A.536.536,0,0,0,36.206,18.4Zm4.1-.574c-.037-.01-.083-.04-.118-.03-.365.1-.738.174-1.091.3-.468.173-.92.389-1.38.582s-.905.36-1.346.563a1.5,1.5,0,0,0-.361.318c-.045.045-.067.113-.111.159-.244.258-.505.5-.736.77-.183.213-.3.484-.5.678-.42.408-.875.78-1.311,1.173-.225.2-.445.411-.652.633-.049.052-.033.165-.046.251a.612.612,0,0,0,.221-.047c.327-.231.653-.466.968-.715a8.348,8.348,0,0,1,1.437-1c.252-.125.49-.28.738-.412a2.357,2.357,0,0,1,.387-.165c.556-.181,1.117-.348,1.671-.537a1.08,1.08,0,0,0,.408-.25c.29-.292.565-.6.832-.913.24-.281.468-.574.69-.87C40.118,18.17,40.2,18.006,40.311,17.824Zm6.3-10.008c0-.007-.013-.09-.057-.114s-.121.007-.171.037a.483.483,0,0,0-.168.149c-.179.3-.347.6-.521.9a.611.611,0,0,1-.082.1c-.327.347-.646.7-.984,1.037-.431.429-.863.857-1.32,1.258a13.117,13.117,0,0,0-1.8,1.739.457.457,0,0,0-.045.138.355.355,0,0,0,.145-.019c.314-.194.62-.4.935-.591a9.468,9.468,0,0,0,2.036-1.508c.3-.315.644-.586.971-.875a2.557,2.557,0,0,0,.512-.447A4.2,4.2,0,0,0,46.607,7.816Zm-4.9,4.029a.435.435,0,0,0,.091-.038c.3-.257.606-.5.88-.775.436-.44.829-.923,1.275-1.351a10.4,10.4,0,0,0,1.2-1.409c.109-.149.226-.292.332-.443.01-.015-.034-.095-.045-.093a1.415,1.415,0,0,0-.5.1c-.454.275-.888.583-1.331.878-.079.053-.16.1-.243.149-.447.253-.905.492-.97,1.088a.935.935,0,0,1-.1.239c-.13.309-.266.615-.389.927-.079.2-.14.408-.205.613A.316.316,0,0,0,41.709,11.845ZM37.3,21.257a1.212,1.212,0,0,0-.257.025,4.82,4.82,0,0,0-1.656.82c-.032.026-.061.055-.092.083a.517.517,0,0,0,.141,0c.084-.021.163-.064.247-.083a.319.319,0,0,1,.4.239c.035.258.13.164.233.062.341-.335.678-.674,1.015-1.014a.508.508,0,0,0,.059-.108ZM46.355,7.29c-.035.1-.077.155-.067.2s.081.113.114.107.124-.09.115-.114C46.494,7.424,46.431,7.377,46.355,7.29Z"/>
    <path d="M15.777,22.234c.388.025.531.171.543.532.017.535.036,1.069.07,1.6a2.756,2.756,0,0,0,.107.475c.077.3.18.607.227.917.06.406.414.518.66.74a1.416,1.416,0,0,1,.315.352.343.343,0,0,1-.339.524,1.034,1.034,0,0,1-.827-.449.557.557,0,0,0-.418-.271,1.9,1.9,0,0,1-.722-.355c-.357-.229-.7-.485-1.045-.729-.017-.013-.044-.018-.055-.034-.277-.394-.658-.355-1.057-.262a3.059,3.059,0,0,1-.609.111,2.4,2.4,0,0,1-.641-.08.34.34,0,0,1-.242-.351.356.356,0,0,1,.212-.371.691.691,0,0,1,.149-.062,6,6,0,0,1,1.916-.118A2.423,2.423,0,0,1,15.089,25c.149.1.293.216.443.32a.389.389,0,0,0,.12.035.439.439,0,0,0,.034-.149.751.751,0,0,0-.068-.183,3.574,3.574,0,0,1-.276-1.785c.034-.374-.026-.484-.359-.668-.456-.251-.9-.532-1.361-.764a6.655,6.655,0,0,0-1.089-.428c-.625-.185-1.26-.336-1.893-.49a1.741,1.741,0,0,0-.383-.011,1.994,1.994,0,0,0,.223.333c.238.237.5.447.736.689a1.761,1.761,0,0,1,.3.454.324.324,0,0,0,.265.2,11.632,11.632,0,0,1,2.187.457,1.1,1.1,0,0,1,.352.221c.072.072.157.236.124.29a.56.56,0,0,1-.322.233,1.349,1.349,0,0,1-.522,0c-.683-.125-1.367-.254-2.044-.407-.323-.073-.506-.361-.731-.578q-.67-.649-1.342-1.294c-.342-.328-.679-.662-1.031-.978-.379-.339-.776-.66-1.163-.991-.239-.205-.477-.41-.711-.621q-.717-.642-1.429-1.292c-.337-.307-.671-.619-1.007-.928a5.19,5.19,0,0,1-.5-.459A13.506,13.506,0,0,1,2.615,14.9a12.512,12.512,0,0,1-1.374-2.341.583.583,0,0,0-.1-.165,5.085,5.085,0,0,1-.878-1.515A3.768,3.768,0,0,1,0,9.612,1.042,1.042,0,0,1,1.046,8.48a4.108,4.108,0,0,1,2.019.426c.413.2.81.428,1.225.621a1.18,1.18,0,0,0,.443.067.648.648,0,0,1,.452.193,8.13,8.13,0,0,0,.963.71c.325.216.671.4,1,.616a.687.687,0,0,1,.275.307c.054.157.12.133.239.11a.475.475,0,0,1,.607.348.386.386,0,0,1-.422.51.647.647,0,0,1-.431-.5c0-.124,0-.149-.1-.055a.435.435,0,0,1-.516.057c-.148-.067-.216-.042-.19.153a2.593,2.593,0,0,0,.382.944c.215.377.466.735.656,1.123a2.413,2.413,0,0,0,.936.972c.5.319.98.674,1.458,1.028.426.317.84.651,1.255.983.162.129.315.27.469.409.476.431.95.863,1.427,1.293a.431.431,0,0,0,.11.053.429.429,0,0,0,0-.148c-.351-.886-.707-1.77-1.06-2.655a.757.757,0,0,1-.079-.247c0-.225-.056-.387-.32-.4a.24.24,0,0,1-.138-.083A22.986,22.986,0,0,0,9.475,13.6a3.141,3.141,0,0,0-.6-.378.777.777,0,0,1-.38-.466.339.339,0,0,1,.087-.416A.323.323,0,0,1,9,12.321c.351.218.7.434,1.037.676.6.434,1.18.89,1.773,1.33a.544.544,0,0,0,.291.126.42.42,0,0,1,.429.329,1.545,1.545,0,0,0,.513.606c.329.284.652.574.985.854.415.35.84.69,1.256,1.04a6.117,6.117,0,0,1,.5.463c.108.114.184.127.286,0a.427.427,0,0,1,.16-.111c.152-.06.381.008.381.145,0,.345.23.687-.021,1.04a7.778,7.778,0,0,0-.458.826c-.066.122-.12.293-.3.235s-.15-.226-.14-.369c.015-.216.059-.431.055-.646a.467.467,0,0,0-.143-.3c-.289-.263-.6-.505-.9-.76-.348-.3-.69-.6-1.039-.9a.5.5,0,0,0-.2-.105c-.108-.024-.212-.01-.156.147.131.365.248.737.4,1.091.2.444.416.878.641,1.308.1.192.241.362.359.545.135.21.259.428.4.636.205.3.412.609.63.905a.572.572,0,0,1,.031.8.347.347,0,0,0-.091,0,.342.342,0,0,0-.076.039.271.271,0,0,0,.092.01C15.732,22.281,15.753,22.253,15.777,22.234Zm-.674-.46a.69.69,0,0,1-.078-.105,5.4,5.4,0,0,0-.979-1.237c-.117-.142-.229-.29-.358-.421-.468-.476-.927-.963-1.421-1.41a3.014,3.014,0,0,0-.893-.579,9.932,9.932,0,0,0-1.384-.371c-.793-.183-1.59-.35-2.384-.527a2.192,2.192,0,0,1-1.1-.332.722.722,0,0,0-.767-.2c-.053.019-.108.034-.162.051a.686.686,0,0,0,.087.132c.477.442.942.9,1.438,1.318.437.37.9.708,1.368,1.044a3.609,3.609,0,0,0,.546.282,9.406,9.406,0,0,0,1.144.534c.793.256,1.6.47,2.406.682a6.744,6.744,0,0,1,1.836.886,5.885,5.885,0,0,0,.539.3C14.973,21.833,15.039,21.792,15.1,21.774ZM2.811,13.45c-.006,0-.057,0-.063.019-.012.034-.015.094.006.112.138.119.139.283.18.441a1.134,1.134,0,0,0,.2.37c.13.174.29.325.419.5a1.988,1.988,0,0,0,1.244.753c.644.141,1.291.275,1.93.437,1.1.28,2.2.58,3.3.87a.3.3,0,0,0,.093,0,.251.251,0,0,0-.046-.075L7.849,15.23c-.5-.366-.989-.738-1.489-1.1a1.717,1.717,0,0,0-.475-.273c-.756-.233-1.519-.445-2.28-.664a.212.212,0,0,0-.1-.009.2.2,0,0,0-.106.046c-.011.012,0,.068.023.088.037.039.092.061.126.1a.583.583,0,0,1,.069.131c-.049.015-.1.049-.147.041C3.26,13.553,3.048,13.5,2.811,13.45ZM1.944,9.472l-.18.041c.02.047.041.094.06.142.133.333.452.491.7.7.506.424,1.055.8,1.581,1.2.483.367.958.745,1.439,1.113.121.092.254.168.382.249a.192.192,0,0,0,.059.017c0-.028.019-.062.009-.083-.264-.53-.524-1.062-.8-1.587a1.218,1.218,0,0,0-.69-.6,5.738,5.738,0,0,1-.747-.385c-.182-.1-.358-.209-.543-.3s-.374-.168-.565-.243C2.413,9.64,2.169,9.555,1.944,9.472Zm2.864,3.56.154-.063c-.015-.028-.022-.064-.045-.081-.462-.362-.92-.732-1.393-1.08a14.792,14.792,0,0,1-1.6-1.257,2.133,2.133,0,0,0-.366-.272.563.563,0,0,0-.2-.033,1.825,1.825,0,0,0,.036.209,1.973,1.973,0,0,1,.075.2,3.389,3.389,0,0,0,.066.509,1.678,1.678,0,0,0,1.27,1.3c.137.028.27.072.405.111Z"/>
    <path d="M30.89,27.957a.7.7,0,0,1,.735.2A8.239,8.239,0,0,1,33.1,29.769a.4.4,0,0,0,.235.151c.392.093.791.155,1.18.255.682.174,1.36.362,2.036.556a6.718,6.718,0,0,1,1.135.378c.422.209.927.211,1.289.588a2.249,2.249,0,0,0,.763.431,4.909,4.909,0,0,1,2.172,1.806.935.935,0,0,1-.574,1.46,1.887,1.887,0,0,1-.515.068c-.435.009-.873.031-1.3,0-.706-.057-1.408-.152-2.111-.235-.584-.069-1.168-.138-1.75-.22-.289-.041-.574-.112-.861-.164a2.129,2.129,0,0,0-.389-.046c-.241,0-.255.031-.177.253a.448.448,0,0,1-.237.574.457.457,0,0,1-.618-.185.425.425,0,0,1,.146-.594c.218-.154.231-.175.006-.341a9.435,9.435,0,0,0-1.009-.664.752.752,0,0,1-.334-1.031.36.36,0,0,1,.578-.206,5.964,5.964,0,0,1,.682.552,2.451,2.451,0,0,1,.276.282,1.558,1.558,0,0,0,1.056.494c.656.089,1.3.237,1.959.348.31.053.625.074.937.117.112.015.114-.024.064-.1a1.946,1.946,0,0,0-.17-.232,6.211,6.211,0,0,0-.533-.566,1.3,1.3,0,0,0-.474-.261,18.475,18.475,0,0,1-2.325-.84c-.336-.148-.694-.244-1.036-.379-.17-.067-.353-.147-.339-.388,0,0-.081-.03-.1-.016a.674.674,0,0,1-1.077-.115.439.439,0,0,1,.061-.588,7.18,7.18,0,0,0,.52-.7c.031-.047-.024-.183-.078-.244q-.6-.672-1.211-1.329c-.252-.27-.266-.338-.079-.685Zm2.943,2.874a.764.764,0,0,0-.864.46c-.078.132-.022.153.094.136a.705.705,0,0,1,.573.174.886.886,0,0,0,.292.14,2.528,2.528,0,0,1,1,.367.229.229,0,0,0,.186.024c.411-.133.821-.274,1.229-.418.044-.015.076-.066.113-.1-.037-.037-.068-.089-.113-.107-.191-.075-.384-.145-.58-.205-.333-.1-.665-.207-1-.288C34.4,30.928,34.031,30.869,33.833,30.831Zm3.876,1.239c-.4.089-.791.172-1.18.268a1.511,1.511,0,0,0-.28.131,1.079,1.079,0,0,0,.29.17c1.1.235,2.208.459,3.312.684a.345.345,0,0,0,.118-.022.494.494,0,0,0-.076-.1c-.27-.211-.537-.427-.817-.624a2.067,2.067,0,0,0-.437-.209c-.15-.059-.307-.1-.461-.148Zm2.326,2.61c.379-.041.67-.066.958-.109.071-.01.181-.075.186-.125a.251.251,0,0,0-.112-.208,1.749,1.749,0,0,0-.494-.148,6.7,6.7,0,0,1-1.661-.3,1.988,1.988,0,0,0-.441-.092c-.033-.005-.109.057-.1.07a.968.968,0,0,0,.541.716A7.482,7.482,0,0,0,40.035,34.68Z"/>
    <path d="M15.337,33.257a1.438,1.438,0,0,0,.372,0c.238-.079.365.038.488.214a.45.45,0,0,1,.005.548c-.378.6-.749,1.2-1.129,1.8a1.3,1.3,0,0,1-.246.256c-.134.117-.25.14-.307-.078-.037-.14-.13-.138-.257-.107-.716.175-1.435.338-2.153.509a9.478,9.478,0,0,1-1.047.251,2.989,2.989,0,0,1-1.888-.128.7.7,0,0,1-.229-.18c-.281-.379-.458-.844-.235-1.164a4.279,4.279,0,0,1,.5-.637c.561-.544,1.127-1.085,1.721-1.592a5.64,5.64,0,0,1,.892-.533c.169-.1.331-.17.4-.4a.446.446,0,0,1,.571-.278.715.715,0,0,0,.64-.13,5.916,5.916,0,0,1,.986-.563,6.849,6.849,0,0,1,.966-.381.54.54,0,0,1,.732.385c.021.055.119.089.189.115a1.579,1.579,0,0,1,.3.088.269.269,0,0,1,.084.421,1.235,1.235,0,0,1-.285.309,2.8,2.8,0,0,1-1.169.679c-.082.013-.155.112-.219.183-.2.218-.4.433-.576.665a2.144,2.144,0,0,0-.188.4c-.166.354-.335.707-.5,1.061a.391.391,0,0,0-.014.12.413.413,0,0,0,.125.009c.082-.02.165-.084.24-.073.207.03.216-.087.211-.234a2.413,2.413,0,0,1,.4-1.221A.55.55,0,0,1,15.337,33.257Zm-2,1.2c-.495.235-.992.466-1.484.706-.33.161-.654.334-.979.5-.022.011-.032.043-.047.066a.259.259,0,0,0,.092.02,16.426,16.426,0,0,0,1.874-.352c.611-.183.683-.335.56-.929l.022-.022-.017-.017Zm-.374-.716c.32.115.412-.125.57-.218a4.318,4.318,0,0,0,1.387-1.448c.022-.033.047-.1.037-.112a.2.2,0,0,0-.138-.05,4.156,4.156,0,0,0-.487.176,2.721,2.721,0,0,1-1.175.344.346.346,0,0,0-.208.111c-.186.18-.352.381-.545.552-.211.187-.448.343-.664.525a1.331,1.331,0,0,0-.185.249,2.049,2.049,0,0,0,.267.048,1.007,1.007,0,0,0,.19-.036Zm-1.312.736c-.34.07-.658.129-.972.2a.774.774,0,0,0-.283.14c-.2.152-.386.317-.576.479a.636.636,0,0,0-.078.105.488.488,0,0,0,.134-.021q.894-.393,1.784-.791a.853.853,0,0,0,.1-.067Z"/>
    <path d="M14.11,40.346a1.308,1.308,0,0,1,.348.062.408.408,0,0,1,.155.635.306.306,0,0,0,.019.429c.117.136.145.279.008.406s-.082.183.017.291a.715.715,0,0,1,.121.874.657.657,0,0,0,.164.8c.286.144.265.4.323.628.018.073-.006.188.036.218.3.21.275.58.44.855.052.085.025.217.034.328-.1-.008-.2-.013-.3-.023-.059-.006-.118-.021-.177-.031a.764.764,0,0,0,.009.186,4.286,4.286,0,0,0,.228.678,1.251,1.251,0,0,0,.33.344A.163.163,0,0,0,16.016,47c.156-.256.375-.152.548-.07a.27.27,0,0,0,.367-.06.726.726,0,0,1,.37-.184c.441-.064.887-.094,1.329-.148.647-.08,1.294-.161,1.938-.259.243-.037.254-.105.189-.33-.182-.625-.355-1.253-.526-1.88-.054-.2-.091-.4-.132-.6a.208.208,0,0,1,0-.129c.062-.1.117-.242.212-.29a.271.271,0,0,1,.355.147c.086.152.161.311.235.469a3.738,3.738,0,0,0,.242.529,4.517,4.517,0,0,1,.483,1.612c.046.191.11.233.276.213.379-.044.757-.108,1.137-.123a3.034,3.034,0,0,1,1.643.326,1.129,1.129,0,0,1,.66.8.422.422,0,0,1-.165.459.445.445,0,0,1-.493.018.335.335,0,0,1-.112-.066,1.779,1.779,0,0,0-1.147-.5,3.18,3.18,0,0,0-1.04.053c-.847.14-1.689.311-2.534.466a2.218,2.218,0,0,1-.39.035c-.62.006-1.24,0-1.859.016-.15,0-.332-.009-.409.2-.019.051-.12.095-.188.1a3.345,3.345,0,0,1-2.2-.559,6.276,6.276,0,0,1-1.022-.942,1.9,1.9,0,0,0-.269-.239.86.86,0,0,1-.342-.973,3.352,3.352,0,0,0,.051-.736c-.006-.427-.063-.909.391-1.208a.368.368,0,0,0,.165-.4.554.554,0,0,1,.16-.509c.082-.078.112-.132-.018-.221-.3-.2-.309-.284-.214-.632.026-.091.111-.194-.044-.279a.3.3,0,0,1-.16-.411c.086-.181.2-.344.437-.334.055,0,.11,0,.164,0Z"/>
    <path d="M17.265,13.318c.406.1.845.177,1.269.309a3.215,3.215,0,0,1,1.3.592c.112.1.17-.006.247-.061a1.274,1.274,0,0,1,1.578,0,.7.7,0,0,1,.047,1.149.47.47,0,0,1-.49.08c-.158-.055-.174-.2-.182-.352-.012-.236-.082-.3-.259-.281a.392.392,0,0,0-.306.4c.044.377-.014.481-.289.521a.554.554,0,0,1-.595-.441.452.452,0,0,1,0-.164c.031-.184-.063-.222-.228-.269-.532-.152-1.051-.35-1.583-.506a2.445,2.445,0,0,0-.646-.073c-.248,0-.3.078-.268.328.046.312.1.623.147.935a.594.594,0,0,1-.007.288c-.04.1-.127.243-.2.248a.356.356,0,0,1-.264-.192c-.12-.277-.206-.569-.3-.857-.053-.164-.1-.333-.143-.5a.764.764,0,0,1,.662-1.068Z"/>
    <path d="M29.5,45.9c.051-.4.1-.772.147-1.15s.083-.757.115-1.136c.072-.858.127-1.718.213-2.575a1.747,1.747,0,0,1,.21-.58.43.43,0,0,1,.531-.215.413.413,0,0,1,.318.44c-.023.4-.072.8-.117,1.2-.04.356-.09.711-.133,1.067-.092.768-.166,1.538-.28,2.3a3.859,3.859,0,0,1-.277.826c-.07.176-.172.34-.417.266C29.578,46.277,29.5,46.16,29.5,45.9Z"/>
    <path d="M20.949,19.819a1.366,1.366,0,0,1-1.054-.371.384.384,0,0,0-.321-.041.846.846,0,0,1-1.121-.3,1.076,1.076,0,0,1,.127-1.219,2.271,2.271,0,0,1,.482-.379c.171-.1.307-.019.406.147a.265.265,0,0,1-.079.4.665.665,0,0,0-.308.513.127.127,0,0,0,.235.093.962.962,0,0,0,.165-.315.333.333,0,0,1,.36-.264,1.214,1.214,0,0,0,.354-.041,1.5,1.5,0,0,1,1.022.046,1.162,1.162,0,0,1,.7.6.82.82,0,0,1-.844,1.152A.625.625,0,0,1,20.949,19.819Zm-.4-1.108c-.02.006-.055.01-.056.019,0,.027,0,.073.01.081.112.061.228.115.343.168l.024-.048c-.086-.066-.174-.128-.263-.191A.448.448,0,0,0,20.546,18.711Z"/>
    <path d="M35.667,26.97c-.392-.126-.789-.237-1.173-.382-.282-.107-.548-.259-.819-.393-.107-.053-.172-.057-.208.089a1.006,1.006,0,0,1-.358.49,10.085,10.085,0,0,1-1.143.95.313.313,0,0,1-.332.031.5.5,0,0,1-.149-.774c.464-.412.941-.809,1.413-1.213.008-.007.016-.021.024-.02.311.02.468-.25.705-.36a.764.764,0,0,1,.53.03c.5.189.988.405,1.475.624a2.269,2.269,0,0,1,.412.264c.118.087.24.208.15.356a.867.867,0,0,1-.317.242.506.506,0,0,1-.194.018Z"/>
    <path d="M25.028,40.628c0-.142-.009-.285,0-.427a.928.928,0,0,1,.077-.313.289.289,0,0,1,.538-.026,1.737,1.737,0,0,1,.2.581c.083.581.136,1.167.208,1.75.055.452.139.9.177,1.356.031.378.018.759.014,1.139a.287.287,0,0,1-.248.3.31.31,0,0,1-.353-.183,2.72,2.72,0,0,1-.211-.614c-.088-.47-.15-.945-.216-1.418-.043-.3-.081-.6-.108-.907-.036-.413-.06-.827-.089-1.24Z"/>
    <path d="M23.8,14.663c.85,0,1.7-.013,2.551.006a10.7,10.7,0,0,1,1.164.126.571.571,0,0,1,.27.1c.1.075.254.229.233.268-.065.122-.191.274-.312.293a6.778,6.778,0,0,1-1.008.059c-.576.008-1.152.006-1.728,0a1.107,1.107,0,0,1-.478-.064,1.723,1.723,0,0,0-.831-.11,2.325,2.325,0,0,1-.578-.058.267.267,0,0,1-.093-.5,1.686,1.686,0,0,1,.548-.168,1.136,1.136,0,0,1,.261,0Z"/>
    <path d="M27.39,22.246a1.572,1.572,0,0,1,.44.162c.386.3.414.626.116.909a1.57,1.57,0,0,1-.5.349c-.435.16-.884.286-1.333.4a.7.7,0,0,1-.8-.379.673.673,0,0,1,.265-.8A5.389,5.389,0,0,1,27.39,22.246Z"/>
    <path d="M9.5,42.976a.607.607,0,0,0-.707.1.651.651,0,0,1-.376.074,7.263,7.263,0,0,1-.846-.089c-.281-.048-.477-.245-.468-.43s.155-.332.467-.379a6.784,6.784,0,0,1,.769-.048c.19-.007.382.007.572-.009a.329.329,0,0,0,.209-.111.5.5,0,0,1,.455-.208c.509.043,1.018.094,1.526.147a.489.489,0,0,1,.183.068c.169.1.17.252-.006.343a1.436,1.436,0,0,1-.367.126c-.266.054-.536.088-.8.142-.069.014-.127.077-.194.107C9.776,42.869,9.635,42.921,9.5,42.976Z"/>
    <path d="M20.737,23.9a2.1,2.1,0,0,1-1.194-.549.843.843,0,0,1-.184-.809.727.727,0,0,1,.795-.443,2.5,2.5,0,0,1,1.351.573.711.711,0,0,1,.072,1.063C21.446,23.853,21.293,23.9,20.737,23.9Z"/>
    <path d="M20.528,17.637a1.064,1.064,0,0,1-.994-.763.7.7,0,0,1,.259-.785,1.318,1.318,0,0,1,1.426-.2.845.845,0,0,1,0,1.491A4.542,4.542,0,0,1,20.528,17.637Z"/>
    <path d="M36.566,8.068a1.8,1.8,0,0,1-.383.44.946.946,0,0,0-.539.948.276.276,0,0,1-.013.161c-.064.092-.138.223-.226.238-.071.013-.2-.1-.246-.191a4,4,0,0,1-.2-.581c-.046-.15-.115-.261-.3-.243a.1.1,0,0,1-.064-.008c-.137-.1-.351-.174-.389-.3-.053-.178.1-.342.3-.411a.368.368,0,0,0,.259-.43c-.012-.156-.045-.325.1-.46.182-.166.4-.2.494.018a.746.746,0,0,0,.836.471C36.353,7.706,36.509,7.805,36.566,8.068Z"/>
    <path d="M13.2,39.438a2.763,2.763,0,0,1,.107-.613c.237-.547.5-1.083.763-1.617a.52.52,0,0,1,.245-.253.6.6,0,0,1,.422-.018.4.4,0,0,1,.193.331,8.725,8.725,0,0,1-.293.992c-.135.411-.273.822-.422,1.229a1.823,1.823,0,0,1-.233.462.355.355,0,0,1-.6-.035A2.489,2.489,0,0,1,13.2,39.438Z"/>
    <path d="M6.3,38.041c.037-.043.1-.19.209-.231a.6.6,0,0,0,.454-.633.266.266,0,0,1,.249-.3.273.273,0,0,1,.3.239.493.493,0,0,0,.462.423.437.437,0,0,1,.085.868c-.418.084-.44.388-.48.7a1.118,1.118,0,0,1-.012.131.348.348,0,0,1-.343.291.354.354,0,0,1-.307-.335c-.019-.127-.011-.258-.021-.386a.329.329,0,0,0-.3-.33C6.333,38.43,6.292,38.363,6.3,38.041Z"/>
    <path d="M14.041,26.361c.066,0,.132,0,.2,0,.213.017.309.122.24.316a1.123,1.123,0,0,1-.278.5,4.631,4.631,0,0,1-1.642.84.983.983,0,0,1-.422.008.431.431,0,0,1-.259-.684,1.045,1.045,0,0,1,.337-.249q.7-.345,1.416-.665a2.162,2.162,0,0,1,.406-.094Z"/>
    <path d="M24.856,49.683c.031.012.185.037.189.077a.419.419,0,0,1-.08.317,1.181,1.181,0,0,0-.36.566.791.791,0,0,1-.518.511,7.567,7.567,0,0,1-1.2.273.835.835,0,0,1-.432-.115.3.3,0,0,1-.022-.559c.249-.122.536-.167.8-.273a.552.552,0,0,0,.307-.247.646.646,0,0,1,.58-.451Z"/>
    <path d="M22.48,17.213a2.345,2.345,0,0,1-.375-.1.275.275,0,0,1-.174-.371.422.422,0,0,0-.037-.424.332.332,0,0,1,.082-.445A1.266,1.266,0,0,1,23.4,15.6a.721.721,0,0,1,.164,1.125A1.453,1.453,0,0,1,22.48,17.213Z"/>
    <path d="M32.36,14.166c.154.046.309.087.461.139a.26.26,0,0,1,.2.265.249.249,0,0,1-.2.263c-.317.107-.637.207-.953.319-.407.143-.811.295-1.215.445-.11.041-.215.1-.328.134a.427.427,0,0,1-.483-.18A.484.484,0,0,1,30,15a4.724,4.724,0,0,1,.636-.329A7.121,7.121,0,0,1,32.36,14.166Z"/>
    <path d="M18.82,15.532a3.691,3.691,0,0,1,.539.187.334.334,0,0,1,.17.392.356.356,0,0,1-.321.282c-.085.013-.172.006-.257.016a2.233,2.233,0,0,0-.317.054.25.25,0,0,0-.21.287c.02.149.142.133.251.148.327.043.472.257.3.474a.679.679,0,0,1-.392.2.925.925,0,0,1-.954-.489.906.906,0,0,1,.166-1.057A1.415,1.415,0,0,1,18.82,15.532Z"/>
    <path d="M22.037,28.621c0,.248-.1.312-.279.238a1.276,1.276,0,0,1-.23-.124.434.434,0,0,0-.649.042.694.694,0,0,1-.922-.111,4.923,4.923,0,0,1-.494-.565.388.388,0,0,1-.088-.237.638.638,0,0,1,.094-.351c.1-.123.253-.094.382-.021a1.044,1.044,0,0,1,.2.161c.092.089.162.226.269.263.056.02.173-.125.259-.2a.468.468,0,0,1,.57-.08,2.233,2.233,0,0,1,.428.348,4.081,4.081,0,0,1,.37.457A.855.855,0,0,1,22.037,28.621Z"/>
    <path d="M34.371,43.459a3.6,3.6,0,0,1-.257.622,9.351,9.351,0,0,1-.644.857.583.583,0,0,1-.264.182,1.579,1.579,0,0,1-.366.029,1.256,1.256,0,0,1,0-.336c.108-.375.243-.743.353-1.118.091-.311.155-.631.243-.943a.438.438,0,0,1,.445-.35.431.431,0,0,1,.379.454c.008.1.015.2.026.292s.028.194.042.291Z"/>
    <path d="M17.886,29.22c-.216-.113-.349.035-.558.2a3.283,3.283,0,0,1-1.054.472.243.243,0,0,1-.267-.369,1.488,1.488,0,0,1,.823-.78.726.726,0,0,1,.408.055c.1.033.148.051.173-.08a1.229,1.229,0,0,1,.124-.333c.129-.253.588-.283.669.034a1.962,1.962,0,0,0,.11.3C18.445,29.014,18.3,29.215,17.886,29.22Z"/>
    <path d="M35.146,40.028a4.147,4.147,0,0,1-.165.433.331.331,0,0,0,.036.387.653.653,0,0,1,.138.405.314.314,0,0,1-.363.257c-.184-.015-.4-.189-.351-.358.142-.505-.248-.765-.446-1.116a1.189,1.189,0,0,1-.162-.446.37.37,0,0,1,.448-.381.923.923,0,0,1,.773.515A3.1,3.1,0,0,1,35.146,40.028Z"/>
    <path d="M10.844,49.369a1.136,1.136,0,0,1,.825.6c.123.2.245.412.349.626a.327.327,0,0,1,.018.263c-.038.065-.153.095-.24.116a.288.288,0,0,1-.191-.027c-.379-.209-.762-.413-1.127-.646a.505.505,0,0,1-.241-.474C10.258,49.535,10.45,49.363,10.844,49.369Z"/>
    <path d="M32.094,45.191c-.034.128-.045.218.138.251a.264.264,0,0,1,.192.3c0,.054,0,.11,0,.163-.04.282-.343.547-.551.487a.485.485,0,0,1-.234-.661c.135-.254.039-.288-.174-.375a1.934,1.934,0,0,1-.551-.4.512.512,0,0,1-.061-.6.409.409,0,0,1,.538-.038,4.117,4.117,0,0,1,.48.329A.528.528,0,0,1,32.094,45.191Z"/>
    <path d="M6.369,51.865c-.067-.056-.123-.081-.138-.122a.9.9,0,0,1-.066-.278c-.01-.191-.06-.332-.274-.384a.43.43,0,0,1-.227-.173.265.265,0,0,1,.16-.414.345.345,0,0,0,.3-.4.284.284,0,0,1,.038-.157c.065-.1.144-.192.217-.287.068.1.14.2.2.313a.383.383,0,0,1,.013.129c.04.348.092.393.433.458A.88.88,0,0,1,7.4,50.7c.154.125.122.278-.067.345a1.463,1.463,0,0,1-.444.064c-.157,0-.245.051-.259.22a.94.94,0,0,1-.077.314A1.146,1.146,0,0,1,6.369,51.865Z"/>
    <path d="M20.624,52.209a1.876,1.876,0,0,1-.515-.166.457.457,0,0,1-.148-.359.409.409,0,0,1,.341-.392,10.938,10.938,0,0,1,1.26-.141.412.412,0,0,1,.473.485.435.435,0,0,1-.352.348C21.339,52.076,20.986,52.134,20.624,52.209Z"/>
    <path d="M33.768,35.826a.427.427,0,0,1,.474.276c.087.174.214.328.292.505a.537.537,0,0,1-.272.761,1.215,1.215,0,0,0-.233.165c-.133.119-.233.09-.313-.057a3.694,3.694,0,0,1-.19-.377c-.076-.19-.137-.386-.2-.58-.007-.02-.013-.041-.02-.062C33.158,36.054,33.319,35.823,33.768,35.826Z"/>
    <path d="M38.739,6.956c.041-.082.059-.182.119-.225a.5.5,0,0,0,.172-.5,1.483,1.483,0,0,1,.007-.359.328.328,0,0,1,.146-.221.282.282,0,0,1,.258.067.736.736,0,0,1,.144.345.322.322,0,0,0,.335.319.624.624,0,0,1,.434.21c.112.193-.078.353-.229.45a1.634,1.634,0,0,1-.647.293,1.5,1.5,0,0,1-.629-.179C38.8,7.14,38.78,7.037,38.739,6.956Z"/>
    <path d="M14.731,51.31c-.35-.029-.644-.038-.932-.085a.656.656,0,0,1-.368-.183c-.238-.275-.1-.572.268-.624.214-.031.426-.08.639-.112a.646.646,0,0,1,.754.3,1.467,1.467,0,0,0,.13.188c.19.245.141.408-.16.483A1.83,1.83,0,0,1,14.731,51.31Z"/>
    <path d="M8.162,48.678a.849.849,0,0,1-.893-.6c-.049-.11-.17-.185-.235-.29a.768.768,0,0,1-.169-.381c.014-.2.2-.2.376-.214a1.312,1.312,0,0,1,.738.2.521.521,0,0,1,.218.19c.134.268.254.543.361.822.065.169-.01.257-.2.268C8.293,48.681,8.228,48.677,8.162,48.678Z"/>
    <path d="M26.062,48.939a.262.262,0,0,1-.1,0,.975.975,0,0,0-.736-.022.479.479,0,0,1-.525-.387.463.463,0,0,1,.475-.437c.235.031.292-.06.366-.239s.344-.206.544-.094a.949.949,0,0,1,.379.883A.364.364,0,0,1,26.062,48.939Z"/>
    <path d="M22.633,18.633a.715.715,0,0,1-.645-.394c-.141-.322,0-.568.367-.563a.246.246,0,0,0,.278-.16.338.338,0,0,1,.44-.23.53.53,0,0,1,.381.4A.939.939,0,0,1,22.633,18.633Z"/>
    <path d="M20.158,40.068a1.143,1.143,0,0,0,0-.131c-.035-.275.039-.436.228-.492a.451.451,0,0,1,.537.309,1.2,1.2,0,0,1,.042,1.115,1.22,1.22,0,0,0-.051.286c-.039.153-.179.209-.26.095a2.208,2.208,0,0,1-.5-.934,1.709,1.709,0,0,1,0-.248Z"/>
    <path d="M24.321,34.015a5.494,5.494,0,0,1,.195-.678.451.451,0,0,1,.51-.27.3.3,0,0,1,.287.268,1.629,1.629,0,0,1-.228,1.13.693.693,0,0,1-.133.143c-.234.2-.462.136-.551-.157a2.152,2.152,0,0,1-.042-.42Z"/>
    <path d="M7.306,45.7c.066.286-.159.439-.363.576a.417.417,0,0,1-.639-.222,1.453,1.453,0,0,1,.035-1.013.354.354,0,0,1,.467-.185A1.231,1.231,0,0,1,7.306,45.7Z"/>
    <path d="M4.8,42.334a.5.5,0,0,1,.548.541c-.041.448-.182.748-.6.742a.512.512,0,0,1-.559-.563C4.184,42.539,4.354,42.338,4.8,42.334Z"/>
    <path d="M30.925,46.477c.119,0,.239-.006.358,0a.334.334,0,0,1,.3.255.3.3,0,0,1-.079.384.744.744,0,0,1-.3.174,4.765,4.765,0,0,1-.773.077.471.471,0,0,1-.457-.4.411.411,0,0,1,.338-.42,5.875,5.875,0,0,1,.61-.1Z"/>
    <path d="M8.219,32.8c.06-.131.077-.254.142-.292a.479.479,0,0,0,.231-.437c.007-.133.034-.236.192-.252s.219.113.224.223c.009.21.142.229.3.275.1.03.241.117.255.2a.533.533,0,0,1-.129.326c-.116.168-.257.317-.382.479s-.175.169-.322.019c-.083-.085-.189-.147-.269-.233A3.768,3.768,0,0,1,8.219,32.8Z"/>
    <path d="M24.1,24.238a4.351,4.351,0,0,1,.435.128.3.3,0,0,1,.2.3.339.339,0,0,1-.226.326.9.9,0,0,1-.312.079c-.26.011-.519.008-.779,0a.393.393,0,0,1-.413-.336.437.437,0,0,1,.35-.412C23.579,24.292,23.806,24.273,24.1,24.238Z"/>
    <path d="M28.042,28.562c-.149-.02-.332-.041-.513-.072-.108-.018-.166-.1-.085-.185a2.276,2.276,0,0,1,1.107-.815.845.845,0,0,1,.32-.019.263.263,0,0,1,.213.384A1.209,1.209,0,0,1,28.042,28.562Z"/>
    <path d="M27.3,47.341a.812.812,0,0,1-.011.192.417.417,0,0,1-.407.355c-.277.016-.415-.048-.485-.286a1.142,1.142,0,0,1,.045-.89.356.356,0,0,1,.6-.107C27.238,46.766,27.3,46.921,27.3,47.341Z"/>
    <path d="M6.617,44.312c-.2-.021-.371-.041-.445-.244-.061-.169.036-.33.272-.459.273-.15.543-.308.827-.433a.345.345,0,0,1,.465.167c.089.175-.013.3-.132.4a4.556,4.556,0,0,1-.543.408A2.331,2.331,0,0,1,6.617,44.312Z"/>
    <path d="M35.151,11.114a.53.53,0,0,1,.465-.6.688.688,0,0,1,.668.757.545.545,0,0,1-.581.454A.638.638,0,0,1,35.151,11.114Z"/>
    <path d="M24.783,31.534c-.131.44-.248.862-.386,1.277-.025.077-.132.127-.2.189a.988.988,0,0,1-.2-.233,3.069,3.069,0,0,1-.182-.577.5.5,0,0,1,.04-.329,2.988,2.988,0,0,1,.418-.532.326.326,0,0,1,.287-.07C24.649,31.3,24.7,31.425,24.783,31.534Z"/>
    <path d="M28.628,47.691a.7.7,0,0,1-.7-.6.464.464,0,0,1,.453-.525.842.842,0,0,1,.726.479C29.26,47.312,28.964,47.69,28.628,47.691Z"/>
    <path d="M18.907,52.1c-.445,0-.655-.22-.5-.484a.968.968,0,0,1,.426-.322,1.333,1.333,0,0,1,.442-.079.452.452,0,0,1,.516.343c.033.184-.181.432-.412.471C19.2,52.055,19.017,52.08,18.907,52.1Z"/>
    <path d="M30.9,27.953a2.6,2.6,0,0,1-.344-.095.408.408,0,0,1-.285-.561c.037-.169.066-.341.117-.506a.2.2,0,0,1,.306-.143,1.131,1.131,0,0,1,.517.641c.04.116-.047.288-.108.421a1.125,1.125,0,0,1-.209.247Z"/>
    <path d="M34.988,12.3a.5.5,0,0,1-.5.555c-.355.006-.563-.175-.579-.592a.519.519,0,0,1,.574-.493C34.827,11.768,34.989,11.938,34.988,12.3Z"/>
    <path d="M35.481,1.015a.494.494,0,0,1-.544-.444A.638.638,0,0,1,35.5,0a.534.534,0,0,1,.58.562C36.094.829,35.868,1,35.481,1.015Z"/>
    <path d="M25.641,29.285a.682.682,0,0,1-.591-.978.38.38,0,0,1,.564-.088,2.152,2.152,0,0,1,.373.626C26.082,29.1,25.922,29.279,25.641,29.285Z"/>
    <path d="M26.14,46.181a1.507,1.507,0,0,1-.113.437.4.4,0,0,1-.5.118.5.5,0,0,1-.223-.565,2.733,2.733,0,0,1,.246-.529.262.262,0,0,1,.5.037A2.564,2.564,0,0,1,26.14,46.181Z"/>
    <path d="M30.876,11.832c.317,0,.492.16.495.438a.567.567,0,0,1-.608.543.526.526,0,0,1-.471-.489A.537.537,0,0,1,30.876,11.832Z"/>
    <path d="M15.947,51.911c-.095-.017-.219,0-.279-.056a.777.777,0,0,1-.268-.371.476.476,0,0,1,.389-.456,1.576,1.576,0,0,1,.565.092.34.34,0,0,1,.124.48C16.348,51.764,16.221,51.971,15.947,51.911Z"/>
    <path d="M9.7,39.239c.361.013.511.161.5.5a.473.473,0,0,1-.537.44.49.49,0,0,1-.461-.466A.435.435,0,0,1,9.7,39.239Z"/>
    <path d="M43.706,14.667a.9.9,0,0,1-.128.259,6.721,6.721,0,0,1-.57.482.309.309,0,0,1-.411-.054c-.123-.109-.071-.248.016-.349.176-.2.363-.4.557-.586a.243.243,0,0,1,.354-.029A1.382,1.382,0,0,1,43.706,14.667Z"/>
    <path d="M3.815,49.435a.423.423,0,0,1,.456.44.5.5,0,0,1-.506.491.464.464,0,0,1-.494-.482A.507.507,0,0,1,3.815,49.435Z"/>
    <path d="M9.5,50.847c-.31,0-.454-.168-.45-.51a.37.37,0,0,1,.427-.411.555.555,0,0,1,.5.47A.425.425,0,0,1,9.5,50.847Z"/>
    <path d="M22.9,29.287a.492.492,0,0,1-.433-.329.366.366,0,0,1,.251-.548.884.884,0,0,1,.694.4C23.492,29.086,23.327,29.28,22.9,29.287Z"/>
    <path d="M11.305,37.927c-.014.3-.189.4-.489.4a.392.392,0,0,1-.429-.43c.008-.3.181-.446.528-.431A.393.393,0,0,1,11.305,37.927Z"/>
    <path d="M11.709,40.3a.52.52,0,0,1,.569.467c.013.2-.221.4-.474.395a.54.54,0,0,1-.513-.493A.4.4,0,0,1,11.709,40.3Z"/>
    <path d="M11.91,41.667a.984.984,0,0,1,.685.343.217.217,0,0,1-.049.337.862.862,0,0,1-.8.031c-.16-.107-.266-.274-.176-.44C11.642,41.807,11.82,41.735,11.91,41.667Z"/>
    <path d="M37.014,4.7c-.29,0-.423-.11-.415-.333a.449.449,0,0,1,.515-.453.391.391,0,0,1,.371.409C37.478,4.556,37.294,4.7,37.014,4.7Z"/>
    <path d="M35.118,37.928c0,.25-.116.367-.357.363a.4.4,0,0,1-.429-.4.433.433,0,0,1,.377-.422A.425.425,0,0,1,35.118,37.928Z"/>
    <path d="M11.782,31.377a.369.369,0,0,1-.391.382.391.391,0,0,1-.429-.391.449.449,0,0,1,.442-.4A.4.4,0,0,1,11.782,31.377Z"/>
    <path d="M4.235,46.673a.4.4,0,0,1,.437.382.466.466,0,0,1-.437.367A.422.422,0,0,1,3.871,47C3.877,46.785,4,46.674,4.235,46.673Z"/>
    <path d="M21.8,42.465c.218,0,.362.11.362.285a.657.657,0,0,1-.467.528c-.14,0-.279-.217-.277-.43C21.416,42.587,21.533,42.47,21.8,42.465Z"/>
    <path d="M29.368,27.455c-.065-.052-.156-.091-.181-.155a.272.272,0,0,1,.021-.237,1.571,1.571,0,0,1,.394-.283.261.261,0,0,1,.364.123.239.239,0,0,1-.1.341C29.718,27.322,29.556,27.378,29.368,27.455Z"/>
    <path d="M16.394,20.051a.3.3,0,0,1,.318.329c-.009.185-.164.3-.39.293a.292.292,0,0,1-.3-.342A.329.329,0,0,1,16.394,20.051Z"/>
    <path d="M3.313,42.629c-.172.015-.25-.086-.254-.251s.194-.307.422-.307c.191,0,.345.123.338.269C3.813,42.467,3.527,42.634,3.313,42.629Z"/>
    <path d="M44.3,8.974a3.441,3.441,0,0,1-.209.416c-.03.045-.128.045-.2.066a.56.56,0,0,1-.031-.23,1.339,1.339,0,0,1,.164-.307,1.9,1.9,0,0,1,.149-.186Z"/>
  </g>
</svg>
