<?xml version="1.0" standalone="no"?>
<!DOCTYPE svg PUBLIC "-//W3C//DTD SVG 20010904//EN"
 "http://www.w3.org/TR/2001/REC-SVG-20010904/DTD/svg10.dtd">
<svg version="1.0" xmlns="http://www.w3.org/2000/svg"
 width="473.000000pt" height="631.000000pt" viewBox="0 0 473.000000 631.000000"
 preserveAspectRatio="xMidYMid meet">

<g transform="translate(0.000000,631.000000) scale(0.100000,-0.100000)"
fill="#000000" stroke="none">
<path d="M1005 5738 c-31 -90 -35 -113 -35 -211 0 -59 4 -115 10 -125 5 -9 12
-43 15 -74 6 -57 24 -80 26 -35 1 20 2 20 6 2 14 -61 66 -201 83 -225 11 -16
20 -32 20 -36 0 -4 7 -16 17 -26 9 -10 21 -28 27 -41 6 -12 27 -30 46 -39 38
-20 61 -49 41 -56 -24 -8 -62 -54 -57 -69 3 -8 6 -19 6 -24 0 -5 16 -27 35
-48 33 -37 35 -43 31 -90 -5 -47 -3 -53 18 -61 13 -5 26 -14 28 -21 3 -8 11
-10 22 -6 12 5 15 13 11 27 -4 11 -2 20 4 20 6 0 11 -9 11 -20 0 -11 7 -20 15
-20 9 0 15 9 15 21 0 14 5 19 18 17 11 -3 16 -12 15 -26 -2 -14 3 -22 13 -22
8 0 12 4 9 10 -3 5 1 30 9 55 9 24 13 51 10 59 -8 21 -50 47 -108 68 -45 16
-65 32 -66 50 0 3 14 11 30 17 18 6 30 17 30 28 1 17 1 17 11 0 7 -12 17 -15
35 -11 27 7 64 -18 64 -43 0 -7 8 -13 17 -13 13 0 14 -3 5 -12 -21 -21 -13
-46 23 -68 19 -12 35 -26 35 -31 0 -5 5 -9 11 -9 7 0 9 10 5 25 -7 29 -1 32
20 10 23 -22 35 -18 28 9 -3 13 -1 27 5 30 18 11 13 34 -10 47 -21 11 -22 10
-16 -21 6 -27 4 -31 -9 -26 -9 3 -24 6 -34 6 -21 0 -55 57 -37 63 18 6 -1 37
-30 48 -63 25 -76 35 -92 69 -10 19 -21 52 -24 73 l-6 37 54 0 c30 0 57 5 60
10 3 6 18 10 31 10 16 0 24 5 22 13 -5 13 -73 30 -188 47 -157 22 -147 19
-142 46 3 19 0 24 -17 24 -26 0 -28 33 -6 87 22 52 19 87 -11 122 -15 18 -20
31 -13 31 7 0 3 10 -10 24 -18 19 -22 31 -17 51 4 16 2 33 -5 41 -9 11 -8 18
5 33 19 21 14 64 -12 94 -14 15 -13 17 7 17 26 0 72 -23 90 -44 17 -21 57 -21
65 0 4 11 12 13 28 8 13 -4 38 -11 57 -15 l33 -7 -27 28 c-14 15 -45 36 -68
46 -23 10 -57 29 -76 41 -29 20 -47 23 -123 23 -62 0 -90 -4 -93 -12z m5 -299
c0 -5 -4 -9 -10 -9 -5 0 -10 7 -10 16 0 8 5 12 10 9 6 -3 10 -10 10 -16z m7
-111 c-3 -8 -6 -5 -6 6 -1 11 2 17 5 13 3 -3 4 -12 1 -19z"/>
<path d="M3420 5680 c-67 -5 -82 -11 -140 -50 -83 -55 -120 -90 -120 -110 0
-19 -53 -71 -90 -88 -14 -6 -43 -16 -65 -21 -22 -6 -45 -19 -52 -30 -7 -10
-26 -22 -43 -26 -36 -8 -64 -46 -55 -74 8 -27 59 -23 109 9 125 80 125 80 119
47 -3 -12 -20 -33 -39 -46 -19 -13 -34 -29 -35 -35 0 -6 -2 -36 -4 -66 -2 -30
-5 -68 -7 -85 -3 -29 -1 -30 39 -33 30 -2 43 -8 45 -20 2 -11 13 -17 33 -17
24 0 30 -4 28 -20 -3 -33 16 -55 46 -55 25 0 28 -3 26 -28 -3 -43 -12 -51 -66
-58 -34 -5 -52 -12 -56 -23 -2 -9 -11 -28 -19 -43 -20 -37 -18 -53 11 -66 14
-7 30 -23 37 -37 6 -14 18 -25 27 -25 38 -1 42 -13 27 -80 -16 -66 -14 -82 5
-63 14 14 36 7 66 -19 16 -15 29 -18 53 -13 22 5 36 2 48 -8 9 -8 28 -17 42
-19 18 -2 26 -11 31 -35 7 -35 -2 -48 -36 -55 -14 -3 -19 -11 -17 -27 1 -16
-4 -24 -18 -28 -19 -5 -25 -15 -21 -36 1 -5 -8 -11 -19 -14 -28 -7 -25 -22 8
-34 l27 -11 -25 -10 c-13 -5 -32 -15 -40 -23 -13 -12 -28 -13 -74 -5 -64 10
-106 0 -106 -26 0 -9 9 -32 21 -50 27 -44 22 -81 -14 -102 -16 -9 -48 -35 -71
-57 -23 -22 -63 -58 -89 -80 -25 -22 -46 -43 -47 -46 0 -4 9 -9 21 -12 16 -4
20 -12 17 -34 -3 -25 -8 -28 -42 -31 -21 -2 -52 2 -68 9 -34 14 -47 5 -30 -21
7 -11 12 -29 12 -39 0 -11 5 -23 10 -26 6 -4 8 -10 6 -14 -3 -4 -1 -13 4 -21
7 -12 16 -12 55 -2 84 22 171 -11 99 -38 -18 -7 -24 -15 -19 -29 7 -23 -3 -51
-20 -51 -7 0 -15 -7 -19 -15 -3 -8 -23 -17 -45 -21 -28 -4 -45 -15 -62 -38
-13 -17 -24 -35 -24 -41 0 -5 -12 -11 -27 -13 -42 -5 -35 -44 17 -96 27 -27
32 -51 13 -62 -7 -5 -28 10 -53 39 -45 51 -56 55 -76 31 -12 -14 -14 -14 -27
3 -12 17 -15 16 -40 -15 -15 -18 -36 -32 -47 -32 -11 0 -33 -8 -50 -18 -53
-33 -199 -77 -216 -66 -6 3 -23 1 -39 -6 -24 -10 -32 -10 -45 4 -15 14 -75 36
-101 36 -7 0 -14 7 -18 15 -3 10 -19 15 -47 15 -33 0 -47 6 -69 30 -26 28 -30
29 -38 13 -10 -17 -11 -17 -30 0 -19 17 -20 17 -25 -3 -5 -19 -27 -29 -27 -12
0 14 -64 1 -77 -16 -19 -23 -27 -8 -24 43 2 43 1 45 -26 45 -18 0 -39 -12 -57
-30 -16 -17 -33 -30 -38 -30 -18 0 -20 33 -3 70 15 32 15 42 5 55 -15 19 1 21
29 3 16 -10 27 -8 60 8 40 19 55 44 26 44 -8 0 -15 7 -15 16 0 22 -56 11 -85
-16 -12 -11 -29 -20 -39 -20 -15 0 -16 -3 -7 -14 10 -11 4 -13 -33 -9 -37 5
-51 1 -88 -25 -58 -40 -68 -53 -89 -115 -12 -35 -14 -56 -8 -64 7 -8 4 -12
-12 -15 -17 -2 -24 -11 -26 -35 -4 -35 12 -44 35 -21 26 26 12 -20 -18 -57
-36 -45 -37 -55 -8 -55 22 0 80 39 110 75 14 16 17 17 18 4 0 -9 -11 -25 -25
-35 -14 -10 -23 -25 -20 -32 3 -8 -6 -27 -20 -44 -14 -16 -25 -36 -25 -44 0
-8 -6 -14 -13 -14 -16 0 -50 -38 -58 -65 -3 -11 2 -31 12 -45 31 -46 28 -63
-13 -70 -51 -9 -69 4 -32 23 l28 15 -47 -2 c-37 -1 -47 -5 -47 -18 0 -10 -8
-25 -19 -35 -17 -16 -18 -25 -10 -82 5 -35 14 -70 19 -76 8 -10 1 -18 -27 -32
-33 -17 -38 -25 -41 -59 -3 -28 1 -42 14 -51 17 -12 17 -15 2 -41 -14 -25 -14
-30 3 -67 18 -41 50 -55 77 -33 8 8 33 0 86 -25 67 -33 75 -40 95 -86 11 -27
21 -54 21 -60 0 -6 12 -11 26 -11 25 0 26 -2 21 -35 -5 -28 -1 -41 19 -64 16
-20 24 -41 24 -68 0 -60 16 -102 58 -152 39 -46 56 -88 54 -126 -1 -11 12 -38
28 -60 71 -96 84 -167 42 -225 -12 -16 -24 -58 -31 -109 -9 -70 -8 -86 4 -104
8 -12 12 -31 9 -44 -4 -16 -2 -23 9 -23 16 0 27 29 27 73 0 15 5 27 10 27 6 0
10 -4 10 -10 0 -5 4 -10 9 -10 5 0 7 18 4 40 -5 32 -2 40 10 40 9 0 19 -9 22
-20 3 -11 11 -20 16 -20 15 0 10 50 -6 56 -22 9 -19 22 19 94 54 104 58 246 8
285 -9 7 -15 54 -19 153 -4 101 -10 145 -20 153 -17 15 -17 38 3 85 9 20 14
51 12 66 -4 21 1 33 15 43 17 12 18 16 7 30 -12 14 -11 18 1 25 11 7 11 12 1
22 -17 17 -15 55 4 62 11 4 14 14 9 35 -6 27 -4 29 22 26 30 -3 43 8 43 40 0
11 10 29 23 40 l22 20 -25 3 c-14 2 -30 8 -35 12 -6 5 -28 10 -50 12 -37 3
-40 1 -41 -22 -3 -59 -4 -62 -20 -56 -9 4 -23 1 -30 -5 -10 -8 -14 -8 -14 -1
0 6 -7 9 -16 5 -19 -7 -34 13 -34 45 0 12 -4 22 -10 22 -5 0 -16 15 -24 33
-13 32 -17 34 -92 46 -44 7 -97 19 -119 27 -23 8 -57 14 -78 14 -26 0 -37 4
-37 15 0 8 7 15 15 15 8 0 15 -4 15 -10 0 -20 51 -10 76 15 14 14 27 25 30 25
3 0 23 19 45 41 l40 41 62 -5 c34 -4 73 -8 87 -9 19 -2 25 2 25 17 0 13 -8 21
-22 23 -29 4 -37 28 -9 29 29 1 66 14 66 23 0 4 -9 10 -20 13 -12 3 -20 14
-20 25 0 15 8 21 33 25 40 6 49 -2 51 -45 1 -33 2 -33 63 -42 61 -9 63 -8 90
21 15 16 43 35 61 42 29 12 35 12 52 -4 21 -19 50 -14 50 9 0 16 21 26 58 26
43 0 107 26 111 45 2 13 -1 16 -13 12 -9 -4 -16 -2 -16 3 0 6 8 11 18 12 9 0
31 3 47 4 17 2 46 4 66 4 29 -1 38 4 48 26 8 18 15 23 24 16 6 -5 34 -12 60
-16 37 -4 56 -14 78 -37 16 -17 29 -35 29 -39 0 -4 7 -14 16 -21 14 -11 18
-10 30 6 13 17 13 21 -1 31 -8 6 -15 16 -15 22 0 7 -11 19 -25 28 -32 21 -32
32 3 40 15 4 35 13 44 22 12 10 28 12 52 8 29 -6 39 -2 65 22 22 20 28 31 20
39 -8 8 -8 13 1 18 16 10 54 -19 91 -70 33 -46 65 -63 95 -51 12 5 14 9 5 20
-14 17 19 49 46 44 20 -4 53 31 53 56 0 22 5 20 34 -9 14 -14 34 -25 45 -25
11 0 26 -3 35 -6 14 -5 13 -10 -5 -36 -12 -17 -24 -25 -28 -20 -14 23 -59 32
-88 17 l-28 -15 25 0 c24 -1 25 -1 5 -16 -17 -13 -18 -16 -5 -24 8 -5 18 -10
22 -10 4 0 9 -9 13 -19 6 -21 74 -33 100 -18 31 17 37 -5 9 -34 -20 -21 -24
-29 -12 -29 22 0 43 -27 26 -32 -21 -7 -48 3 -48 18 0 21 -28 17 -40 -6 -14
-26 -50 -27 -50 -1 0 27 -15 34 -40 19 -27 -17 -25 -36 5 -44 14 -3 25 -9 25
-14 0 -4 16 -15 35 -26 19 -10 35 -20 35 -21 0 -1 -5 -14 -12 -28 -9 -19 -19
-25 -44 -25 -18 0 -36 5 -39 10 -10 17 -25 11 -25 -10 0 -10 -6 -23 -14 -27
-12 -8 -36 -45 -36 -57 0 -9 28 -7 48 3 47 24 95 41 114 41 11 0 38 16 60 36
24 21 46 33 55 30 8 -3 19 -6 24 -6 5 0 9 -9 9 -20 0 -11 -3 -20 -7 -20 -5 0
-21 -11 -37 -25 -16 -14 -34 -25 -41 -25 -6 0 -11 -10 -11 -22 1 -16 -6 -24
-24 -28 -14 -3 -36 -13 -50 -22 -14 -9 -43 -17 -65 -18 -77 -1 -184 6 -191 13
-9 8 -44 -11 -44 -24 0 -6 -7 -17 -15 -25 -10 -11 -13 -27 -8 -60 5 -36 2 -47
-12 -58 -14 -10 -15 -16 -6 -34 10 -18 8 -27 -11 -53 -22 -29 -23 -41 -29
-272 -5 -242 -17 -358 -45 -452 -12 -39 -13 -60 -5 -95 17 -72 15 -81 -14 -74
-21 5 -25 3 -25 -14 0 -32 -21 -38 -42 -13 -15 20 -19 21 -24 7 -3 -9 -1 -36
5 -61 6 -24 11 -61 11 -82 0 -33 -5 -42 -31 -57 -27 -16 -30 -22 -25 -51 8
-41 -4 -123 -14 -104 -4 8 -11 33 -15 57 -9 58 -16 48 -21 -33 -2 -37 -7 -72
-11 -78 -10 -16 -21 25 -13 48 4 11 1 31 -6 44 -12 24 -13 22 -16 -25 l-3 -49
-14 28 c-10 19 -20 26 -31 22 -19 -6 -33 16 -24 39 7 19 -23 28 -48 13 -38
-21 -76 -65 -89 -101 -19 -53 -43 -48 -35 7 13 81 18 158 12 183 -8 29 -26 32
-26 4 0 -10 -6 -23 -14 -27 -8 -5 -16 -29 -18 -56 -2 -26 -10 -53 -16 -59 -7
-7 -12 -23 -12 -36 0 -22 3 -24 30 -18 31 6 43 -10 15 -20 -8 -4 -15 -11 -15
-18 0 -6 -9 -17 -21 -24 -16 -10 -20 -10 -18 0 3 27 -2 37 -21 43 -25 8 -26
27 -1 49 23 21 22 63 -2 100 l-19 28 -26 -41 c-29 -45 -49 -54 -37 -18 23 71
13 147 -20 147 -17 0 -35 -30 -35 -58 0 -23 -30 -52 -53 -52 -12 0 -19 12 -23
40 -4 22 -10 40 -14 40 -5 0 -18 -16 -29 -36 -16 -26 -20 -45 -15 -70 5 -28 2
-37 -24 -61 -17 -15 -32 -41 -34 -56 -2 -15 -7 -28 -13 -28 -16 0 -18 31 -4
57 10 19 10 26 -1 39 -19 23 -27 19 -46 -25 -19 -43 -54 -56 -54 -21 0 27 -29
54 -44 42 -6 -5 -24 -11 -41 -13 -29 -3 -30 -2 -30 37 0 33 3 39 18 37 11 -2
17 4 17 18 0 24 -9 26 -24 4 -15 -20 -44 -9 -48 19 -3 19 -11 23 -73 28 -70 6
-88 4 -69 -9 5 -4 21 -29 35 -57 24 -50 24 -51 21 -310 -2 -143 -8 -264 -13
-270 -16 -16 -10 -40 21 -75 16 -19 29 -41 30 -47 0 -7 8 -13 19 -13 10 0 30
-11 45 -25 15 -14 34 -25 41 -25 8 0 20 -9 27 -20 7 -11 18 -20 25 -20 7 0 22
-10 33 -22 18 -19 33 -23 91 -25 38 0 69 3 69 8 0 5 5 9 11 9 17 0 117 48 124
60 4 6 18 16 32 21 14 5 27 18 30 28 7 28 48 47 68 31 8 -7 15 -16 15 -21 0
-4 11 -19 25 -33 13 -13 27 -37 31 -52 8 -32 54 -102 83 -126 12 -10 32 -18
46 -18 13 0 27 -4 30 -10 3 -5 19 -10 35 -10 16 0 32 5 35 10 3 6 25 10 48 10
72 0 87 8 84 44 -2 28 1 31 31 34 21 2 32 9 32 19 0 27 43 113 55 113 7 0 25
-10 40 -21 22 -18 29 -19 35 -8 5 8 4 19 -2 26 -6 8 -8 17 -4 20 4 4 10 2 14
-4 13 -21 35 3 28 30 -8 35 11 44 26 13 17 -38 34 -32 29 11 -1 6 3 14 8 18 6
3 7 13 4 23 -5 14 -3 15 7 5 11 -10 18 -8 34 8 12 11 38 33 59 50 20 17 37 37
37 45 0 10 8 12 32 7 30 -6 31 -5 25 24 -5 24 -1 35 19 52 13 11 24 27 24 36
0 8 9 22 19 32 11 10 22 35 26 56 4 20 11 40 16 43 5 3 9 13 9 23 0 10 9 30
20 44 11 14 20 34 20 45 0 10 9 29 20 42 11 13 20 37 20 56 0 18 5 36 10 39 6
4 8 16 5 26 -4 11 -1 26 5 34 6 8 9 19 5 25 -3 6 6 25 20 42 21 25 26 39 22
64 -6 36 11 94 36 122 9 10 17 32 17 48 1 16 7 45 14 65 8 23 9 44 4 59 -5 14
-5 34 1 49 11 29 9 168 -2 192 -5 10 -3 22 6 31 11 11 12 19 5 33 -8 14 -6 22
9 34 21 18 40 67 47 124 3 21 10 45 17 54 7 8 14 20 16 27 4 23 35 101 43 111
15 20 18 237 3 274 -14 32 -15 33 -58 27 -53 -8 -105 -33 -105 -50 0 -7 -11
-23 -25 -36 -14 -13 -25 -31 -25 -40 0 -23 -20 -40 -46 -40 -14 0 -25 -8 -29
-19 -13 -42 -125 -55 -125 -14 0 12 8 14 39 9 28 -4 42 -2 51 9 10 13 8 19
-14 36 -31 24 -33 36 -7 44 11 3 36 19 56 35 21 17 46 30 57 30 10 0 22 10 28
24 11 29 26 40 35 26 5 -8 12 -7 23 2 18 15 69 18 88 5 8 -4 16 9 23 38 16 66
14 83 -20 144 -24 43 -31 66 -30 105 0 37 -6 61 -28 100 -22 38 -27 55 -20 68
14 25 -5 56 -38 61 -27 4 -27 4 -5 12 25 8 37 42 29 83 -16 82 -39 149 -58
176 -20 27 -25 49 -30 144 0 13 8 33 18 45 11 12 28 41 38 65 10 23 22 42 26
42 4 0 13 15 19 34 6 19 20 46 31 60 11 13 19 28 17 33 -2 11 32 71 55 95 9
10 17 25 17 33 0 8 11 31 25 51 14 20 25 43 25 50 0 17 27 18 33 2 3 -7 6 -2
6 12 1 15 -4 31 -10 37 -14 14 -3 33 17 33 9 0 12 5 8 11 -3 6 0 15 7 20 8 4
15 19 16 31 2 13 7 55 12 93 9 73 8 178 -4 206 -11 28 0 209 19 304 25 130 50
220 76 280 9 22 21 56 25 75 4 19 15 44 24 55 26 29 41 133 42 280 1 137 -6
194 -25 200 -24 7 -285 11 -356 5z m-126 -935 c-15 -14 -29 -23 -32 -20 -8 8
29 45 45 45 9 0 3 -10 -13 -25z m156 -389 c0 -3 -4 -8 -10 -11 -5 -3 -10 -1
-10 4 0 6 5 11 10 11 6 0 10 -2 10 -4z m-230 -526 c0 -5 10 -10 22 -10 21 0
21 0 2 -15 -24 -18 -58 -19 -73 -1 -10 11 -8 17 6 25 23 13 43 14 43 1z m-183
-86 c-3 -3 -12 -4 -19 -1 -8 3 -5 6 6 6 11 1 17 -2 13 -5z m-69 -26 c-7 -19
-38 -22 -38 -4 0 10 9 16 21 16 12 0 19 -5 17 -12z m-41 -365 c48 -23 73 -48
73 -73 0 -10 8 -24 18 -29 9 -6 12 -11 6 -11 -7 0 -32 11 -55 25 -34 20 -53
24 -84 19 -36 -5 -41 -3 -52 22 -7 15 -12 28 -10 29 3 3 62 34 64 35 1 0 19
-8 40 -17z m31 -149 c20 -14 31 -54 15 -54 -11 0 -73 51 -73 61 0 14 33 11 58
-7z m-1478 2 c0 -11 -19 -15 -25 -6 -3 5 1 10 9 10 9 0 16 -2 16 -4z m245 -26
c-3 -5 -11 -10 -16 -10 -6 0 -7 5 -4 10 3 6 11 10 16 10 6 0 7 -4 4 -10z
m1435 0 c0 -5 -5 -10 -11 -10 -5 0 -7 5 -4 10 3 6 8 10 11 10 2 0 4 -4 4 -10z
m-1496 -128 c3 -5 -1 -30 -9 -57 -8 -26 -15 -60 -15 -75 0 -15 -9 -35 -20 -45
-11 -10 -17 -21 -15 -25 12 -19 -9 -39 -46 -45 -22 -4 -43 -5 -46 -2 -3 3 8
25 25 49 38 57 47 110 21 133 -21 20 -17 35 12 35 10 0 28 9 39 20 21 21 45
26 54 12z m-236 -300 c-3 -31 -25 -39 -53 -19 -18 14 -18 16 -2 41 15 22 21
25 38 15 14 -7 19 -18 17 -37z m1962 38 c0 -5 -7 -10 -16 -10 -8 0 -12 5 -9
10 3 6 10 10 16 10 5 0 9 -4 9 -10z m-2110 -225 c0 -8 -9 -15 -20 -15 -20 0
-26 11 -13 23 12 13 33 7 33 -8z m80 -55 c0 -13 -11 -13 -30 0 -12 8 -11 10 8
10 12 0 22 -4 22 -10z m-142 -78 c4 -25 -13 -30 -22 -6 -9 25 -7 36 7 32 6 -3
13 -14 15 -26z m182 7 c0 -11 -3 -11 -24 -3 -23 9 -20 23 4 17 11 -3 20 -9 20
-14z m1539 -46 c1 -7 -3 -13 -8 -13 -14 0 -20 25 -13 52 l6 23 7 -25 c4 -14 7
-31 8 -37z m-1604 37 c-3 -5 -13 -10 -21 -10 -8 0 -12 5 -9 10 3 6 13 10 21
10 8 0 12 -4 9 -10z m145 -20 c0 -5 -4 -10 -10 -10 -5 0 -10 5 -10 10 0 6 5
10 10 10 6 0 10 -4 10 -10z m328 -34 c8 -5 8 -14 1 -34 -13 -35 -35 -51 -60
-45 -16 5 -18 11 -13 42 4 20 8 38 10 41 4 8 48 5 62 -4z m1092 -6 c0 -5 -5
-10 -11 -10 -5 0 -7 5 -4 10 3 6 8 10 11 10 2 0 4 -4 4 -10z m125 -20 c-3 -5
-13 -10 -21 -10 -8 0 -12 5 -9 10 3 6 13 10 21 10 8 0 12 -4 9 -10z m140 -175
c26 -22 27 -25 10 -25 -26 0 -67 28 -60 41 9 13 17 11 50 -16z m-283 -351 c18
-9 40 -13 56 -9 l25 6 -6 -57 c-7 -70 -21 -88 -46 -58 -9 12 -27 26 -39 33
-12 7 -20 16 -17 22 11 16 -5 48 -21 42 -17 -6 -17 -2 -2 33 7 14 14 21 16 15
2 -6 17 -18 34 -27z m113 -84 c3 -5 1 -10 -4 -10 -6 0 -11 5 -11 10 0 6 2 10
4 10 3 0 8 -4 11 -10z m-65 -200 c0 -5 -4 -10 -10 -10 -5 0 -10 5 -10 10 0 6
5 10 10 10 6 0 10 -4 10 -10z m-1050 -540 c9 -16 8 -22 -5 -26 -21 -8 -39 10
-32 30 9 22 24 20 37 -4z m537 -22 c-3 -8 -6 -5 -6 6 -1 11 2 17 5 13 3 -3 4
-12 1 -19z m-307 5 c0 -5 -7 -17 -15 -27 -15 -20 -15 -20 -15 0 0 12 3 24 7
27 9 9 23 9 23 0z m-52 -66 c16 -19 26 -67 13 -67 -16 0 -51 42 -51 62 0 21
23 24 38 5z"/>
<path d="M1234 5555 c-5 -13 -14 -15 -40 -11 -18 4 -35 2 -38 -3 -6 -10 14
-16 87 -27 43 -6 49 -5 45 11 -1 10 -13 24 -25 32 -20 14 -23 14 -29 -2z"/>
<path d="M1205 5461 c-3 -5 -1 -12 5 -16 12 -7 30 2 30 16 0 12 -27 12 -35 0z"/>
<path d="M1222 5398 c-15 -15 -16 -38 -2 -38 21 0 71 31 65 40 -9 14 -49 12
-63 -2z"/>
<path d="M2270 5291 c0 -16 -5 -42 -10 -57 -15 -38 -6 -58 18 -45 34 18 35
131 2 131 -6 0 -10 -13 -10 -29z"/>
<path d="M2323 5305 c-3 -9 -3 -18 0 -22 10 -10 37 6 37 22 0 20 -29 20 -37 0z"/>
<path d="M1812 5298 c-7 -7 -12 -17 -12 -23 0 -12 32 -45 43 -45 9 0 9 43 1
64 -7 19 -16 20 -32 4z"/>
<path d="M2167 5293 c-4 -3 -7 -25 -6 -47 l0 -41 18 40 c18 39 18 55 2 55 -4
0 -11 -3 -14 -7z"/>
<path d="M2457 5235 c-13 -12 -15 -21 -8 -28 15 -15 34 5 29 29 -3 17 -4 17
-21 -1z"/>
<path d="M1406 5215 c-23 -18 -25 -16 44 -44 30 -13 64 -32 76 -42 21 -20 60
-25 83 -10 34 22 -34 74 -124 95 -16 4 -37 9 -45 11 -8 2 -24 -2 -34 -10z"/>
<path d="M2603 5185 c-3 -9 -3 -18 0 -21 9 -9 27 6 27 22 0 19 -19 18 -27 -1z"/>
<path d="M2050 5144 c0 -8 5 -12 10 -9 6 4 8 11 5 16 -9 14 -15 11 -15 -7z"/>
<path d="M2330 5150 c0 -5 5 -10 11 -10 5 0 7 5 4 10 -3 6 -8 10 -11 10 -2 0
-4 -4 -4 -10z"/>
<path d="M2585 5097 c-9 -21 -3 -49 12 -54 19 -7 27 37 9 55 -14 14 -16 14
-21 -1z"/>
<path d="M2025 5068 c-2 -7 -6 -31 -10 -53 -6 -37 -5 -39 10 -24 20 19 33 89
16 89 -6 0 -13 -6 -16 -12z"/>
<path d="M2360 5054 c0 -14 -4 -33 -10 -43 -6 -12 -6 -30 0 -52 8 -26 7 -35
-4 -41 -10 -6 -13 -20 -9 -48 l6 -39 -36 1 c-20 1 -43 -5 -52 -12 -8 -7 -15
-9 -15 -4 0 4 -5 3 -10 -2 -8 -8 -7 -20 0 -39 15 -40 15 -192 0 -210 -12 -15
-11 -16 10 -19 19 -2 43 -50 42 -83 -1 -30 1 -34 21 -31 12 2 27 13 33 25 6
13 18 31 27 41 10 10 15 21 11 24 -7 8 -17 83 -17 139 0 25 9 66 20 90 16 36
19 61 17 144 -2 55 -3 119 -3 143 -1 30 -5 42 -16 42 -9 0 -15 -10 -15 -26z"/>
<path d="M2245 5030 c-3 -5 1 -10 10 -10 9 0 13 5 10 10 -3 6 -8 10 -10 10 -2
0 -7 -4 -10 -10z"/>
<path d="M2200 4971 c0 -6 5 -13 10 -16 6 -3 10 1 10 9 0 9 -4 16 -10 16 -5 0
-10 -4 -10 -9z"/>
<path d="M2007 4943 c-16 -30 -15 -63 4 -87 18 -22 23 -24 42 -13 41 23 42 42
3 84 -21 23 -41 29 -49 16z"/>
<path d="M3112 4930 c-12 -12 -22 -22 -22 -23 0 -6 77 0 88 7 10 6 10 11 1 22
-16 20 -42 17 -67 -6z"/>
<path d="M2510 4901 c-5 -11 -10 -26 -10 -33 0 -7 -12 -31 -27 -53 -25 -37
-27 -48 -29 -155 -2 -80 0 -104 6 -80 12 52 39 120 56 144 8 12 19 37 24 57 7
26 19 40 38 48 34 14 64 61 52 81 -7 12 -12 12 -35 0 -19 -10 -28 -11 -37 -2
-17 17 -26 15 -38 -7z"/>
<path d="M2080 4836 c-11 -22 -10 -35 9 -93 19 -59 39 -176 41 -238 1 -14 5
-10 17 15 20 46 28 210 13 267 -7 24 -22 49 -36 58 -30 19 -28 19 -44 -9z"/>
<path d="M1445 4760 c-3 -5 -1 -10 4 -10 6 0 11 5 11 10 0 6 -2 10 -4 10 -3 0
-8 -4 -11 -10z"/>
<path d="M1890 4720 c0 -17 44 -110 53 -110 4 0 7 9 7 20 0 11 4 20 8 20 17 0
30 45 18 60 -13 17 -86 25 -86 10z"/>
<path d="M1894 4405 c-5 -12 -24 -15 -88 -15 -44 0 -99 -5 -121 -11 -72 -19
-154 -61 -161 -81 -7 -24 -43 -38 -98 -38 -31 0 -55 -9 -90 -32 -39 -25 -50
-29 -57 -17 -14 22 -11 47 5 45 15 -1 16 1 16 28 0 17 -30 29 -52 21 -8 -3
-20 -22 -27 -42 -14 -37 -7 -78 24 -148 7 -16 15 -54 18 -83 3 -37 11 -60 27
-77 27 -29 40 -32 40 -10 0 9 12 27 26 40 28 26 44 32 44 15 0 -5 -7 -10 -15
-10 -28 0 -15 -34 28 -72 79 -71 87 -81 76 -94 -7 -9 4 -18 46 -33 52 -20 90
-22 115 -6 17 10 70 -5 70 -21 0 -16 -16 -19 -25 -4 -8 13 -45 13 -45 1 0 -14
64 -33 83 -25 21 8 21 18 0 50 -13 21 -14 27 -3 34 13 8 6 30 -11 30 -6 0 -35
20 -65 44 -59 48 -57 67 5 47 32 -11 46 -9 129 18 91 30 142 39 142 24 0 -4
-7 -26 -16 -49 -12 -31 -24 -45 -55 -58 -21 -10 -39 -22 -39 -27 0 -13 21 -50
44 -77 19 -22 19 -22 0 -37 -19 -14 -18 -14 3 -15 42 0 53 9 42 37 -13 35 -2
44 45 36 29 -5 43 -14 62 -44 33 -53 120 -134 165 -154 48 -22 58 -55 29 -93
-28 -35 -64 -48 -122 -45 -45 2 -47 1 -46 -26 1 -15 -1 -32 -4 -37 -3 -5 -2
-19 3 -31 7 -19 15 -22 61 -21 31 1 59 7 67 16 10 9 28 12 60 9 96 -11 203
-40 224 -62 17 -16 28 -10 20 11 -4 10 3 14 26 14 52 0 51 27 -2 76 -37 35
-53 44 -82 44 -38 0 -59 25 -35 40 19 12 -5 40 -34 40 -32 0 -46 19 -46 61 0
54 -8 69 -39 69 -20 0 -45 17 -94 64 -37 36 -67 70 -67 76 0 6 7 25 16 42 13
24 14 36 5 55 -10 21 -16 24 -39 19 -63 -16 -66 -14 -80 43 -11 46 -11 55 2
70 16 18 22 110 11 176 -3 22 -7 64 -8 94 -2 49 -5 56 -42 87 -44 37 -63 42
-71 19z m3 -121 c9 -23 -13 -40 -32 -24 -8 7 -15 19 -15 26 0 19 39 18 47 -2z
m-347 -131 c0 -38 3 -78 6 -90 4 -16 0 -23 -16 -28 -55 -17 -105 61 -62 94 12
9 28 33 37 54 23 55 35 45 35 -30z"/>
<path d="M2714 4369 c-3 -5 -16 -9 -30 -9 -18 0 -32 -12 -54 -47 -38 -60 -52
-109 -55 -200 -3 -59 0 -72 13 -77 10 -3 42 -24 72 -46 30 -22 85 -49 123 -61
l68 -21 55 28 c31 16 59 35 62 44 3 8 17 29 31 47 25 32 29 43 38 128 3 28 12
58 21 68 13 14 13 21 2 41 -16 30 -94 88 -135 100 -42 12 -204 16 -211 5z
m154 -117 c2 -7 -6 -12 -17 -12 -21 0 -27 11 -14 24 9 9 26 2 31 -12z"/>
<path d="M2029 4349 c-8 -48 -5 -68 12 -72 11 -3 19 -14 19 -26 0 -25 20 -29
20 -3 1 23 29 -25 30 -50 0 -10 9 -32 19 -49 l20 -32 7 27 c7 31 -11 126 -32
169 -8 15 -22 27 -32 27 -9 0 -27 3 -39 6 -13 4 -23 5 -24 3z"/>
<path d="M3210 4300 c0 -5 5 -10 10 -10 6 0 10 5 10 10 0 6 -4 10 -10 10 -5 0
-10 -4 -10 -10z"/>
<path d="M2533 3865 c-16 -13 -16 -16 -3 -25 18 -13 62 -9 67 6 2 6 -7 16 -21
22 -19 8 -28 7 -43 -3z"/>
<path d="M2629 3806 c7 -9 23 -16 34 -16 26 0 12 15 -23 25 -22 7 -23 6 -11
-9z"/>
<path d="M2860 3800 c0 -5 4 -10 9 -10 6 0 13 5 16 10 3 6 -1 10 -9 10 -9 0
-16 -4 -16 -10z"/>
<path d="M1382 3755 l-24 -25 19 -32 19 -33 90 1 c49 0 114 2 144 4 30 1 66 0
80 -4 18 -5 33 -2 49 11 l23 19 -35 2 c-20 1 -48 9 -64 17 -15 8 -43 15 -61
15 -18 0 -47 7 -65 16 -17 9 -50 17 -73 18 -23 0 -46 4 -50 9 -13 13 -28 7
-52 -18z"/>
<path d="M2348 3713 c-39 -16 -52 -48 -24 -59 28 -11 96 39 96 70 0 10 -34 5
-72 -11z"/>
<path d="M1437 3633 c-13 -12 -7 -24 18 -33 14 -5 25 -16 25 -25 0 -9 9 -15
25 -15 18 0 23 -4 19 -15 -8 -21 37 -20 93 1 50 20 55 37 13 54 -16 7 -30 19
-30 26 0 11 -18 14 -78 14 -43 0 -82 -3 -85 -7z"/>
<path d="M1440 3458 c-15 -6 -20 -12 -12 -15 7 -3 19 0 27 7 8 6 19 9 24 6 5
-4 12 -2 16 4 8 13 -22 12 -55 -2z"/>
<path d="M2250 3280 c0 -5 7 -10 16 -10 8 0 12 5 9 10 -3 6 -10 10 -16 10 -5
0 -9 -4 -9 -10z"/>
<path d="M2370 3280 c0 -5 5 -10 10 -10 6 0 10 5 10 10 0 6 -4 10 -10 10 -5 0
-10 -4 -10 -10z"/>
<path d="M2760 3026 c0 -14 -4 -28 -10 -31 -19 -12 -10 -45 15 -55 32 -12 71
2 78 29 4 16 13 21 41 21 24 0 36 5 36 14 0 23 -23 34 -70 34 -25 -1 -55 2
-67 6 -20 6 -23 4 -23 -18z"/>
<path d="M1295 2990 c-3 -6 1 -13 10 -16 19 -8 30 0 20 15 -8 14 -22 14 -30 1z"/>
<path d="M1791 2771 c-9 -6 -12 -19 -8 -40 6 -29 4 -31 -21 -31 -15 0 -41 4
-58 9 -18 5 -37 5 -45 0 -10 -6 -11 -9 -1 -9 6 0 12 -9 12 -19 0 -31 11 -51
27 -51 22 0 52 -41 53 -73 0 -37 25 -45 50 -16 14 17 19 34 16 55 -5 38 8 54
46 54 21 0 28 5 28 20 0 23 -12 25 -41 8 -17 -11 -22 -10 -35 7 -13 17 -12 20
8 31 12 7 28 10 35 7 16 -6 29 25 16 38 -15 15 -65 21 -82 10z"/>
<path d="M2296 2668 c-6 -57 3 -141 18 -155 5 -5 -4 209 -9 215 -1 2 -6 -26
-9 -60z"/>
<path d="M2709 2650 c-36 -19 -56 -57 -40 -73 9 -9 41 1 41 14 0 5 7 9 15 9
32 0 66 24 63 44 -4 28 -34 30 -79 6z"/>
<path d="M1540 2650 l-25 -7 28 -12 c16 -6 34 -11 42 -11 7 0 15 -5 17 -12 6
-18 38 -1 38 21 0 28 -46 38 -100 21z"/>
<path d="M1931 2554 c0 -11 3 -14 6 -6 3 7 2 16 -1 19 -3 4 -6 -2 -5 -13z"/>
<path d="M1906 2079 c-18 -18 -19 -21 -4 -35 21 -22 38 -10 38 27 0 34 -7 35
-34 8z"/>
<path d="M1807 2036 c-7 -18 8 -40 22 -32 6 4 11 13 11 21 0 18 -27 27 -33 11z"/>
<path d="M1288 1974 c-22 -12 -28 -22 -28 -49 0 -19 2 -35 5 -35 5 0 85 42
129 67 20 12 20 13 -6 13 -15 0 -30 5 -33 10 -9 14 -35 12 -67 -6z"/>
<path d="M1838 1982 c-22 -4 -23 -18 -4 -25 8 -3 17 1 20 10 8 19 6 20 -16 15z"/>
<path d="M2025 1800 c-4 -12 -5 -24 -2 -27 3 -2 8 5 12 17 4 12 5 24 2 27 -3
2 -8 -5 -12 -17z"/>
<path d="M1270 1720 c0 -5 5 -10 10 -10 6 0 10 5 10 10 0 6 -4 10 -10 10 -5 0
-10 -4 -10 -10z"/>
<path d="M2217 1696 c-7 -43 2 -84 14 -64 11 17 11 85 0 92 -5 3 -11 -10 -14
-28z"/>
<path d="M1830 1706 c0 -2 11 -6 25 -8 14 -3 25 -1 25 3 0 5 -11 9 -25 9 -14
0 -25 -2 -25 -4z"/>
<path d="M1265 1669 c-12 -18 1 -20 31 -4 l29 15 -27 0 c-15 0 -30 -5 -33 -11z"/>
<path d="M1907 1614 c-4 -4 -7 -19 -6 -33 0 -16 3 -20 6 -11 3 8 11 18 17 22
8 5 8 10 0 18 -6 6 -13 7 -17 4z"/>
<path d="M2006 1592 c-3 -5 -8 -28 -12 -51 -7 -45 -21 -61 -30 -37 -3 9 -10
16 -14 16 -12 0 -19 -91 -10 -140 6 -38 9 -41 15 -22 7 21 35 32 35 13 0 -5
13 -4 29 2 26 10 29 16 33 66 3 31 1 63 -3 71 -4 8 -11 32 -14 53 -6 35 -18
47 -29 29z m21 -114 c-3 -8 -6 -5 -6 6 -1 11 2 17 5 13 3 -3 4 -12 1 -19z"/>
<path d="M2084 1456 c3 -32 10 -64 16 -70 9 -8 10 2 5 44 -10 79 -28 100 -21
26z"/>
<path d="M2156 1444 c-14 -35 -6 -75 21 -102 28 -28 42 -18 24 17 -6 11 -11
33 -11 49 0 35 -24 61 -34 36z"/>
<path d="M2220 1441 c0 -12 5 -21 10 -21 6 0 10 6 10 14 0 8 -4 18 -10 21 -5
3 -10 -3 -10 -14z"/>
<path d="M2366 1422 c-3 -15 -8 -37 -12 -49 -8 -28 13 -31 32 -5 8 10 13 12
14 5 0 -22 20 -14 20 7 0 11 -7 20 -15 20 -8 0 -15 9 -15 19 0 31 -17 33 -24
3z"/>
<path d="M1161 1403 c0 -18 1 -33 3 -33 2 0 11 -3 20 -6 9 -3 16 -1 16 5 0 6
-6 11 -14 11 -8 0 -17 12 -19 28 -4 25 -4 25 -6 -5z"/>
<path d="M2277 1423 c-10 -9 -9 -53 2 -53 12 0 20 35 12 49 -4 6 -10 8 -14 4z"/>
<path d="M1247 1305 c-9 -21 23 -47 61 -51 19 -2 21 0 11 12 -6 8 -19 14 -29
14 -9 0 -21 10 -27 22 -9 20 -10 20 -16 3z"/>
<path d="M1850 1305 c0 -8 5 -15 10 -15 6 0 10 7 10 15 0 8 -4 15 -10 15 -5 0
-10 -7 -10 -15z"/>
<path d="M2481 1203 c0 -10 4 -27 9 -38 7 -18 8 -18 15 7 7 28 1 48 -16 48 -5
0 -9 -8 -8 -17z"/>
<path d="M1804 1186 c-7 -29 4 -69 17 -61 12 8 12 72 -1 80 -5 3 -12 -5 -16
-19z"/>
<path d="M2421 1184 c0 -11 3 -14 6 -6 3 7 2 16 -1 19 -3 4 -6 -2 -5 -13z"/>
<path d="M2570 250 c0 -5 7 -10 16 -10 8 0 12 5 9 10 -3 6 -10 10 -16 10 -5 0
-9 -4 -9 -10z"/>
</g>
</svg>
