<svg width="33.433" height="35.21" xmlns="http://www.w3.org/2000/svg">

 <g>
  <title>Layer 1</title>
  <g id="svg_1">
   <path fill="#39ff14" id="svg_2" d="m20.114,10.81l-0.777,-0.021c-0.281,-0.008 -0.561,-0.019 -0.841,-0.026c-0.3,-0.008 -0.6,-0.01 -0.895,-0.02c-0.383,-0.013 -0.766,-0.033 -1.149,-0.046c-0.4,-0.014 -0.8,-0.012 -1.193,-0.037c-0.582,-0.037 -1.164,-0.046 -1.746,-0.048c-0.192,0 -0.384,-0.006 -0.575,-0.019c-0.6,-0.039 -1.192,-0.058 -1.788,-0.061c-0.181,0 -0.362,-0.011 -0.543,-0.019l-1.319,-0.056a0.238,0.238 0 0 0 -0.065,0.019a0.257,0.257 0 0 0 0.045,0.053c0.208,0.142 0.418,0.282 0.627,0.423l0.846,0.574l0.829,0.56l0.915,0.624q0.3,0.207 0.608,0.412l1.032,0.7q0.591,0.4 1.181,0.8c0.435,0.295 0.868,0.593 1.3,0.888s0.848,0.571 1.272,0.857c0.17,0.115 0.34,0.232 0.509,0.348c0.079,0.055 0.1,0.088 0.07,0.179s-0.065,0.2 -0.1,0.292c-0.07,0.193 -0.141,0.385 -0.211,0.578c-0.062,0.17 -0.125,0.339 -0.187,0.509s-0.118,0.334 -0.179,0.5s-0.124,0.339 -0.186,0.509s-0.127,0.354 -0.191,0.53s-0.132,0.358 -0.2,0.537c-0.033,0.091 -0.063,0.182 -0.095,0.272c-0.068,0.186 -0.137,0.372 -0.2,0.559s-0.119,0.349 -0.181,0.523s-0.131,0.351 -0.2,0.527c-0.058,0.156 -0.114,0.313 -0.17,0.47l-0.264,0.742q-0.1,0.276 -0.2,0.551c-0.064,0.176 -0.131,0.352 -0.2,0.528s-0.123,0.347 -0.185,0.52s-0.122,0.333 -0.182,0.5s-0.12,0.334 -0.181,0.5c-0.066,0.183 -0.134,0.366 -0.2,0.549l-0.188,0.531c-0.016,0.047 -0.041,0.091 -0.055,0.138a0.194,0.194 0 0 0 0.005,0.071a0.225,0.225 0 0 0 0.064,-0.025q0.552,-0.426 1.1,-0.855q0.8,-0.624 1.609,-1.248q0.882,-0.687 1.764,-1.376c0.5,-0.393 1.012,-0.782 1.516,-1.174c0.432,-0.336 0.862,-0.675 1.293,-1.011s0.858,-0.667 1.288,-1c0.053,-0.042 0.107,-0.082 0.162,-0.121a0.094,0.094 0 0 1 0.126,0.008q0.372,0.294 0.745,0.586c0.278,0.216 0.557,0.429 0.835,0.645q0.732,0.57 1.462,1.14c0.312,0.242 0.625,0.482 0.936,0.724q0.9,0.7 1.791,1.394q0.946,0.735 1.895,1.468q0.538,0.418 1.079,0.835a0.092,0.092 0 0 1 0.029,0.03a0.656,0.656 0 0 1 0.032,0.077a0.281,0.281 0 0 1 -0.077,0c-0.113,-0.04 -0.224,-0.084 -0.336,-0.127l-0.435,-0.173c-0.17,-0.068 -0.34,-0.139 -0.511,-0.206c-0.149,-0.059 -0.3,-0.114 -0.447,-0.172s-0.322,-0.13 -0.483,-0.2l-0.464,-0.185l-0.486,-0.188l-0.672,-0.267c-0.152,-0.061 -0.3,-0.123 -0.454,-0.183c-0.1,-0.04 -0.2,-0.077 -0.307,-0.116l-0.217,-0.088c-0.15,-0.063 -0.3,-0.13 -0.45,-0.189c-0.22,-0.087 -0.444,-0.166 -0.665,-0.252s-0.42,-0.172 -0.63,-0.257c-0.161,-0.064 -0.323,-0.126 -0.484,-0.191l-0.66,-0.265l-0.633,-0.25c-0.112,-0.044 -0.225,-0.086 -0.336,-0.133a0.2,0.2 0 0 0 -0.235,0.029c-0.316,0.253 -0.639,0.5 -0.959,0.747l-1.31,1.039q-1,0.777 -2,1.555c-0.625,0.486 -1.248,0.976 -1.873,1.462c-0.381,0.3 -0.767,0.589 -1.148,0.884c-0.194,0.15 -0.384,0.306 -0.578,0.456c-0.275,0.213 -0.552,0.423 -0.827,0.636c-0.511,0.4 -1.019,0.8 -1.53,1.193c-0.362,0.281 -0.727,0.558 -1.089,0.839c-0.3,0.238 -0.608,0.478 -0.914,0.717l-0.767,0.593l-1.339,1.038c-0.011,0.009 -0.02,0.024 -0.033,0.026c-0.028,0.006 -0.069,0.018 -0.085,0a0.1,0.1 0 0 1 -0.013,-0.084c0.02,-0.068 0.051,-0.132 0.075,-0.2q0.121,-0.329 0.241,-0.659c0.068,-0.187 0.134,-0.374 0.2,-0.561s0.131,-0.344 0.193,-0.517s0.117,-0.341 0.177,-0.511s0.121,-0.333 0.181,-0.5s0.128,-0.345 0.19,-0.518c0.087,-0.24 0.174,-0.481 0.26,-0.721c0.066,-0.184 0.13,-0.368 0.2,-0.551s0.134,-0.358 0.2,-0.537c0.057,-0.157 0.111,-0.314 0.167,-0.471c0.062,-0.173 0.126,-0.346 0.188,-0.52s0.129,-0.361 0.194,-0.541s0.134,-0.358 0.2,-0.538s0.122,-0.355 0.185,-0.531c0.083,-0.23 0.168,-0.46 0.252,-0.689c0.065,-0.18 0.128,-0.361 0.194,-0.54s0.133,-0.351 0.2,-0.528s0.115,-0.334 0.175,-0.5s0.128,-0.345 0.191,-0.518s0.119,-0.334 0.179,-0.5q0.13,-0.36 0.259,-0.721c0.067,-0.186 0.132,-0.374 0.2,-0.56s0.137,-0.364 0.2,-0.547c0.058,-0.16 0.113,-0.321 0.171,-0.481c0.088,-0.243 0.178,-0.486 0.266,-0.73c0.06,-0.166 0.117,-0.334 0.177,-0.5c0.04,-0.11 0.082,-0.219 0.123,-0.329c0.029,-0.079 0.059,-0.159 0.087,-0.239c0.086,-0.247 0.168,-0.5 0.258,-0.742c0.109,-0.3 0.223,-0.6 0.335,-0.9c0.03,-0.08 0.058,-0.16 0.085,-0.241s0.02,-0.117 -0.057,-0.17q-0.585,-0.4 -1.169,-0.8q-0.66,-0.45 -1.322,-0.9c-0.458,-0.31 -0.919,-0.618 -1.377,-0.929c-0.32,-0.216 -0.637,-0.437 -0.957,-0.654c-0.361,-0.246 -0.724,-0.488 -1.086,-0.733l-1.341,-0.901c-0.256,-0.174 -0.514,-0.343 -0.769,-0.517c-0.44,-0.3 -0.877,-0.6 -1.317,-0.9c-0.391,-0.265 -0.785,-0.526 -1.176,-0.79c-0.27,-0.183 -0.538,-0.37 -0.807,-0.554s-0.547,-0.37 -0.821,-0.555l-0.819,-0.556q-0.438,-0.295 -0.871,-0.59c-0.265,-0.18 -0.528,-0.361 -0.792,-0.541l-0.428,-0.284a0.161,0.161 0 0 1 -0.046,-0.044a0.579,0.579 0 0 1 -0.034,-0.085a0.26,0.26 0 0 1 0.085,-0.029c0.07,0 0.14,0.014 0.21,0.023c0.032,0 0.063,0.012 0.1,0.013c0.476,0.009 0.952,0.015 1.428,0.027c0.287,0.008 0.574,0.026 0.861,0.04l0.016,0l0.9,0.024c0.434,0.012 0.868,0.012 1.3,0.037c0.561,0.034 1.121,0.043 1.682,0.049c0.263,0 0.525,0.025 0.787,0.039l0.031,0c0.291,0.008 0.582,0.017 0.874,0.024c0.245,0 0.49,0.008 0.735,0.015c0.188,0 0.377,0.006 0.564,0.02c0.574,0.042 1.15,0.047 1.725,0.049c0.2,0 0.405,0.011 0.607,0.018s0.391,0 0.584,0.027c0.4,0.05 0.8,0.023 1.193,0.036s0.766,0.03 1.149,0.041s0.745,0.016 1.118,0.028c0.259,0.009 0.517,0.025 0.776,0.039l0.021,0q0.789,0.02 1.577,0.041a0.17,0.17 0 0 0 0.166,-0.09c0.1,-0.164 0.2,-0.326 0.3,-0.488c0.168,-0.267 0.339,-0.533 0.508,-0.8c0.155,-0.246 0.308,-0.494 0.463,-0.74c0.217,-0.346 0.436,-0.691 0.652,-1.037c0.192,-0.307 0.382,-0.615 0.575,-0.922c0.156,-0.249 0.317,-0.5 0.474,-0.746c0.24,-0.381 0.478,-0.764 0.718,-1.146c0.188,-0.3 0.379,-0.591 0.566,-0.889c0.216,-0.346 0.428,-0.695 0.643,-1.042a0.822,0.822 0 0 1 0.08,-0.113a0.078,0.078 0 0 1 0.062,-0.019c0.012,0 0.025,0.031 0.029,0.05a0.105,0.105 0 0 1 -0.006,0.05c-0.057,0.186 -0.115,0.372 -0.171,0.559c-0.044,0.146 -0.083,0.294 -0.126,0.44s-0.081,0.264 -0.121,0.4q-0.042,0.138 -0.081,0.276c-0.058,0.208 -0.114,0.417 -0.172,0.625c-0.034,0.12 -0.07,0.238 -0.106,0.357s-0.072,0.229 -0.105,0.345q-0.11,0.372 -0.216,0.746c-0.06,0.211 -0.116,0.424 -0.178,0.635c-0.088,0.3 -0.18,0.6 -0.268,0.9c-0.038,0.132 -0.07,0.267 -0.106,0.4c-0.028,0.1 -0.058,0.205 -0.089,0.306c-0.064,0.211 -0.133,0.42 -0.193,0.631c-0.086,0.3 -0.164,0.6 -0.25,0.9c-0.057,0.2 -0.126,0.4 -0.184,0.6c-0.064,0.225 -0.123,0.451 -0.185,0.677c-0.025,0.092 -0.053,0.183 -0.081,0.275c-0.064,0.21 -0.131,0.42 -0.192,0.631s-0.117,0.431 -0.177,0.647c-0.026,0.092 -0.054,0.183 -0.085,0.274a0.126,0.126 0 0 1 -0.129,0.092c-0.075,0 -0.15,0 -0.224,0l0,-0.006z"/>
   <path fill="#39ff14" id="svg_3" d="m14.111,11.955c0.254,0.015 0.508,0.033 0.763,0.043c0.216,0.008 0.433,0.005 0.65,0.009c0.32,0.005 0.64,0.009 0.959,0.019c0.405,0.013 0.809,0.032 1.213,0.046c0.188,0.007 0.376,0.007 0.564,0.015c0.255,0.011 0.51,0.027 0.765,0.041l0.032,0l1.225,0.026c0.313,0.006 0.625,0.011 0.938,0.02a1.971,1.971 0 0 1 0.254,0.027c0.062,0.01 0.089,-0.013 0.107,-0.072c0.093,-0.32 0.192,-0.638 0.285,-0.958c0.061,-0.207 0.113,-0.417 0.172,-0.625c0.033,-0.116 0.075,-0.229 0.11,-0.344c0.03,-0.1 0.058,-0.2 0.085,-0.3c0.058,-0.209 0.115,-0.418 0.174,-0.626s0.118,-0.394 0.175,-0.591c0.045,-0.153 0.086,-0.307 0.131,-0.46c0.063,-0.215 0.128,-0.428 0.192,-0.642c0.036,-0.122 0.069,-0.246 0.1,-0.369c0.025,-0.088 0.05,-0.177 0.076,-0.265c0.059,-0.2 0.119,-0.4 0.177,-0.6c0.042,-0.143 0.081,-0.286 0.123,-0.429c0.062,-0.211 0.125,-0.421 0.187,-0.632c0.02,-0.068 0.036,-0.137 0.056,-0.205a0.411,0.411 0 0 1 0.045,-0.108a0.226,0.226 0 0 1 0.065,-0.047a0.271,0.271 0 0 1 0.048,0.072q0.105,0.357 0.206,0.715c0.061,0.218 0.117,0.438 0.179,0.656c0.036,0.126 0.079,0.25 0.117,0.375c0.03,0.1 0.059,0.2 0.086,0.3c0.06,0.215 0.115,0.431 0.177,0.646s0.129,0.42 0.191,0.631s0.117,0.43 0.179,0.645c0.036,0.126 0.079,0.249 0.117,0.375c0.029,0.1 0.056,0.19 0.083,0.286c0.059,0.211 0.116,0.424 0.178,0.635s0.133,0.433 0.2,0.65c0.034,0.116 0.062,0.233 0.1,0.349c0.064,0.221 0.13,0.442 0.193,0.663c0.015,0.051 0.023,0.1 0.035,0.156c0.022,0.094 0.052,0.126 0.145,0.122c0.255,-0.01 0.51,-0.025 0.765,-0.038c0.036,0 0.071,0 0.107,0c0.305,0 0.611,0 0.917,-0.006c0.244,-0.006 0.489,-0.026 0.733,-0.04l0.042,0l0.938,-0.02c0.235,0 0.469,-0.009 0.7,-0.016c0.188,0 0.377,-0.009 0.564,-0.023c0.585,-0.061 1.174,-0.051 1.766,-0.061c0.262,0 0.523,-0.036 0.785,-0.051c0.05,0 0.131,0 0.144,0.026c0.028,0.059 -0.034,0.1 -0.08,0.132c-0.338,0.229 -0.678,0.454 -1.017,0.683c-0.211,0.143 -0.419,0.292 -0.63,0.435c-0.293,0.2 -0.588,0.4 -0.882,0.6l-0.74,0.5q-0.419,0.282 -0.838,0.566l-0.818,0.557q-0.55,0.374 -1.1,0.745a0.36,0.36 0 0 0 -0.083,0.066a0.111,0.111 0 0 0 -0.023,0.084c0.042,0.136 0.089,0.27 0.136,0.4c0.064,0.181 0.13,0.36 0.2,0.54c0.057,0.157 0.115,0.313 0.171,0.47c0.07,0.193 0.137,0.387 0.207,0.58c0.06,0.167 0.125,0.331 0.185,0.5s0.122,0.347 0.184,0.521s0.123,0.333 0.182,0.5c0.09,0.25 0.176,0.5 0.266,0.752c0.063,0.172 0.132,0.343 0.2,0.515c0.03,0.079 0.058,0.159 0.086,0.239l0.4,1.143c0.1,0.277 0.2,0.554 0.3,0.831a0.307,0.307 0 0 1 0,0.1a0.266,0.266 0 0 1 -0.1,-0.025c-0.131,-0.1 -0.259,-0.2 -0.388,-0.3l-1,-0.78l-1.447,-1.129c-0.42,-0.327 -0.842,-0.652 -1.263,-0.979q-0.761,-0.591 -1.52,-1.185c-0.07,-0.055 -0.14,-0.11 -0.211,-0.164a0.125,0.125 0 0 0 -0.19,0c-0.334,0.26 -0.666,0.521 -1,0.781l-1.086,0.842l-1.019,0.791l-0.961,0.742c-0.4,0.309 -0.8,0.62 -1.194,0.929c-0.191,0.149 -0.381,0.3 -0.573,0.443a0.253,0.253 0 0 1 -0.085,0.022c0,-0.032 -0.02,-0.069 -0.01,-0.1c0.085,-0.236 0.178,-0.47 0.263,-0.706s0.163,-0.468 0.246,-0.7s0.182,-0.492 0.271,-0.739c0.063,-0.173 0.122,-0.348 0.185,-0.521s0.132,-0.359 0.2,-0.538c0.058,-0.16 0.113,-0.321 0.171,-0.481c0.09,-0.251 0.183,-0.5 0.273,-0.75c0.061,-0.17 0.117,-0.342 0.179,-0.512s0.133,-0.357 0.2,-0.537c0.058,-0.16 0.114,-0.321 0.171,-0.482s0.129,-0.352 0.193,-0.529c0.058,-0.16 0.117,-0.319 0.173,-0.48a0.094,0.094 0 0 0 -0.044,-0.118q-0.672,-0.45 -1.342,-0.905c-0.311,-0.212 -0.619,-0.427 -0.931,-0.638c-0.391,-0.264 -0.784,-0.525 -1.175,-0.79c-0.226,-0.153 -0.449,-0.311 -0.675,-0.464q-0.692,-0.469 -1.385,-0.936c-0.2,-0.133 -0.4,-0.264 -0.593,-0.395l-0.008,-0.001c-0.022,-0.042 -0.043,-0.084 -0.065,-0.125l0.112,-0.045l0.004,0.025z"/>
  </g>
 </g>
</svg>