<svg xmlns="http://www.w3.org/2000/svg" width="52.417" height="52.219" viewBox="0 0 52.417 52.219">
  <path d="M23.121,5.813c0-1.456-.012-2.911,0-4.366.012-1.1.273-1.5.908-1.441.894.088.807.79.809,1.4.01,2.469.005,4.939.006,7.409,0,.264-.012.53.005.793.057.848.155.869.969.588,2.365-.818,4.709-1.723,7.124-2.362a19.188,19.188,0,0,1,10.177-.166A8.129,8.129,0,0,1,48.939,12.6a9.591,9.591,0,0,1,.04,6.607c-.555,1.661-1.313,3.258-2.03,4.861-.44.985-.451,1.034.586,1.052,1.1.018,2.205.007,3.307.011.264,0,.595-.086.778.039.322.221.72.542.784.879.094.494-.326.784-.838.79a34.891,34.891,0,0,1-3.7-.007,4.332,4.332,0,0,0-4.245,1.879A46.458,46.458,0,0,1,28.631,40.623a24.288,24.288,0,0,1-2.76,1.267A1.463,1.463,0,0,0,24.834,43.5c.037,2.38.018,4.762.011,7.143,0,1.2-.26,1.657-.909,1.564-.945-.136-.792-.91-.8-1.548-.016-2.161,0-4.322-.022-6.483-.011-1.1-.035-1.1-1.11-.771a27.626,27.626,0,0,1-10.8,1.41c-4.2-.4-7.368-2.16-8.563-6.1-.82-2.7-.2-5.314.836-7.837.432-1.054,1-2.052,1.5-3.077.38-.774.311-.919-.542-.948-.925-.032-1.852-.007-2.778-.012a2.2,2.2,0,0,1-.913-.05c-.314-.161-.789-.545-.749-.742a1.649,1.649,0,0,1,.767-.889c.227-.139.6-.049.909-.049,1.367,0,2.734-.015,4.1.018a1.675,1.675,0,0,0,1.481-.7,43.435,43.435,0,0,1,10.056-9.475,38.5,38.5,0,0,1,4.267-2.637,2.332,2.332,0,0,0,1.568-2.546c-.121-1.312-.027-2.644-.027-3.966ZM34.072,25.121v.014c2.336,0,4.673.041,7.008-.012,2.388-.055,2.061.523,3.075-2.132a10.888,10.888,0,0,0,.472-6.362c-.741-3.257-3.092-5.054-6.173-5.868a15.572,15.572,0,0,0-5.868-.378,31.623,31.623,0,0,0-6.646,1.582,1.428,1.428,0,0,0-1.109,1.555c.041,3.438.008,6.876.02,10.314,0,1.183.1,1.275,1.288,1.282C28.783,25.131,31.428,25.121,34.072,25.121Zm-18.15,1.728c-2.026,0-4.053.048-6.077-.021a1.528,1.528,0,0,0-1.772,1.188,32.406,32.406,0,0,0-1.035,4.067,7.61,7.61,0,0,0,2.743,7.409,10.328,10.328,0,0,0,6.491,2.238,43.014,43.014,0,0,0,5.755-.519c.9-.106,1.079-.41,1.082-1.477q.017-5.88.012-11.759c0-1.054-.048-1.111-1.122-1.119C19.974,26.84,17.948,26.851,15.922,26.849Zm17.633,0c-2.511,0-5.022-.011-7.532,0-1.045.007-1.164.112-1.169,1.125q-.026,5.616,0,11.231c0,1.034.2,1.176,1.195.739,1.609-.7,3.23-1.408,4.758-2.268a32.09,32.09,0,0,0,10.5-9.263,8.183,8.183,0,0,0,.645-1.362,10.2,10.2,0,0,0-1.39-.2C38.224,26.837,35.889,26.848,33.555,26.849ZM16.309,25.118v.006c1.939,0,3.878-.009,5.817.005.618,0,1.008-.144,1-.874-.013-3.393,0-6.786,0-10.18,0-.576-.206-.823-.82-.492A33.06,33.06,0,0,0,10.17,24.121a3.291,3.291,0,0,0-.278.8,4.286,4.286,0,0,0,.864.184C12.607,25.126,14.458,25.118,16.309,25.118Z"/>
</svg>
