<svg xmlns="http://www.w3.org/2000/svg" width="56.313" height="36.162" viewBox="0 0 56.313 36.162">
  <path d="M25.315,36.138a4.65,4.65,0,0,1-2.676-.631c-.815-.422-1.774-.559-2.619-.935-1.125-.5-2.189-1.135-3.3-1.664a7.477,7.477,0,0,0-1.657-.555,7.49,7.49,0,0,1-3.16-1.487,12.07,12.07,0,0,1-1.245-1.148,13.172,13.172,0,0,0-3.286-2.163,12.8,12.8,0,0,1-1.478-1.048,16.75,16.75,0,0,1-2.023-1.648A16.665,16.665,0,0,1,.733,20.045a18.5,18.5,0,0,1-.706-2.392.707.707,0,0,1-.018-.3c.222-1.32.174-2.705.971-3.885a1.759,1.759,0,0,0,.269-.676,5.723,5.723,0,0,1,1.664-2.634,21.184,21.184,0,0,0,1.96-2.378,5.432,5.432,0,0,1,1.19-1.105c.215-.184.488-.3.687-.5a10.617,10.617,0,0,1,3.219-1.91,1.479,1.479,0,0,0,.467-.267A5.758,5.758,0,0,1,12.41,2.828c.442-.2.865-.443,1.318-.611.717-.265,1.453-.48,2.178-.724a4.934,4.934,0,0,0,.617-.253A6.889,6.889,0,0,1,17.9.8C18.834.555,19.826.67,20.713.423a35.214,35.214,0,0,1,4.233-.4,4.626,4.626,0,0,1,.911.006c.769.037,1.54.146,2.3.107A7.758,7.758,0,0,1,30.4.611a4.4,4.4,0,0,0,1,.229,6.862,6.862,0,0,1,2.293.509c.647.222,1.348.28,2.01.464.975.271,1.957.536,2.9.9A35.423,35.423,0,0,1,42.152,4.28a13.35,13.35,0,0,1,3.83,2.543c.3.322.757.5,1.032.838.616.75,1.165,1.555,1.736,2.341.131.18.233.379.359.562a44,44,0,0,0,3.212,3.881c.41.471.927.846,1.359,1.3a3.646,3.646,0,0,1,.579.853,9.091,9.091,0,0,0,1.55,2.167,2.041,2.041,0,0,1,.452.712c.18.515-.121.878-.652.759a2.553,2.553,0,0,1-.826-.468c-.461-.322-.884-.7-1.362-1a1.619,1.619,0,0,0-2.058.274,1.851,1.851,0,0,1-.967.589,3.665,3.665,0,0,0-1.573,1.1c-.1.087-.077.4-.01.562.146.359.35.673.111,1.089-.056.1.126.358.234.52.431.644.325,1.024-.419,1.282a1,1,0,0,0-.614.625c-.369.87-.626.992-1.536.807a.8.8,0,0,0-.525.17c-.044.029.038.271.086.407a3.9,3.9,0,0,1,.231.552c.1.547-.143.806-.7.788a2.8,2.8,0,0,1-1.96-.692,2.275,2.275,0,0,0-.887-.348c-.072-.022-.176.06-.266.094.051.1.079.227.158.291a3.12,3.12,0,0,0,.38.187q.806.488,1.6.988a.851.851,0,0,1,.21.217.626.626,0,0,1,.063.836c-.218.269-.514.2-.787.1-.438-.154-.862-.345-1.3-.489q-1.011-.331-2.037-.615a1.349,1.349,0,0,0-.443.03c.045.135.052.308.143.4.241.235.4.481.22.806a.7.7,0,0,1-.8.3c-.162-.02-.324-.035-.485-.059-.37-.056-.663-.066-.726.451-.04.326-.584.582-1,.542a2.489,2.489,0,0,1-.708-.168c-.443-.186-.853-.357-1.3.017a.639.639,0,0,1-.56-.054,12.874,12.874,0,0,1-1.067-.789,3.6,3.6,0,0,0-.372-.308c-.069-.04-.185,0-.28,0a.807.807,0,0,0,.075.255,12.779,12.779,0,0,1,.87,1.155c.287.5.07.876-.505.943a3.233,3.233,0,0,1-1.957-.249.914.914,0,0,0-.988.024.759.759,0,0,1-.8.044,1.449,1.449,0,0,0-1.673,1,.811.811,0,0,0,.09.407,2.259,2.259,0,0,1,.007,1.522c-.173.784-.778,1.1-1.269,1.544a1.074,1.074,0,0,1-.612.2C26.311,36.16,25.9,36.138,25.315,36.138ZM17.833,16.621l-.025-.1a5.425,5.425,0,0,0-1.734.461,25.443,25.443,0,0,0-2.487,2.133c-.312.28-.592.6-.879.9-.08.086-.193.2-.19.3.018.567-.158,1.2.441,1.605a3.036,3.036,0,0,0,.551.37c.677.265,1.359.525,2.053.74,1.179.364,2.37.689,3.553,1.038.466.137.922.31,1.39.438a8.642,8.642,0,0,0,2.808.48c1.071-.063,2.145-.082,3.216-.153a9.065,9.065,0,0,0,1.321-.231c.118-.026.215-.142.322-.217a1.516,1.516,0,0,0-.376-.114c-.345-.015-.692,0-1.038,0a4.466,4.466,0,0,1-2.923-1.025,26.906,26.906,0,0,0-2.2-1.731,2.618,2.618,0,0,1-1-1.457c-.311-.876-.666-1.737-1.024-2.6a1.329,1.329,0,0,0-1.3-.84C18.158,16.617,18,16.621,17.833,16.621Zm12.142,7.9c.124-.028.323-.066.518-.116.608-.156,1.212-.331,1.824-.47.666-.152,1.34-.269,2.009-.408.1-.02.179-.095.275-.126a10.569,10.569,0,0,1,1.5-.459,6.663,6.663,0,0,0,2.433-.709c.3-.184.542-.477.835-.687.839-.6,1.708-1.165,2.527-1.793a1.177,1.177,0,0,0,.448-.794c0-.374-.347-.612-.711-.74-.057-.02-.122-.013-.18-.03a4.037,4.037,0,0,1-1.821-.77.727.727,0,0,0-.894-.109c-.163.074-.512.055-.59-.054-.318-.445-.816-.415-1.243-.56a.609.609,0,0,0-.457.027,2.949,2.949,0,0,0-1.392,1.839,4.151,4.151,0,0,1-1.12,2.108,8.628,8.628,0,0,0-1.059,1.173,5.8,5.8,0,0,1-1.8,1.7,6.361,6.361,0,0,1-1.355.5,7.8,7.8,0,0,1-.781.169c.279.1.557.2.836.29A1.265,1.265,0,0,0,29.975,24.522Zm8.111,4.454c-.032-.01-.064-.021-.1-.028l-.018.045a.83.83,0,0,0,.1.029Z"/>
</svg>
