<svg width="40" height="48" xmlns="http://www.w3.org/2000/svg">
 <g id="Layer_1">
  <title>Layer 1</title>
  <g>
   <path fill="#39ff14" d="m36.3,26.791c1.014,0 2.029,-0.016 3.043,0.015c0.192,0.006 0.377,0.2 0.565,0.308c-0.162,0.151 -0.3,0.363 -0.49,0.44c-0.759,0.306 -1.545,0.546 -2.3,0.856a33.616,33.616 0 0 0 -3.311,1.441c-2.038,1.1 -2.629,2.4 -1.783,4.576a50.789,50.789 0 0 0 2.62,4.973a15.935,15.935 0 0 1 0.609,1.5a10.7,10.7 0 0 1 -1.3,-0.743c-1.567,-1.2 -3.1,-2.436 -4.666,-3.641a5.4,5.4 0 0 0 -1.007,-0.568c-1.888,-0.894 -3.291,-0.139 -3.382,1.96a33.643,33.643 0 0 0 0.319,3.873c0.04,0.542 -0.007,1.091 -0.014,1.636a12.034,12.034 0 0 1 -1.091,-1.01c-0.969,-1.136 -1.823,-2.382 -2.874,-3.432c-1.48,-1.479 -2.244,-1.331 -3.435,0.376a3.522,3.522 0 0 1 -0.715,0.6c-0.091,-0.308 -0.2,-0.612 -0.267,-0.924a2.63,2.63 0 0 1 0.01,-0.433c-0.107,-2.216 -1.278,-2.989 -3.094,-1.766c-2.593,1.746 -5.058,3.692 -7.491,5.659c-1.946,1.575 -3.764,3.313 -5.646,4.968a2.229,2.229 0 0 1 -0.6,0.266a2,2 0 0 1 0.219,-0.61c0.939,-1.164 1.921,-2.294 2.847,-3.468c2.18,-2.761 4.359,-5.524 6.487,-8.326a10.881,10.881 0 0 0 1.132,-2.174c0.423,-0.95 -0.029,-1.654 -1.081,-1.851c-1.221,-0.229 -2.257,0.364 -3.359,0.678c-0.4,0.113 -0.8,0.187 -1.2,0.278a6.591,6.591 0 0 1 0.756,-1.11c1.271,-1.238 2.581,-2.438 3.874,-3.662a2.873,2.873 0 0 0 0.378,-0.438c1.028,-1.461 0.921,-2.216 -0.568,-3.245c-0.628,-0.434 -1.366,-0.707 -2.031,-1.094a2.894,2.894 0 0 1 -0.559,-0.586a2.638,2.638 0 0 1 0.773,-0.509a9,9 0 0 1 1.3,-0.055c1.442,-0.105 2.149,-0.99 1.67,-2.363a33.515,33.515 0 0 0 -1.884,-4.207c-0.613,-1.2 -1.374,-2.32 -2.038,-3.492c-0.092,-0.161 0,-0.425 0,-0.64a2.012,2.012 0 0 1 0.5,0.26c0.729,0.706 1.41,1.463 2.165,2.138a38.379,38.379 0 0 0 3.427,2.878c1.788,1.258 2.712,0.971 3.535,-1.093c0.658,-1.65 1.121,-3.377 1.709,-5.057a6.918,6.918 0 0 1 0.659,-1.144a6.347,6.347 0 0 1 0.318,1.319c0.042,1.581 0.02,3.163 0.03,4.744a3.024,3.024 0 0 0 0.073,0.718c0.4,1.6 1.156,2.023 2.44,1.02a40.291,40.291 0 0 0 5.447,-4.937c3,-3.391 5.777,-6.981 8.676,-10.463a10.493,10.493 0 0 1 1.458,-1.23c-0.233,0.564 -0.424,1.151 -0.706,1.689c-2,3.8 -4.094,7.546 -5.975,11.4a27.882,27.882 0 0 0 -1.735,5.341c-0.379,1.487 0.4,2.341 1.944,2.229a21.3,21.3 0 0 0 2.671,-0.561a4.079,4.079 0 0 1 0.692,-0.023a2.241,2.241 0 0 1 -0.32,0.738c-0.4,0.409 -0.9,0.729 -1.315,1.13a12.163,12.163 0 0 0 -1.68,1.773c-0.819,1.194 -0.518,2.213 0.863,2.565a46.749,46.749 0 0 0 4.681,0.731l0.027,-0.221z"/>
  </g>
 </g>

</svg>