<svg width="38" height="31" xmlns="http://www.w3.org/2000/svg">
 <g id="Layer_1">
  <title>Layer 1</title>
  <g>
   <path fill="#39ff14" d="m26.35157,7.42582q-1.974,-1 -3.949,-1.992a19.344,19.344 0 0 0 -9.051,-2.301a9.687,9.687 0 0 0 -2.753,0.531c-2.627,0.841 -3.603,3.169 -3.214,5.679a14.362,14.362 0 0 0 2.9,6.384a31.974,31.974 0 0 0 12.492,9.983a19.048,19.048 0 0 0 9.016,2.075a6.816,6.816 0 0 0 3.494,-1a4.347,4.347 0 0 0 2.04,-2.93a2.941,2.941 0 0 1 0.4,-0.763a3.007,3.007 0 0 1 0.262,0.752a6.178,6.178 0 0 1 -4.397,6.689c-3.387,1.1 -6.729,0.545 -10.017,-0.46a40.076,40.076 0 0 1 -15.677,-9.358a31.864,31.864 0 0 1 -5.8,-7.17a13.483,13.483 0 0 1 -2.126,-7.712a5.618,5.618 0 0 1 2.328,-4.353a8.518,8.518 0 0 1 4.016,-1.522a19.483,19.483 0 0 1 8.708,1.13a36.465,36.465 0 0 1 10.743,5.61a5.319,5.319 0 0 1 0.633,0.672l-0.048,0.056z"/>
  </g>
 </g>

</svg>