<svg width="220.386" height="51.971" xmlns="http://www.w3.org/2000/svg">

 <g>
  <title>Layer 1</title>
  <g id="svg_1">
   <polygon fill="#39ff14" id="svg_2" points="39.428 7.467 39.428 7.469 39.433 7.475 39.428 7.467"/>
   <path fill="#39ff14" id="svg_3" d="m218.967,15.6c-0.159,-0.049 -0.3,-0.055 -0.455,-0.092c-0.535,-0.128 -1.063,-0.264 -1.131,0.046c-0.015,0.067 -0.307,0.009 -0.477,0c-0.247,-0.011 -0.511,-0.038 -0.747,-0.039s-0.456,0.038 -0.708,0.031c-0.867,-0.022 -1.748,-0.059 -2.614,-0.08a1.688,1.688 0 0 0 -0.375,0.062c-0.29,0.049 -0.568,0.11 -0.876,0.144a9.321,9.321 0 0 1 -2.383,0.131a1.561,1.561 0 0 0 -0.762,0.177c-0.254,0.081 -0.4,0.262 -0.737,0.26c-1.13,-0.007 -2.27,-0.014 -3.5,-0.133a24.583,24.583 0 0 0 -4.626,0.085c-1.127,0.09 -2.228,0.2 -3.357,0.3a1.727,1.727 0 0 1 -0.588,-0.094a2.037,2.037 0 0 0 -1.386,-0.016a6.328,6.328 0 0 1 -3.371,0.1a1.754,1.754 0 0 0 -1.262,0.051a1.671,1.671 0 0 1 -0.852,0.1a10.017,10.017 0 0 0 -1.4,-0.174c-0.909,0.134 -2.195,-0.1 -2.785,0.349a0.469,0.469 0 0 1 -0.331,0.041a9.73,9.73 0 0 0 -1.5,-0.3c-0.444,0.006 -0.628,0.326 -1.088,0.292a8.965,8.965 0 0 0 -2.052,0.118a2.474,2.474 0 0 1 -1.25,-0.147a1.8,1.8 0 0 0 -1.528,-0.159c-1.383,0.548 -3.4,0.42 -5.266,0.442a6.088,6.088 0 0 0 -1.739,0.116a2.276,2.276 0 0 1 -0.773,-0.06a11.243,11.243 0 0 0 -1.636,-0.229c-0.791,0.031 -1.456,0.214 -2.233,0.265a5.92,5.92 0 0 1 -1.69,-0.1a16.009,16.009 0 0 0 -4.29,-0.44a37.169,37.169 0 0 1 -4.147,0.012a2.9,2.9 0 0 0 -1.265,0.235a8.9,8.9 0 0 1 -1.919,0.275a0.641,0.641 0 0 1 -0.331,-0.091a0.989,0.989 0 0 0 -1.089,-0.112a5.683,5.683 0 0 1 -3.073,0.107a3.978,3.978 0 0 0 -0.72,-0.088a5.736,5.736 0 0 0 -0.952,0.08a6.2,6.2 0 0 1 -3.377,-0.034a5.782,5.782 0 0 0 -2.236,-0.252c-0.459,0.016 -0.9,0.056 -1.361,0.071c-2.2,0.075 -4.4,0.144 -6.6,0.22a0.865,0.865 0 0 0 -0.385,0.078a2.79,2.79 0 0 1 -1.659,0.141c-0.6,-0.066 -1.23,-0.176 -1.795,-0.179c-1.776,-0.01 -3.519,0.032 -5.329,-0.039c-2.588,-0.1 -5.021,0.093 -7.588,0.036c-1.494,-0.033 -2.785,0.338 -4.408,0.069a2.416,2.416 0 0 0 -0.5,0.035c-0.482,0.015 -0.966,0.027 -1.453,0.033c-0.293,0 -0.6,-0.021 -0.89,-0.011a28.9,28.9 0 0 1 -3.461,0.107a19.164,19.164 0 0 0 -2.786,0a11.325,11.325 0 0 1 -3.526,0.086a0.449,0.449 0 0 0 -0.141,0.012c-0.892,0.081 -1.781,0.171 -2.683,0.236a7.413,7.413 0 0 1 -0.825,-0.059c-0.569,-0.028 -1.141,-0.065 -1.7,-0.066a6.232,6.232 0 0 0 -2.56,0.276a0.134,0.134 0 0 1 -0.074,0c-1.129,-0.279 -1.854,0.421 -3,0.1a0.4,0.4 0 0 0 -0.261,0.058a2.265,2.265 0 0 1 -1.508,0a3.431,3.431 0 0 0 -1.686,0.092a15.276,15.276 0 0 1 -2.567,0.236a6.4,6.4 0 0 0 -1.165,-0.039c-0.932,0.279 -2.17,-0.109 -3.006,0.366c-0.075,0.042 -0.247,-0.022 -0.37,-0.022c-0.54,0 -1.092,-0.036 -1.616,0c-1.365,0.1 -2.671,0.351 -4.092,0.323c-0.692,-0.014 -1.352,0.1 -2.034,0.129c-1.872,0.088 -3.75,0.162 -5.625,0.247a1.751,1.751 0 0 0 -0.628,0.085a2.665,2.665 0 0 1 -1.513,0.093l-0.009,-0.011l0,0.012l-0.1,0l0.077,0.1l0,0.014l0.012,0a0.5,0.5 0 0 1 -0.123,0.048c-1.169,0.124 -2.338,0.252 -3.514,0.362a1.5,1.5 0 0 1 -0.664,-0.077c-0.18,-0.071 -0.463,-0.3 -0.442,-0.38a0.708,0.708 0 0 1 0.4,-0.381c0.216,-0.1 0.584,-0.048 0.714,-0.188a4.749,4.749 0 0 1 1.954,-1.03c0.294,-0.105 0.612,-0.262 0.395,-0.563a1.168,1.168 0 0 0 -0.828,-0.331a1.762,1.762 0 0 0 -0.976,0.471c-0.492,0.533 -1.6,0.346 -1.909,1.07c-0.01,0.024 -0.088,0.03 -0.135,0.024a4.039,4.039 0 0 0 -1.675,0.416a3.448,3.448 0 0 1 -0.733,0.033a5.231,5.231 0 0 1 0.379,-0.582c0.057,-0.068 0.231,-0.05 0.321,-0.1c0.639,-0.385 1.272,-0.772 1.891,-1.169c0.1,-0.065 0.13,-0.2 0.2,-0.3a1.76,1.76 0 0 1 0.276,-0.321c0.8,-0.653 1.9,-1.037 2.406,-1.932c0.05,-0.088 0.221,-0.118 0.339,-0.171c0.274,-0.123 0.567,-0.225 0.819,-0.37a0.5,0.5 0 0 1 0.763,0.225a6.247,6.247 0 0 1 0.518,1.134c0.14,0.448 0.007,0.521 -0.547,0.477c-0.2,-0.017 -0.545,-0.039 -0.58,0.043a1.393,1.393 0 0 0 -0.167,0.962c0.143,0.387 0.62,0.3 0.98,0.283a2.063,2.063 0 0 1 0.22,0.014l-0.007,0l0.159,0.054l0.032,-0.125l-0.01,0l0.215,-0.183l-0.009,0l0.354,-0.135l0.006,0.009c-0.064,-0.432 0.249,-0.637 0.6,-0.806a0.765,0.765 0 0 0 0.485,-1.071c-0.2,-0.568 0.088,-0.892 0.68,-1.064a0.917,0.917 0 0 0 0.483,-0.254c0.342,-0.489 1.224,-0.528 1.4,-1.147c0.014,-0.051 0.147,-0.081 0.235,-0.083a1,1 0 0 0 0.765,-0.445a3.065,3.065 0 0 1 1.431,-1.085a4.618,4.618 0 0 0 1.443,-0.767a1.2,1.2 0 0 1 1.152,-0.228c0.541,0.138 0.815,-0.012 0.947,-0.378a0.727,0.727 0 0 0 -0.255,-0.918c-0.308,-0.243 -1.119,-0.393 -1.349,-0.182c-0.406,0.374 -1.068,0.353 -1.581,0.55c-1.11,0.427 -2.182,0.912 -3.276,1.378c-0.9,0.383 -1.814,0.763 -2.715,1.161c-0.443,0.195 -0.86,0.424 -1.289,0.64a2.157,2.157 0 0 1 -0.388,0.2a6.854,6.854 0 0 0 -2.742,1.4a8.576,8.576 0 0 1 -1.7,1.257a18.41,18.41 0 0 0 -1.8,1.237c-0.085,0.06 -0.2,0.091 -0.292,0.145c-0.33,0.2 -0.657,0.394 -0.983,0.594c-0.11,0.067 -0.194,0.186 -0.32,0.206a3.021,3.021 0 0 0 -1.2,0.529a1.386,1.386 0 0 1 -1.011,0.053c-0.194,-0.067 -0.362,-0.463 -0.393,-0.706a1.286,1.286 0 0 1 0.2,-0.727a13.468,13.468 0 0 1 0.758,-1.22a8.881,8.881 0 0 1 0.6,-0.743c0.155,-0.182 0.347,-0.341 0.481,-0.533c0.573,-0.82 0.451,-1.084 -0.663,-1.6a0.685,0.685 0 0 0 -0.875,0.086a8.34,8.34 0 0 0 -0.737,0.783a1.533,1.533 0 0 0 -0.359,0.782a1.891,1.891 0 0 1 -1.458,1.73a6.118,6.118 0 0 0 -2.128,1.1a0.867,0.867 0 0 1 -0.244,0.112a1.668,1.668 0 0 1 -2.107,-0.818c-0.26,-0.529 -0.567,-1.042 -0.845,-1.56a5.132,5.132 0 0 1 -0.526,-1.032c-0.221,-0.853 -0.912,-1.61 -0.943,-2.478a0.487,0.487 0 0 0 -0.115,-0.221q-0.709,-0.99 -1.414,-1.962l0.005,0.007l-0.281,-0.453l0,0.008l0.047,-0.118l-0.009,0l-0.314,-0.334l0.008,0l-0.005,-0.009l-0.082,-0.134l-0.039,0.094l-0.01,0l-0.087,-0.141l0.129,0.04l0.007,0.01l0,-0.011l-0.143,-0.047l-0.051,-0.25a9.8,9.8 0 0 0 -1.524,-1.853a2.569,2.569 0 0 1 -0.355,-0.421a3.756,3.756 0 0 0 -0.473,-0.488c-0.388,-0.3 -0.8,-0.588 -1.2,-0.876a0.867,0.867 0 0 0 -1.255,0.093a0.838,0.838 0 0 0 -0.1,1.029a0.844,0.844 0 0 1 0.016,0.944a2.536,2.536 0 0 0 -0.282,0.666a0.624,0.624 0 0 0 0.077,0.529a3.287,3.287 0 0 1 0.712,1.836a5.055,5.055 0 0 0 1.437,2.153c0.538,0.6 0.819,1.273 1.284,1.893a21.848,21.848 0 0 1 1.168,1.853a5.348,5.348 0 0 0 1.3,1.558a0.432,0.432 0 0 1 0.146,0.222a3.531,3.531 0 0 0 1.024,1.643a0.591,0.591 0 0 1 0.057,0.878c-0.243,0.276 -0.58,0.121 -0.875,0a3.944,3.944 0 0 0 -1.887,-0.564c-0.147,0.013 -0.355,-0.154 -0.507,-0.266a17.751,17.751 0 0 0 -4.138,-2.458a2.08,2.08 0 0 0 -1.507,-0.134c-0.6,0.2 -1.1,0.458 -1.2,1.07a1.312,1.312 0 0 1 -0.205,0.386c-0.738,1.31 -0.18,2.445 1.5,2.914c0.786,0.219 1.6,0.352 2.4,0.532a4.167,4.167 0 0 1 2.311,1.289l-0.191,0.07l-0.049,0.127l0.009,0l0.048,-0.121l0.191,-0.068l-0.006,-0.008c0.307,0.031 0.721,0.455 0.877,-0.112a0.416,0.416 0 0 1 0.247,0.037a1.707,1.707 0 0 1 0.282,0.452c0.012,0.027 -0.179,0.162 -0.261,0.146c-0.465,-0.091 -0.923,-0.213 -1.383,-0.324c-0.595,0.159 -1.184,0.334 -1.788,0.472a14.105,14.105 0 0 0 -1.851,0.384a3.345,3.345 0 0 1 -1.575,0.228a7.866,7.866 0 0 0 -4.382,0.726a2.975,2.975 0 0 1 -1.7,0.3a5.66,5.66 0 0 0 -1.466,-0.054a3.459,3.459 0 0 1 -1.085,-0.1a2.412,2.412 0 0 0 -1.8,0.172a4.774,4.774 0 0 0 -2,2.7a0.821,0.821 0 0 0 0.554,1.031a1.648,1.648 0 0 0 1.263,0.024a2.37,2.37 0 0 1 0.88,-0.128c0.736,0.017 1.472,0.078 2.208,0.113a2.368,2.368 0 0 0 1.634,-0.435a1.244,1.244 0 0 1 1.425,-0.084a3.212,3.212 0 0 0 2.571,0.292a1.2,1.2 0 0 1 0.417,0.034c-0.025,0.149 0,0.339 -0.087,0.439c-0.172,0.188 -0.439,0.3 -0.621,0.486a1.518,1.518 0 0 1 -1.456,0.361a2.151,2.151 0 0 0 -1.234,0.178a2.666,2.666 0 0 1 -1.657,0.366c-0.745,-0.09 -1.086,0.328 -0.926,1s0.037,0.921 -0.577,1.218a8.448,8.448 0 0 0 -2.937,1.831a1.1,1.1 0 0 1 -0.326,0.2c-0.631,0.337 -1.274,0.66 -1.9,1.017a1.14,1.14 0 0 0 -0.487,0.472a2.317,2.317 0 0 1 -1.566,1.372a1.154,1.154 0 0 0 -0.7,1.269c0.032,0.476 0.414,0.689 0.838,0.831a1.016,1.016 0 0 0 1.25,-0.454a1.974,1.974 0 0 1 1.552,-0.948c0.164,-0.014 0.3,-0.188 0.469,-0.264a8.686,8.686 0 0 1 1.719,-0.746a2.057,2.057 0 0 0 1.28,-0.772a1.259,1.259 0 0 1 0.572,-0.292c0.218,-0.075 0.464,-0.082 0.679,-0.16c0.366,-0.133 0.678,-0.122 0.888,0.242a0.61,0.61 0 0 1 -0.35,0.864a2.818,2.818 0 0 0 -1.491,1.37c-0.111,0.163 -0.266,0.412 -0.414,0.418c-0.82,0.031 -1.136,0.671 -1.643,1.1a10.577,10.577 0 0 1 -2.816,2.175a2.961,2.961 0 0 0 -0.814,0.65c-1.434,1.336 -2.591,3 -4.383,4.027a2.149,2.149 0 0 0 -0.251,0.22c-1.014,0.833 -2.029,1.679 -3.066,2.515a4,4 0 0 0 -1.4,2.226c-0.094,0.383 -0.116,0.842 0.288,0.968a1.32,1.32 0 0 0 0.927,-0.26c0.482,-0.314 0.9,-0.724 1.358,-1.075c0.86,-0.663 1.74,-1.291 2.577,-1.964c1.371,-1.1 2.535,-2.449 4.238,-3.051a2.162,2.162 0 0 0 0.661,-0.484a25.455,25.455 0 0 1 3.822,-3.247a6.872,6.872 0 0 0 0.661,-0.575a8.115,8.115 0 0 1 0.942,-0.706a6.129,6.129 0 0 0 2.327,-1.935a1,1 0 0 1 0.508,-0.456c1.278,-0.339 1.831,-1.5 2.842,-2.151c0.809,-0.517 1.27,-1.482 2.242,-1.905c0.412,-0.18 0.75,-0.486 1.149,-0.692a13.889,13.889 0 0 0 1.755,-0.848c0.693,-0.5 1.241,-1.149 1.908,-1.666a4.712,4.712 0 0 1 2.233,-1.165a0.987,0.987 0 0 0 0.938,-0.654c0.136,-0.425 0.433,-0.551 0.921,-0.467a0.949,0.949 0 0 1 0.793,0.735c0.083,0.252 0.178,0.5 0.268,0.756l0.278,0.777a6.859,6.859 0 0 1 -0.8,-0.406c-0.422,-0.282 -0.633,-0.287 -0.905,0.065a2.341,2.341 0 0 0 -0.212,1.727c0.008,0.1 0.244,0.262 0.392,0.3a1.489,1.489 0 0 1 1.016,0.823a1.125,1.125 0 0 0 1.905,0.244c0.345,-0.467 0.258,-0.731 -0.4,-1.41a2.424,2.424 0 0 1 -0.315,-0.553c0.2,0.014 0.395,0.026 0.593,0.044a1.259,1.259 0 0 1 0.156,0.037c1.019,0.221 1.246,0.118 1.446,-0.784c0.095,-0.428 0.383,-0.515 0.8,-0.55a4.451,4.451 0 0 0 1.225,-0.248c0.636,-0.249 0.952,-0.08 1.068,0.593a5.366,5.366 0 0 0 0.362,1.038a9.182,9.182 0 0 0 1,2.346a0.439,0.439 0 0 1 0.036,0.293a1.1,1.1 0 0 0 0.418,0.881a1.843,1.843 0 0 1 0.351,0.82c0.126,0.494 0.148,1.005 0.315,1.495c0.3,0.879 1.22,1.584 1.181,2.61c-0.009,0.229 0.356,0.576 0.617,0.794c0.978,0.821 1.351,1.974 2.046,2.966s0.975,2.2 2.01,3.089a19.259,19.259 0 0 1 1.439,1.666c0.7,0.76 1.384,0.707 1.754,-0.088a1.932,1.932 0 0 0 -0.145,-1.545a51.55,51.55 0 0 1 -2.052,-5.253a1.153,1.153 0 0 0 -0.299,-0.514a1.938,1.938 0 0 1 -0.57,-1.412a4.492,4.492 0 0 0 -0.312,-1.209c-0.27,-0.7 -0.641,-1.39 -0.863,-2.09a2.811,2.811 0 0 0 -0.843,-1.357a6.052,6.052 0 0 1 -1.86,-3.1a2.37,2.37 0 0 0 -0.246,-0.632c-0.574,-0.926 -1.213,-1.82 -1.715,-2.749a1.478,1.478 0 0 1 -0.107,-1.2c0.177,-0.368 0.728,-0.222 1.183,-0.1a4.067,4.067 0 0 0 1.159,0.191c0.9,-0.037 1.645,0.572 2.492,0.738a0.612,0.612 0 0 1 0.259,0.189a7.261,7.261 0 0 0 2.956,1.532a0.977,0.977 0 0 0 1.079,-0.083l-0.012,0l0.58,-0.231l-0.013,0.006l0.029,0.026l-0.012,-0.023c0.544,0.108 1.1,0.171 1.385,0.782a3.858,3.858 0 0 0 2.487,1.8c0.179,0.064 0.555,-0.009 0.579,-0.113c0.131,-0.55 0.612,-0.733 1.061,-0.993c0.813,-0.47 0.607,-1.54 -0.373,-2.036a2.223,2.223 0 0 1 -0.894,-0.792a1.492,1.492 0 0 0 -1.7,-0.755a3.755,3.755 0 0 1 -0.752,0.058c-0.687,-0.046 -0.975,-0.366 -0.9,-0.945c0.045,-0.375 0.319,-0.477 0.713,-0.488c0.9,-0.024 1.8,-0.053 2.692,-0.108c0.185,-0.011 0.32,-0.167 0.5,-0.215a1.22,1.22 0 0 1 0.681,-0.09c1.251,0.486 2.037,-0.115 2.915,-0.437a1.834,1.834 0 0 1 0.944,-0.188a9.329,9.329 0 0 0 1.512,0.017c0.394,-0.019 0.759,-0.126 1.153,-0.15c0.969,-0.057 1.947,-0.086 2.919,-0.133a0.6,0.6 0 0 0 0.335,-0.1a2.779,2.779 0 0 1 1.552,-0.394c0.587,-0.062 1.159,-0.159 1.739,-0.236q1.539,-0.2 3.079,-0.4c0.072,-0.009 0.157,0.011 0.229,0c0.759,-0.106 1.531,-0.19 2.269,-0.332a8.107,8.107 0 0 0 2.35,-0.409c0.033,-0.018 0.1,0.006 0.151,0c0.484,-0.045 0.966,-0.093 1.449,-0.137a3.061,3.061 0 0 1 0.94,-0.064a1.446,1.446 0 0 0 1.453,-0.379a4.721,4.721 0 0 0 1.306,-0.057a3.433,3.433 0 0 1 2.092,0.069a4.2,4.2 0 0 0 2.642,-0.089a4.945,4.945 0 0 1 2.284,-0.2c0.767,0.067 1.505,0.036 2.256,0.047a4.477,4.477 0 0 1 2.943,-0.713a16.574,16.574 0 0 0 2.014,0.082c1.158,-0.166 2.416,-0.174 3.561,-0.354a4.79,4.79 0 0 1 2.4,0.283a2.648,2.648 0 0 0 2.062,0.04a4.6,4.6 0 0 1 1.605,-0.42c1.009,-0.079 2.083,-0.05 3.128,-0.071a0.962,0.962 0 0 0 0.413,-0.062a3.871,3.871 0 0 1 2.494,-0.047a3.638,3.638 0 0 0 1.424,0.035c0.4,-0.084 0.751,-0.224 1.153,-0.3a5.12,5.12 0 0 1 1,-0.078c1.106,0.013 2.225,0.049 3.335,0.067a2.6,2.6 0 0 0 0.4,-0.077a11.3,11.3 0 0 1 1.469,-0.162c1,0 2.042,0.062 3.065,0.093a0.9,0.9 0 0 0 0.352,-0.034a1.514,1.514 0 0 1 1.5,0.179a1.719,1.719 0 0 0 0.72,0.128a19.433,19.433 0 0 0 5.494,-0.372q1.863,-0.433 3.765,-0.813a3.233,3.233 0 0 1 1.1,-0.019a14.388,14.388 0 0 0 5,0.077a4.186,4.186 0 0 1 1.1,0.123c0.3,0.042 0.721,0.2 0.877,0.128a2.109,2.109 0 0 1 1.514,-0.028a0.944,0.944 0 0 0 0.532,0.015a7.788,7.788 0 0 1 2.114,-0.177c1.744,-0.16 3.458,-0.352 5.182,-0.53a14.714,14.714 0 0 1 2.248,-0.21a36.77,36.77 0 0 0 7.227,-0.387a3.834,3.834 0 0 1 1.345,0.137a3.764,3.764 0 0 0 1.73,0.132a4.173,4.173 0 0 1 2.37,0.1a3.323,3.323 0 0 0 1.447,0.15a11.5,11.5 0 0 0 1.424,-0.577a3.46,3.46 0 0 1 0.965,-0.081c0.472,0 0.972,0.03 1.459,0.045c0.255,0.007 0.5,0 0.759,0.017c0.5,0.029 1.042,0.115 1.49,0.093c1.4,-0.069 2.758,-0.18 4.136,-0.27c0.757,-0.05 1.525,-0.088 2.278,-0.142c0.188,-0.013 0.321,-0.081 0.5,-0.1a2.386,2.386 0 0 1 0.863,-0.027a5.908,5.908 0 0 0 2.725,0.07a3.643,3.643 0 0 1 0.7,0.026a6.813,6.813 0 0 0 0.919,0.014c0.9,-0.109 1.772,-0.239 2.646,-0.368c0.611,-0.09 1.164,-0.233 1.818,-0.28a11.3,11.3 0 0 1 3.33,-0.1a0.992,0.992 0 0 0 0.277,-0.023c0.62,-0.032 1.2,-0.1 1.872,-0.084a7.222,7.222 0 0 0 2.5,-0.2a5.939,5.939 0 0 1 3.432,0.013c0.374,0.087 0.837,0.211 0.713,-0.092c-0.206,-0.5 0.323,-0.462 0.939,-0.352a3.918,3.918 0 0 0 1.965,-0.04a3.6,3.6 0 0 1 1.988,-0.009a1.415,1.415 0 0 0 1.109,-0.176c0.169,-0.125 -0.012,-0.462 -0.037,-0.7c-0.445,-0.119 -0.885,-0.268 -1.318,-0.401zm-157.267,1.726l-0.14,-0.052l0.17,-0.063l-0.03,0.115zm1.2,-4.226c0.035,-0.112 0.206,-0.176 0.4,-0.32c0.113,0.229 0.254,0.393 0.212,0.461c-0.063,0.1 -0.255,0.135 -0.392,0.2c-0.083,-0.123 -0.246,-0.268 -0.22,-0.341zm-22.88,-4.842l-0.038,0.1a0.3,0.3 0 0 1 0,-0.079c-0.002,-0.012 0.018,-0.016 0.038,-0.021zm-14.754,18.171a1.966,1.966 0 0 0 -1.335,0.331c-0.163,0.115 -0.486,0.047 -0.737,0.062l0,-0.154c-0.321,-0.055 -0.64,-0.125 -0.963,-0.159s-0.56,-0.123 -0.5,-0.455s0.308,-0.439 0.659,-0.394a0.7,0.7 0 0 1 0.215,0.064a2.114,2.114 0 0 0 1.381,0.045a4.184,4.184 0 0 1 1.389,0.115c0.146,0.027 0.257,0.239 0.385,0.366c-0.17,0.063 -0.335,0.189 -0.494,0.179zm-3.952,8.952c-0.016,0 -0.035,-0.02 -0.053,-0.032l0.073,-0.065l0.028,0.056c-0.016,0.015 -0.03,0.038 -0.048,0.041zm1.986,-0.821c-0.068,0.137 -0.263,0.215 -0.4,0.32l-0.171,-0.091c0.015,-0.171 -0.034,-0.393 0.061,-0.5c0.117,-0.132 0.356,-0.167 0.542,-0.245a1.289,1.289 0 0 1 -0.032,0.516zm26.05,-4.51a2.156,2.156 0 0 1 -0.22,-0.467c-0.009,-0.029 0.135,-0.079 0.208,-0.119c0.1,0.157 0.2,0.314 0.332,0.522a1.956,1.956 0 0 1 -0.319,0.064l-0.001,0zm3.516,6.128a2.765,2.765 0 0 1 0.588,0.953c0.387,0.829 0.749,1.671 1.114,2.521c0.1,0.224 0.129,0.466 0.229,0.691c0.143,0.319 0.314,0.632 0.489,0.944c0.095,0.17 0.3,0.333 0.315,0.49a1.912,1.912 0 0 1 -0.141,0.634c-0.2,-0.138 -0.49,-0.247 -0.573,-0.419a14.8,14.8 0 0 1 -0.937,-2.219a4.8,4.8 0 0 0 -1.121,-1.915a3.866,3.866 0 0 1 -1.073,-1.8a2.261,2.261 0 0 0 -0.292,-0.563c-0.09,-0.163 -0.249,-0.326 -0.267,-0.483a3.7,3.7 0 0 0 -0.59,-2.012c-0.116,-0.153 -0.024,-0.422 -0.027,-0.654l0.16,-0.2a1.365,1.365 0 0 1 0.278,0.245a1.16,1.16 0 0 1 0.1,0.36a1.063,1.063 0 0 0 0.052,0.291c0.587,1.019 0.638,2.233 1.697,3.136l-0.001,0zm92.026,-17.008a0.356,0.356 0 0 1 -0.143,0.009c-1.189,0.014 -2.391,0.009 -3.56,0.051a3.711,3.711 0 0 0 -1.1,0.234a1.239,1.239 0 0 1 -1.06,-0.132a2.21,2.21 0 0 0 -1.628,-0.252a11.551,11.551 0 0 1 -2.032,0.31a18.541,18.541 0 0 1 -2.03,-0.163a2.209,2.209 0 0 0 -0.742,-0.008a11.654,11.654 0 0 1 -3.29,0.111a12.379,12.379 0 0 0 -1.247,0.127c-0.114,0.014 -0.19,0.084 -0.308,0.089c-0.924,0.035 -1.858,0.054 -2.78,0.092a27.537,27.537 0 0 0 -2.882,0.169a7.256,7.256 0 0 1 -1.637,-0.019a14.769,14.769 0 0 0 -1.547,0c-0.366,0.008 -0.72,0.039 -1.085,0.05a2.454,2.454 0 0 0 -0.529,-0.013a4.069,4.069 0 0 1 -2.233,0.094a0.493,0.493 0 0 0 -0.279,0.03c-0.559,0.225 -1.134,0.435 -1.658,0.7a1.383,1.383 0 0 1 -1.071,0.019a9.427,9.427 0 0 0 -1.935,-0.487a10.689,10.689 0 0 0 -2.616,0.13a5.329,5.329 0 0 1 -1.861,-0.024a2.221,2.221 0 0 0 -1.315,0.133a3.246,3.246 0 0 1 -2.535,0.327a0.52,0.52 0 0 0 -0.3,-0.014a10.675,10.675 0 0 1 -2.565,0.341a3.963,3.963 0 0 1 -1.118,-0.031a1.624,1.624 0 0 0 -1.3,0.226a2.875,2.875 0 0 1 -2.58,0.356a5.873,5.873 0 0 0 -3.947,0.026a1.235,1.235 0 0 1 -0.418,0.064c-0.9,0 -1.808,-0.026 -2.694,0a2.288,2.288 0 0 0 -0.731,0.26a2.41,2.41 0 0 1 -0.662,0.252c-0.916,0.076 -1.894,0.034 -2.764,0.191a7.426,7.426 0 0 1 -1.68,0.386c-0.5,-0.011 -1,0.029 -1.509,-0.028c-0.4,-0.045 -0.705,-0.03 -0.851,0.268s-0.448,0.374 -0.845,0.3a1.43,1.43 0 0 0 -1.245,0.318a2.117,2.117 0 0 1 -2.311,0.308a1.166,1.166 0 0 0 -1.262,0.085a0.818,0.818 0 0 1 -0.927,-0.017c-0.431,-0.216 -0.759,-0.246 -0.952,0.113c-0.165,0.306 -0.518,0.349 -0.9,0.188a2.89,2.89 0 0 0 -3.15,0.365a1.242,1.242 0 0 1 -0.687,0.078c-0.51,-0.024 -1.029,-0.1 -1.538,-0.119q-1.065,-0.046 -2.119,-0.045a1.112,1.112 0 0 0 -0.523,0.146a2.215,2.215 0 0 1 -1.578,0.178c-0.818,-0.167 -1.307,0.121 -1.13,0.856c0.157,0.65 0.134,1.4 0.939,1.94a0.524,0.524 0 0 1 0.172,0.488a0.609,0.609 0 0 1 -0.513,0.263a5.515,5.515 0 0 0 -1.5,0.048a1.506,1.506 0 0 1 -1.566,-0.831a2.043,2.043 0 0 0 -1.24,-0.811a12.746,12.746 0 0 0 -1.6,-0.483a3.1,3.1 0 0 0 -1.266,-0.027a2,2 0 0 1 -1.629,-0.255a11.554,11.554 0 0 0 -1.271,-0.643c-0.156,-0.069 -0.429,-0.128 -0.51,-0.061a6.273,6.273 0 0 0 -0.786,0.811c-0.279,0.327 -0.2,0.673 0.035,1.086c0.434,0.758 0.079,1.161 -0.839,1.008c-0.308,-0.051 -0.613,-0.135 -0.92,-0.2a1.493,1.493 0 0 0 -1.657,-0.03a1.259,1.259 0 0 1 -1.842,-0.5c-0.134,-0.21 -0.225,-0.44 -0.372,-0.64a1.327,1.327 0 0 0 -1.612,-0.55a10.212,10.212 0 0 0 -1.1,0.525c-0.409,0.193 -0.825,0.376 -1.238,0.564c-0.088,0.04 -0.2,0.061 -0.259,0.125c-0.891,1.015 -2.44,1.241 -3.429,2.173c-0.334,0.316 -0.7,0.143 -1.028,-0.141c-0.047,-0.04 -0.14,-0.037 -0.212,-0.053a0.6,0.6 0 0 0 -0.023,0.186c0.041,0.221 0.215,0.519 0.121,0.649a2.985,2.985 0 0 1 -1.044,1.045a4.18,4.18 0 0 0 -1.294,1.016a5.4,5.4 0 0 1 -1.738,1.118a2.115,2.115 0 0 0 -1.27,0.965a1.657,1.657 0 0 1 -0.387,0.441c-0.436,0.407 -0.875,0.818 -1.336,1.207a2.972,2.972 0 0 1 -0.57,0.3a2.205,2.205 0 0 1 -0.094,-0.669c0.057,-0.339 0.249,-0.653 0.295,-0.99c0.09,-0.661 -0.167,-0.969 -0.894,-1.086c-0.333,-0.054 -0.68,0.006 -1.018,-0.022a3.894,3.894 0 0 1 -0.633,-0.155c0.111,-0.2 0.168,-0.462 0.342,-0.586c0.644,-0.461 1.327,-0.872 1.983,-1.309c0.122,-0.08 0.188,-0.229 0.31,-0.308a2.5,2.5 0 0 1 0.823,-0.449a4.187,4.187 0 0 0 1.744,-0.814a3.346,3.346 0 0 1 1.285,-0.531a1.209,1.209 0 0 0 0.91,-0.523a5.447,5.447 0 0 1 0.439,-0.552a1.068,1.068 0 0 1 1.109,-0.432a2.94,2.94 0 0 0 2.165,-0.613c0.558,-0.329 0.427,-0.968 -0.25,-1.164a3.449,3.449 0 0 0 -1.345,-0.08a2.67,2.67 0 0 1 -1.483,-0.146a2.077,2.077 0 0 0 -1.557,-0.067a2.467,2.467 0 0 1 -0.885,0.1a3.642,3.642 0 0 0 -1.923,0.2a0.623,0.623 0 0 1 -0.44,0.028a0.684,0.684 0 0 1 -0.365,-0.3c-0.034,-0.077 0.088,-0.244 0.189,-0.317a2.378,2.378 0 0 1 0.467,-0.2q0.6,-0.259 1.2,-0.521c0.044,-0.019 0.08,-0.066 0.125,-0.069c1.037,-0.077 1.946,-0.613 3.038,-0.5a3.153,3.153 0 0 0 0.725,-0.08c0.29,-0.04 0.582,-0.075 0.867,-0.13a3.318,3.318 0 0 0 0.981,-0.246a1.673,1.673 0 0 1 1.278,-0.168a4.3,4.3 0 0 0 2.155,0a1.5,1.5 0 0 0 0.526,-0.2a1.719,1.719 0 0 1 1.279,-0.371c0.369,0.026 0.733,-0.06 0.8,-0.415c0.08,-0.4 0.168,-0.85 -0.314,-1.164a5.136,5.136 0 0 0 -1.208,-0.6a13.95,13.95 0 0 1 -3.445,-1.421a6.108,6.108 0 0 0 -1.407,-0.436c-0.447,-0.145 -0.892,-0.3 -1.326,-0.472c-0.341,-0.134 -0.588,-0.35 -0.548,-0.7a0.754,0.754 0 0 1 0.811,-0.569a2.241,2.241 0 0 1 1.36,0.466a2.2,2.2 0 0 0 1.115,0.5a0.972,0.972 0 0 1 0.558,0.3a4.068,4.068 0 0 0 1.808,1.075q1.161,0.414 2.335,0.81a1.406,1.406 0 0 0 1.131,-0.089a7.454,7.454 0 0 1 0.722,-0.268a0.962,0.962 0 0 0 0.59,-1.254c-0.118,-0.308 -0.219,-0.618 -0.327,-0.926c-0.029,-0.082 -0.034,-0.184 -0.1,-0.242c-0.7,-0.663 -0.792,-1.513 -1.229,-2.243a13.489,13.489 0 0 0 -1.088,-1.5a1.613,1.613 0 0 0 -0.549,-0.312c-0.581,-0.275 -0.623,-0.427 -0.24,-0.826a1.729,1.729 0 0 0 0.2,-0.329a3,3 0 0 1 -0.4,-0.088a1.5,1.5 0 0 1 -0.552,-0.246a18.051,18.051 0 0 1 -1.434,-1.689a6.172,6.172 0 0 1 -0.677,-1.361c-0.2,-0.509 -0.727,-0.952 -0.587,-1.523a0.185,0.185 0 0 0 -0.065,-0.16c-0.593,-0.478 -0.121,-0.823 0.128,-1.177a0.528,0.528 0 0 1 0.435,-0.066a3.354,3.354 0 0 1 0.828,0.445a0.871,0.871 0 0 1 0.349,0.524a2.657,2.657 0 0 0 0.922,1.639a4.984,4.984 0 0 1 0.377,0.5c0.357,0.469 0.686,0.957 1.091,1.405a1.107,1.107 0 0 1 0.4,0.8a1.975,1.975 0 0 0 0.175,0.626c0.049,0.153 0.168,0.315 0.151,0.457a2.391,2.391 0 0 0 0.519,1.572q0.764,1.162 1.519,2.353a1.79,1.79 0 0 1 0.2,0.479a1.6,1.6 0 0 0 1.718,1.2a13.54,13.54 0 0 0 2.017,-0.1a5.841,5.841 0 0 0 1.081,-0.51a1.2,1.2 0 0 1 0.721,-0.072c0.131,0.04 0.258,0.345 0.269,0.524c0.048,0.743 0.245,1.068 1.088,1.364a7.548,7.548 0 0 0 1.621,0.336c0.624,0.073 0.635,0.051 0.68,0.569c0.1,1.187 0.539,1.39 1.8,1.124a14.619,14.619 0 0 1 2.725,-0.063c0.244,0 0.493,0.016 0.73,-0.006c0.727,-0.066 1.44,-0.184 2.175,-0.214c0.983,-0.04 1.983,-0.018 2.977,-0.023a0.691,0.691 0 0 0 0.217,-0.017a25.268,25.268 0 0 1 4.487,-0.73c0.895,-0.151 1.947,0.02 2.9,-0.126c0.535,-0.082 1.19,0.072 1.665,-0.2a0.3,0.3 0 0 1 0.206,-0.037c1,0.266 1.76,-0.163 2.687,-0.107a1.009,1.009 0 0 0 0.5,-0.029c0.494,-0.322 1.154,-0.132 1.771,-0.118c0.993,0.024 1.964,-0.034 2.941,-0.066c0.364,-0.012 0.719,-0.05 1.081,-0.07a3.752,3.752 0 0 0 0.661,-0.024a7.533,7.533 0 0 1 2.6,-0.122a13.942,13.942 0 0 0 2.579,-0.2c1.572,-0.139 3.139,-0.282 4.712,-0.409a7.074,7.074 0 0 1 0.971,0.025c0.4,0.023 0.83,0.131 1.116,-0.094c0.075,-0.06 0.274,-0.027 0.423,-0.012c0.408,0.043 0.822,0.108 1.231,0.149a11.459,11.459 0 0 0 3.807,-0.235a1.79,1.79 0 0 1 0.664,0.006a2.67,2.67 0 0 0 1.777,-0.08a0.412,0.412 0 0 1 0.2,-0.038c1.115,0.018 2.232,0.041 3.348,0.06c0.248,0 0.489,-0.008 0.736,-0.006c0.517,0 1.039,0.022 1.553,0.019c0.409,0 0.807,-0.029 1.212,-0.041a10.1,10.1 0 0 1 1.294,-0.023a3.3,3.3 0 0 0 1.621,-0.094a3.054,3.054 0 0 1 1.4,0.1a1.683,1.683 0 0 0 0.992,0.017a4.237,4.237 0 0 1 1.171,0.022c0.412,0 0.811,-0.027 1.208,-0.056c0.141,-0.01 0.244,-0.089 0.388,-0.089a18.666,18.666 0 0 1 3.632,-0.135a6.873,6.873 0 0 0 1.516,-0.046a17.409,17.409 0 0 1 2.871,-0.029a21.66,21.66 0 0 0 2.4,0.026c0.374,0 0.749,0 1.139,0.038a2.644,2.644 0 0 0 1.461,-0.106a2.369,2.369 0 0 1 1.2,0.115c0.551,0.137 1.045,0.254 1.325,-0.033a0.454,0.454 0 0 1 0.368,-0.093c1.242,0.208 2.171,-0.2 3.561,0.27c0.461,0.156 0.9,0.136 1.108,-0.145c0.086,-0.116 0.376,-0.119 0.6,-0.131a14.292,14.292 0 0 1 1.6,-0.032a9.614,9.614 0 0 1 1.6,0.226a1.641,1.641 0 0 0 1.42,-0.127a2.651,2.651 0 0 1 2.135,0.309a0.8,0.8 0 0 1 0.3,0.275c0.048,0.064 -0.083,0.105 -0.16,0.148zm4.266,-0.286a2.24,2.24 0 0 0 -1.809,0.1a0.286,0.286 0 0 1 -0.2,0.02c-0.318,-0.072 -0.64,-0.158 -0.961,-0.24c-0.056,-0.332 0.405,-0.157 0.643,-0.2c0.322,-0.057 0.641,-0.118 0.978,-0.157c0.354,-0.041 0.729,-0.058 1.137,-0.089l0.6,0.453c-0.128,0.04 -0.235,0.147 -0.388,0.113zm5.069,-0.084a2.57,2.57 0 0 1 -0.519,-0.292l0.4,-0.084l0.5,0.3c-0.125,0.027 -0.235,0.112 -0.381,0.076zm3.608,-0.024c0.11,0.3 -0.184,0.27 -0.675,0.136l-0.418,-0.3a6.083,6.083 0 0 1 0.745,-0.113a0.926,0.926 0 0 1 0.348,0.277zm3.807,-0.213a3.9,3.9 0 0 1 -0.442,-0.247a0.551,0.551 0 0 1 0.244,-0.032a4.287,4.287 0 0 1 0.527,0.23c-0.181,0.031 -0.258,0.079 -0.329,0.049z"/>
   <polygon fill="#39ff14" id="svg_4" points="101.435 22.452 101.431 22.452 101.426 22.456 101.435 22.452"/>
   <path fill="#39ff14" id="svg_5" d="m131.567,32.643c-0.484,-0.747 -0.931,-1.493 -1.411,-2.23a1.394,1.394 0 0 0 -1.606,-0.774a2.524,2.524 0 0 0 -0.984,0.536c-0.421,0.367 -0.75,0.81 -1.149,1.2c-0.659,0.643 -1.607,0.483 -2.681,-0.465c-0.455,-0.4 -0.816,-0.554 -1.231,-0.4a2.049,2.049 0 0 1 -1.465,-0.2l-2.752,-1.185a10.438,10.438 0 0 0 -1.385,-0.159c-0.666,0.024 -1.289,0.128 -1.936,0.19a9.884,9.884 0 0 1 -3.333,0.032a2.829,2.829 0 0 0 -1.027,-0.034c-0.483,0.078 -0.581,0.449 -0.538,0.874c0.039,0.395 0.425,0.64 0.838,0.819a2.033,2.033 0 0 1 1.157,1.167a1.62,1.62 0 0 0 1.2,0.986a9.463,9.463 0 0 0 2.657,0.613a1.362,1.362 0 0 1 0.517,0.125c0.957,0.4 1.915,0.838 2.881,1.21a2.06,2.06 0 0 0 1.148,0.2c0.488,-0.209 1.04,-0.475 1.171,-0.916c0.206,-0.691 0.666,-0.973 1.6,-0.848a8.117,8.117 0 0 1 1.166,0.175a2.848,2.848 0 0 0 1.563,0.15a1.9,1.9 0 0 1 1.732,0.519c0.335,0.26 0.711,0.482 1.07,0.721a10.252,10.252 0 0 1 0.892,0.6c0.79,0.665 1.306,0.753 1.768,0.3a2.239,2.239 0 0 1 0.672,-0.458c0.784,-0.344 0.8,-1.091 0.021,-2.028a8.123,8.123 0 0 1 -0.555,-0.72zm-11.023,0.006c0.029,0.6 -0.673,0.977 -1.477,0.741c-0.756,-0.221 -1.515,-0.493 -2.6,-0.853c-0.477,-0.133 -1.282,-0.346 -2.086,-0.59a2.566,2.566 0 0 1 -0.739,-0.367c-0.393,-0.288 -0.436,-0.588 -0.059,-0.646c0.792,-0.122 1.62,-0.19 2.448,-0.252c0.326,-0.025 0.726,0.073 1.036,0.028a4.092,4.092 0 0 1 2.014,0.451c0.682,0.277 1.442,1.071 1.463,1.488zm9.207,0.251c0.1,0.4 -0.131,0.457 -0.9,0.2c-0.108,-0.083 -0.471,-0.275 -0.56,-0.456c-0.077,-0.158 0.1,-0.361 0.261,-0.443a3.737,3.737 0 0 1 0.83,-0.2a6.642,6.642 0 0 1 0.369,0.899z"/>
   <path fill="#39ff14" id="svg_6" d="m96.415,26.242c-0.059,-0.183 -0.243,-0.492 -0.384,-0.537a4.109,4.109 0 0 0 -1.716,-0.382a7.145,7.145 0 0 1 -2.057,0.121a1.566,1.566 0 0 0 -1.356,0.49c-0.605,0.717 -0.184,1.647 0.2,2.576c0.239,0.579 0.547,1.158 0.793,1.744a1.185,1.185 0 0 0 0.845,0.771a5.129,5.129 0 0 0 1.057,0.144a3.241,3.241 0 0 1 1.8,0.369c1.258,0.472 1.884,0.21 1.992,-0.726a8.871,8.871 0 0 1 0.3,-1.37a0.772,0.772 0 0 0 -0.209,-0.92a4.273,4.273 0 0 1 -1.265,-2.28zm-0.506,3.409a2.228,2.228 0 0 1 -2.255,-0.329a1.937,1.937 0 0 1 -0.3,-0.584c0.277,-0.31 0.06,-0.5 -0.24,-0.713a0.97,0.97 0 0 1 -0.338,-0.364c-0.078,-0.212 -0.186,-0.515 -0.079,-0.61s0.461,-0.038 0.71,0.02c0.448,0.1 0.9,0.256 1.351,0.387a2.007,2.007 0 0 1 0.4,0.11c0.592,0.322 1.105,1.746 0.751,2.083z"/>
   <path fill="#39ff14" id="svg_7" d="m8.322,27.571c0.149,0.082 0.308,0.15 0.463,0.224l-0.006,0.073a2.6,2.6 0 0 0 1.021,0.052a6.21,6.21 0 0 1 2,-0.393a18.593,18.593 0 0 1 5.729,0.1a1.082,1.082 0 0 0 0.754,-0.184a1.635,1.635 0 0 0 0.437,-2.287a1,1 0 0 0 -1.34,-0.551a5.231,5.231 0 0 0 -1.2,0.395a1.908,1.908 0 0 1 -1.716,0.108a0.761,0.761 0 0 0 -0.955,0.152a0.719,0.719 0 0 1 -0.988,0.17a1.876,1.876 0 0 0 -1.389,-0.022a4.859,4.859 0 0 1 -1.227,0.24a2.15,2.15 0 0 0 -1.815,1.107a0.515,0.515 0 0 0 0.232,0.816z"/>
   <path fill="#39ff14" id="svg_8" d="m105.416,28.323c-0.549,-0.856 -0.662,-0.918 -1.583,-0.867l0.008,0l-0.024,0l0.01,0.006l-1.535,0.152l0.016,0l-0.007,0l-0.007,0l-0.34,0.022l0.014,0l-0.013,0l0.006,-0.115l-0.154,0.066l-0.021,-0.007l0.008,0.012l-0.333,0.015l-0.011,-0.01l0,0.015l-0.156,0.067l0.15,0.051l0,0.009l-0.166,0.071l0.005,-0.126l0.012,0l-0.018,-0.006l-0.008,0.141l0.009,0c-0.135,0.069 -0.269,0.14 -0.405,0.209c-0.771,0.39 -0.748,0.834 0.048,1.691a4.4,4.4 0 0 1 0.635,0.878a1.385,1.385 0 0 0 0.952,0.725a12.889,12.889 0 0 0 1.4,0.213a9.19,9.19 0 0 0 1.266,0.078c0.3,-0.01 0.724,-0.025 0.786,-0.2a4.8,4.8 0 0 0 0.319,-1.732c-0.005,-0.272 -0.408,-0.661 -0.631,-0.995c-0.074,-0.136 -0.159,-0.249 -0.232,-0.363z"/>
   <path fill="#39ff14" id="svg_9" d="m31.964,4.614a1.126,1.126 0 0 0 0.707,-0.17c0.17,-0.09 0.255,-0.275 0.456,-0.51c0,-0.5 0.027,-1.083 -0.027,-1.659c-0.04,-0.419 -0.217,-0.834 -0.285,-1.25a1.233,1.233 0 0 0 -0.539,-0.832a0.642,0.642 0 0 0 -0.914,0a1.193,1.193 0 0 0 -0.495,1.127c0.149,0.924 0.321,1.859 0.545,2.8a0.909,0.909 0 0 0 0.552,0.494z"/>
   <path fill="#39ff14" id="svg_10" d="m41.3,34.233a0.839,0.839 0 0 0 -1.285,-0.247a3.16,3.16 0 0 1 -1.318,1a0.549,0.549 0 0 0 -0.234,0.83a0.7,0.7 0 0 0 0.9,0.312c0.145,-0.048 0.276,-0.129 0.423,-0.174c0.37,-0.112 0.571,0.046 0.59,0.406a2.434,2.434 0 0 1 -0.063,0.515c-0.122,0.751 0.03,1.006 0.866,1.344a1.137,1.137 0 0 0 1.216,-0.082a3.722,3.722 0 0 0 0.022,-2.391a4.539,4.539 0 0 1 -1.117,-1.513z"/>
   <path fill="#39ff14" id="svg_11" d="m51.493,11.591a2.007,2.007 0 0 0 1.418,-1.273c0.188,-0.44 -0.511,-0.681 -0.806,-1a1.844,1.844 0 0 0 -0.733,-0.295a0.3,0.3 0 0 0 -0.228,0.092c-0.352,0.357 -0.7,0.722 -1.079,1.125a6.713,6.713 0 0 0 0.367,0.964a0.817,0.817 0 0 0 1.061,0.387z"/>
   <path fill="#39ff14" id="svg_12" d="m1.466,26.7a1.937,1.937 0 0 0 -1.366,0.99c-0.275,0.521 0.028,1.037 0.718,1.284c0.566,0.2 0.9,0.075 1.285,-0.62a6.718,6.718 0 0 0 0.207,-0.987c0.044,-0.498 -0.319,-0.776 -0.844,-0.667z"/>
   <path fill="#39ff14" id="svg_13" d="m37.778,38.118a2.808,2.808 0 0 0 -0.405,0.207l0.013,-0.006a2.329,2.329 0 0 0 -0.648,1.793c0.08,0.788 0.419,0.989 1.174,0.7a2.624,2.624 0 0 0 0.914,-1.607l0,0.008c-0.031,-0.175 -0.058,-0.35 -0.093,-0.524c-0.118,-0.589 -0.395,-0.757 -0.955,-0.571z"/>
   <path fill="#39ff14" id="svg_14" d="m37.925,40.813l-0.013,0l0,0l0.013,0z"/>
   <path fill="#39ff14" id="svg_15" d="m39.553,39.175l0.008,0a9.956,9.956 0 0 0 -0.346,1.447c-0.042,0.429 0.263,0.739 0.725,0.874a0.725,0.725 0 0 0 0.964,-0.439a2.346,2.346 0 0 0 0.186,-0.956c-0.036,-1.011 -0.641,-1.36 -1.537,-0.926z"/>
   <path fill="#39ff14" id="svg_16" d="m3.92,26.85a1.519,1.519 0 0 0 -0.576,1.175c-0.059,0.4 0.122,0.721 0.564,0.725c0.26,0 0.537,-0.228 0.857,-0.378a7.047,7.047 0 0 0 0.014,-1.292c-0.074,-0.415 -0.467,-0.497 -0.859,-0.23z"/>
   <path fill="#39ff14" id="svg_17" d="m53.981,10.916a0.75,0.75 0 0 0 0.915,-0.543a0.722,0.722 0 0 0 -0.52,-0.937a0.929,0.929 0 0 0 -1.049,0.585c-0.066,0.211 0.357,0.79 0.654,0.895z"/>
   <path fill="#39ff14" id="svg_18" d="m46.1,42.169a3.351,3.351 0 0 0 -0.507,0.624a5.36,5.36 0 0 0 0.141,0.987a0.626,0.626 0 0 0 0.811,0.419a1.209,1.209 0 0 0 0.717,-1.645a0.775,0.775 0 0 0 -1.162,-0.385z"/>
   <path fill="#39ff14" id="svg_19" d="m7.1,26.611a0.8,0.8 0 0 0 -0.978,0.448a0.548,0.548 0 0 0 0.241,0.815a0.756,0.756 0 0 0 1,-0.385a0.616,0.616 0 0 0 -0.263,-0.878z"/>
   <path fill="#39ff14" id="svg_20" d="m45.9,33.47c-0.023,-0.053 -0.1,-0.144 -0.119,-0.139a0.591,0.591 0 0 0 -0.31,0.815a0.6,0.6 0 0 0 0.456,0.183c0.123,-0.026 0.284,-0.235 0.251,-0.331c-0.054,-0.16 -0.241,-0.3 -0.376,-0.441c0.037,-0.03 0.106,-0.069 0.098,-0.087z"/>
   <path fill="#39ff14" id="svg_21" d="m101.978,27.492l-0.017,-0.005l0,0.013l0.012,0l0.005,-0.008z"/>
   <path fill="#39ff14" id="svg_22" d="m103.817,27.447a1.345,1.345 0 0 0 -1.839,0.045l0.323,0.108a1.842,1.842 0 0 1 1.516,-0.153z"/>
   <path fill="#39ff14" id="svg_23" d="m110.713,24.735c-0.052,-0.031 -0.157,0.032 -0.238,0.052c0.164,0.143 0.32,0.3 0.5,0.424c0.05,0.037 0.165,0 0.406,0c-0.313,-0.226 -0.481,-0.367 -0.668,-0.476z"/>
   <path fill="#39ff14" id="svg_24" d="m57.762,19.583c0.054,-0.021 0.134,-0.029 0.154,-0.067s-0.03,-0.1 -0.056,-0.174c-0.074,0.046 -0.141,0.068 -0.166,0.112c-0.014,0.024 0.043,0.085 0.068,0.129z"/>
   <path fill="#39ff14" id="svg_25" d="m95.507,24.522l-0.033,0.068l0.064,0.006l-0.031,-0.074z"/>
   <path fill="#39ff14" id="svg_26" d="m20.415,24.623c-0.009,0.007 0,0.034 0,0.052l0.121,-0.135c-0.036,0.027 -0.082,0.053 -0.121,0.083z"/>
   <path fill="#39ff14" id="svg_27" d="m20.826,24.314l0.031,-0.017l-0.036,0.006l-0.251,0.2l-0.033,0.037l0.039,-0.026l0.25,-0.2z"/>
   <path fill="#39ff14" id="svg_28" d="m24.206,23.822l-0.046,-0.007l-0.024,0.018l0.029,-0.007l0.041,-0.004z"/>
   <path fill="#39ff14" id="svg_29" d="m24.277,23.816l-0.071,0.006l0.02,0a0.182,0.182 0 0 0 0.051,-0.006z"/>
   <path fill="#39ff14" id="svg_30" d="m60.162,19.478l-0.179,0.071l-0.019,0.011l0.023,-0.006l0.181,-0.067l0.318,-0.019l0.114,-0.026l-0.121,0.016l-0.317,0.02z"/>
   <path fill="#39ff14" id="svg_31" d="m60.277,17.857l-0.2,0.182l0.007,0.009l0.2,-0.183l-0.007,-0.008z"/>
   <path fill="#39ff14" id="svg_32" d="m59.9,18.119l0.187,-0.071l-0.007,-0.009l-0.186,0.071l0.006,0.009z"/>
   <path fill="#39ff14" id="svg_33" d="m22.46,23.621l0.329,-0.015l0.027,-0.018l-0.032,0.008l-0.329,0.015l-0.195,0.072l0,0.009l0.2,-0.071z"/>
   <path fill="#39ff14" id="svg_34" d="m122.4,33.821l-0.021,0.019l0.031,-0.008l0.18,-0.081l0.092,-0.132l-0.1,0.121l-0.182,0.081z"/>
   <path fill="#39ff14" id="svg_35" d="m130.9,18.693a1.23,1.23 0 0 0 -0.39,0.027a1.558,1.558 0 0 0 0.359,0.26a1.707,1.707 0 0 0 0.472,0.018l-0.017,-0.1a2.144,2.144 0 0 0 -0.424,-0.205z"/>
   <path fill="#39ff14" id="svg_36" d="m94.141,20.484a1.176,1.176 0 0 0 0.218,0.256c0.052,0.035 0.164,0 0.25,-0.01l-0.186,-0.307l-0.282,0.061z"/>
   <path fill="#39ff14" id="svg_37" d="m143.639,18.68l0.138,0.091l0.122,-0.067a0.714,0.714 0 0 0 -0.152,-0.056a0.239,0.239 0 0 0 -0.108,0.032z"/>
   <path fill="#39ff14" id="svg_38" d="m22.254,26.034c0.024,0.064 0.029,0.162 0.075,0.182a1,1 0 0 0 0.312,0.014c-0.061,-0.1 -0.082,-0.179 -0.126,-0.192a0.946,0.946 0 0 0 -0.261,-0.004z"/>
  </g>
 </g>
</svg>