<svg xmlns="http://www.w3.org/2000/svg" width="108.979" height="121.803" viewBox="0 0 108.979 121.803">
  <g>
    <polygon points="103.836 30.347 103.829 30.35 103.831 30.352 103.836 30.347"/>
    <path d="M108.737,72.08a22.841,22.841,0,0,1-1.246-3.909c-.21-.834-.412-1.669-.614-2.5a1.522,1.522,0,0,1-.034-.27c-.053-.971-.116-1.943-.154-2.915a17.894,17.894,0,0,0-.169-2.367c-.107-.619-.109-1.254-.179-1.88-.055-.495-.148-.987-.214-1.481q-.233-1.733-.455-3.468c-.041-.321-.062-.645-.091-.967-.077-.84-.157-1.679-.23-2.52a5.436,5.436,0,0,1,.055-2.347.859.859,0,0,0,.018-.309c-.025-.621-.092-1.243-.073-1.862.025-.816.139-1.63.173-2.446a6.05,6.05,0,0,0-.248-2.427c-.247-.658-.432-1.337-.632-2.009a4.077,4.077,0,0,0-.121-.609,10.333,10.333,0,0,1-.336-1.951,9.02,9.02,0,0,1-.185-.981c-.058-.358-.113-.717-.149-1.078s-.43-.637-.22-1.034c0-.007-.009-.024-.017-.034a.641.641,0,0,1-.018-.707,2.149,2.149,0,0,0,.091-1.437c-.027-.125,0-.2.14-.218a1.991,1.991,0,0,1-.532-1.259,1.757,1.757,0,0,1,.54-1.368,2.817,2.817,0,0,0,.484-.668,16.746,16.746,0,0,0,.693-1.616c.177-.49.285-1,.43-1.5.094-.326.217-.645.3-.973.2-.8.38-1.614.567-2.422a3.367,3.367,0,0,1,.142-.639,5.261,5.261,0,0,0,.47-1.725,1.244,1.244,0,0,0-.14-.634.591.591,0,0,0-1-.169,4.521,4.521,0,0,0-1.023,1.317.484.484,0,0,1-.108.1c-.028-.039-.074-.076-.08-.118a5.4,5.4,0,0,1-.064-.579,7.3,7.3,0,0,0-.047-1.4,6.074,6.074,0,0,1-.061-1.383,3.337,3.337,0,0,0-.08-1.535,4.687,4.687,0,0,1-.4-2.361,2.2,2.2,0,0,0-.058-.773,6.269,6.269,0,0,1-.337-1.867.99.99,0,0,0-.269-.718,5.317,5.317,0,0,1-.408-.582.582.582,0,0,0-.172-.163,1.019,1.019,0,0,0-1.458.417,3.186,3.186,0,0,0-.308,1.318c-.061.709-.07,1.423-.1,2.135-.018.369-.021.369-.411.251-.37-.111-.452-.1-.673.182a1.489,1.489,0,0,0-.262.477,3.984,3.984,0,0,0-.3,1.219c.01.608-.1,1.219-.079,1.827.014.5.159,1,.2,1.5a2.128,2.128,0,0,1-.067,1.068,3,3,0,0,0-.377,1.47,1.417,1.417,0,0,1-.065.382.943.943,0,0,0,.246.937.715.715,0,0,1,.2.409,7.236,7.236,0,0,1,0,2.685.153.153,0,0,0,.006.076,5.985,5.985,0,0,1-.055,2.283c-.1.68-.248,1.354-.348,2.034-.131.9-.238,1.8-.354,2.7-.041.318-.1.636-.113.954-.034.621-.008,1.246-.08,1.861a2.542,2.542,0,0,0,.086,1.029.9.9,0,0,1,.043.307,3.446,3.446,0,0,0,.017,1.542c.019.047-.054.12-.055.181-.007.31-.007.621,0,.931,0,.028.045.056.07.084.021-.027.055-.052.062-.082.011-.05,0-.1.007-.155a.267.267,0,0,1,.044-.078.638.638,0,0,1,.015.076,5.444,5.444,0,0,1,.1,1.585l0,0c-.056.136-.164.276-.153.407.051.606.142,1.209.207,1.814.033.307.044.615.06.923.019.358,0,.72.054,1.074.081.578.219,1.149.3,1.727a3.369,3.369,0,0,1-.075,1.612,12.564,12.564,0,0,0-.432,1.732,11.7,11.7,0,0,1-.593,3.007.416.416,0,0,0-.027.154,1.278,1.278,0,0,0,.011.151l.126-.11c.019-.017.036-.034.053-.051.014.031.047.069.039.093-.148.415.066.889-.25,1.279a.468.468,0,0,0-.064.3c.03.74.078,1.478.1,2.218a7.5,7.5,0,0,1-.033,1.2c-.095.72-.265,1.431-.346,2.152a6.5,6.5,0,0,0-.024,1.624c.063.451.037.908.11,1.339a6.359,6.359,0,0,1,.024,1.7c-.061.62-.137,1.239-.175,1.86-.041.685-.045,1.372-.069,2.058-.012.364-.064.389-.411.215-.537-.268-1.071-.544-1.613-.805-.344-.166-.717-.285-1.047-.471a11.708,11.708,0,0,0-2.588-1.05c-.462-.131-.945-.2-1.412-.313a8.356,8.356,0,0,1-1.456-.194c-.434.215-.878.046-1.32.052-.6.008-1.2.171-1.8.2a22.92,22.92,0,0,0-3.731.6,10.792,10.792,0,0,0-2.2.682c-.185.086-.4.12-.591.19a8.2,8.2,0,0,0-.877.339c-.5.25-.987.53-1.48.795a3.451,3.451,0,0,0-1.227.846.79.79,0,0,1-.261.189c-.305.163-.469.095-.442-.231a9.235,9.235,0,0,0-.38-2.34c-.15-.867-.387-1.722-.51-2.6-.108-.769-.32-1.524-.448-2.291a17.106,17.106,0,0,1-.361-3.579,16.025,16.025,0,0,0-.226-2.319,15.39,15.39,0,0,0-.676-2.88c-.132-.436-.35-.847-.514-1.275a.925.925,0,0,1-.083-.714,3.268,3.268,0,0,0-.019-1.879c-.05-.253-.1-.507-.132-.762-.029-.218-.044-.439-.056-.659-.023-.439-.05-.878-.055-1.318,0-.335.032-.67.039-1.005q.019-.873.026-1.746c0-.349.012-.7-.015-1.048-.02-.264-.12-.524-.134-.788-.021-.412.021-.828,0-1.241-.035-.712-.122-1.423-.142-2.135a17.093,17.093,0,0,0-.287-4.536c0-.013,0-.026-.006-.039a43.6,43.6,0,0,0-.98-4.535,5.955,5.955,0,0,1-.21-1.457c.012-.737.132-1.471.2-2.207a40.8,40.8,0,0,0,.3-4.235c-.018-1.038,0-2.076,0-3.115,0-.674.005-1.349.023-2.023.016-.609.088-1.219.067-1.826a6.32,6.32,0,0,1-.017-1.506c.135-.674.169-1.37.352-2.031.235-.85.576-1.675.87-2.511a1.241,1.241,0,0,0,.1-.336,19.05,19.05,0,0,0,.076-2.288C71.785,4.23,71.7,3.857,70.75,3.7c-.17-.029-.2-.116-.187-.246.011-.1.033-.206.04-.309.012-.174-.025-.272-.263-.211a.567.567,0,0,1-.355-.1c-.163-.1-.327-.131-.445.018a3.093,3.093,0,0,0-.575.844c-.2.617-.313,1.26-.461,1.892-.011.045-.019.091-.029.136a.66.66,0,0,1-.059-.141c-.05-.294-.1-.588-.139-.885-.105-.823-.2-1.648-.3-2.471A8.915,8.915,0,0,1,67.81.909a1,1,0,0,0-.5-.842c-.191-.15-.591-.028-.6.169a10.678,10.678,0,0,1-.358,2.34,3.206,3.206,0,0,0-.074.733c-.012.48,0,.962-.01,1.442a1.024,1.024,0,0,1-.052.219,1.114,1.114,0,0,1-.16-.194,1.787,1.787,0,0,0-.181-.43,5.793,5.793,0,0,1-.819-1.733,1.075,1.075,0,0,0-.866-.722c-.192-.037-.307.037-.317.211a2.5,2.5,0,0,0,0,.815A13.428,13.428,0,0,0,64.4,5.264a.4.4,0,0,1,.036.191,1.908,1.908,0,0,0,.2.822,10.516,10.516,0,0,0,.613,1.685,7.4,7.4,0,0,1,.46,1.22,1.547,1.547,0,0,0,.225.446,1.084,1.084,0,0,1,.2,1.269,3.451,3.451,0,0,0-.324,1.516c-.008.635-.071,1.269-.1,1.9-.04.842-.114,1.686-.094,2.528.016.71.143,1.418.222,2.126.144,1.29.3,2.58.43,3.872a12.553,12.553,0,0,1,.053,1.358c0,.545-.056,1.089-.054,1.634,0,.726.078,1.453.048,2.177a5.871,5.871,0,0,0,.213,2.149,3.223,3.223,0,0,1,.139.922c.021.685-.01,1.37.013,2.054.032.934.109,1.866.14,2.8.024.727.018,1.454.007,2.181s-.036,1.445,0,2.169c.031.622-.007,1.246.022,1.867.027.595.114,1.188.151,1.783.065,1.061.148,2.124.154,3.186,0,.8-.087,1.6-.163,2.4a.828.828,0,0,1-.292.665.4.4,0,0,0-.109.245,6.166,6.166,0,0,0-.143,1c0,.738.025,1.477.068,2.214a10.021,10.021,0,0,0,.167,1.391c.176.864.4,1.719.584,2.582.069.316.094.64.135.962q.1.81.2,1.62a8.382,8.382,0,0,0,.583,2.615,3,3,0,0,1,.309,1.12,26.008,26.008,0,0,0,.574,2.984,3.348,3.348,0,0,0,.3.967,4.859,4.859,0,0,1,.359,1.941c.055.953.028,1.915.157,2.858a12.425,12.425,0,0,1,.061,2.093,11.607,11.607,0,0,0,.058,1.709,31.151,31.151,0,0,0,.977,3.166q.177.775.366,1.549c.068.276.142.551.217.825.037.138.089.273.123.411q.261,1.082.516,2.165a.6.6,0,0,1,.029.3,1.012,1.012,0,0,0,.1.755c.1.255.236.5.321.76a13.108,13.108,0,0,0,1.2,2.385,1.948,1.948,0,0,0,.435.405c.088.078.223.134.266.228q.3.66.559,1.338a3.971,3.971,0,0,0,.313.916.736.736,0,0,1,.019.928c-.125.2-.216.42-.335.625a6.467,6.467,0,0,0-.552,1.867,8.689,8.689,0,0,0-.215,2.746c.037.414.056.829.075,1.244q.046,1.049.081,2.1a4.955,4.955,0,0,1-.005.545c-.081,1.059-.176,2.118-.251,3.178-.041.583-.044,1.168-.077,1.751-.04.712-.128,1.423-.133,2.135-.008,1.013.039,2.025.068,3.037.014.506.025,1.013.061,1.518q.115,1.593.259,3.183c.037.412.117.821.175,1.231.031.218.066.436.08.656a.28.28,0,0,1-.288.318,7.2,7.2,0,0,1-.746.058,12.058,12.058,0,0,0-2.443.221,4.8,4.8,0,0,0-2.123,1.085c-.141.114-.27.289-.118.44a.642.642,0,0,1,.167.717.338.338,0,0,0,.4.425c.272-.03.541-.077.811-.114.081-.01.188-.042.241-.007.3.194.552.033.825-.057a3.89,3.89,0,0,1,.832-.21c1.075-.107,2.153-.19,3.23-.274a.543.543,0,0,1,.308.068.547.547,0,0,0,.511.03,4.03,4.03,0,0,1,1.324-.3.867.867,0,0,0,.827-.71,5.841,5.841,0,0,0-.122-1.582,7.682,7.682,0,0,1-.461-2.082,11.445,11.445,0,0,0-.13-1.159c-.063-.67-.13-1.34-.165-2.012-.026-.53.008-1.063-.011-1.594a2.848,2.848,0,0,1,.215-1.019,6.628,6.628,0,0,0,.359-1.59,16.215,16.215,0,0,0-.063-1.906c-.012-.257-.043-.513-.049-.769-.008-.344.014-.688,0-1.031a14.661,14.661,0,0,1-.1-1.935,15.987,15.987,0,0,1,.453-2.648,11.931,11.931,0,0,0,.342-3.517,4.271,4.271,0,0,1,.146-1.422,22.081,22.081,0,0,0,.9-4.27.647.647,0,0,1,.336-.54c.321-.179.653-.34.989-.493a.715.715,0,0,1,.676.048,2.727,2.727,0,0,0,.532.218,10.342,10.342,0,0,1,1.262.374,5.521,5.521,0,0,0,1.942.373,21.908,21.908,0,0,0,2.454-.073,3.018,3.018,0,0,0,.618-.056,7.637,7.637,0,0,1,2.6-.17c.368.036.738.061,1.1.111.19.026.372.1.561.143a3.969,3.969,0,0,1,2.658,1.891c.505.85,1.014,1.7,1.57,2.521a5.758,5.758,0,0,1,.955,2.431,21.55,21.55,0,0,1,.05,2.219c.032.789.091,1.578.153,2.367a16.075,16.075,0,0,1,.168,1.9,33.318,33.318,0,0,0,.262,3.711c.048.694.066,1.39.1,2.085a3.077,3.077,0,0,0,.039.346,2.735,2.735,0,0,1,.111.674,5.552,5.552,0,0,0,.007,1.707,1.667,1.667,0,0,1-.025.465c-.043.556-.116,1.112-.127,1.668a17.6,17.6,0,0,1-.157,3.339c-.052.251-.143.346-.424.36-.51.026-1.018.1-1.526.156-.179.02-.358.037-.535.065-.724.112-1.449.218-2.169.351-.1.019-.2.161-.253.267-.024.048.044.186.107.215.167.077.285.169.257.354a1.029,1.029,0,0,1-.111.476c-.18.218-.076.309.126.365.369.1.743.2,1.12.27a9.962,9.962,0,0,0,2.979-.154c.811-.084,1.617-.211,2.424-.326.56-.08,1.177-.1,1.508-.609a3.652,3.652,0,0,0,.472-1.155c.156-.657.2-1.338.363-1.993a6.278,6.278,0,0,0,.152-1.624c0-.221-.009-.442-.008-.663a3.237,3.237,0,0,1,.276-1.67,1.193,1.193,0,0,0,.09-.454c.041-.388.055-.778.111-1.164.086-.589.224-1.171.292-1.762s.041-1.165.114-1.742a24.358,24.358,0,0,0-.133-2.873,1.528,1.528,0,0,0-.065-.265c-.122-.652-.246-1.3-.36-1.957-.043-.241-.038-.492-.1-.728-.236-.907-.5-1.809-.732-2.716-.07-.264-.095-.537-.143-.806a17.571,17.571,0,0,0-.338-1.834,5.623,5.623,0,0,1-.282-2.761,1.285,1.285,0,0,0-.1-.686c-.179-.461-.463-.892-.594-1.363a8.15,8.15,0,0,0-.785-1.619c-.218-.405-.422-.816-.628-1.227a5.764,5.764,0,0,0-.246-.528.6.6,0,0,1,.029-.763q.549-.708,1.1-1.415.489-.627.975-1.256.267-.346.524-.7c.58-.791,1.188-1.565,1.725-2.38a9.6,9.6,0,0,0,.566-1.289c.2-.426.408-.848.641-1.258a6.177,6.177,0,0,1,.975-1.235,6.025,6.025,0,0,0,1.234-1.838,2,2,0,0,1,.546-.863.578.578,0,0,0,.18-.343,3.033,3.033,0,0,1,.6-1.373A2.107,2.107,0,0,0,108.737,72.08ZM98.7,39.056l-.027-.1c.014.025.029.051.042.077C98.715,39.034,98.7,39.046,98.7,39.056ZM80.888,79.23c.19-.086.168-.24.161-.4-.025-.555-.039-1.11-.052-1.665a.18.18,0,0,1,.058-.132.929.929,0,0,1,.779.094c.19.309.485.587.38.889,0,.4.014.681-.356.825-.067.026-.092.2-.1.3-.028.448-.132.591-.509.7a.4.4,0,0,1-.492-.191A.261.261,0,0,1,80.888,79.23Zm-2.469-3.114c.011.046-.041.152-.071.154-.477.04-.833.4-1.363.363a6.405,6.405,0,0,1-1.921-.189,1.932,1.932,0,0,1-.8-.5c-.153-.195-.121-.518-.161-.786a2.149,2.149,0,0,1,0-.311,1.857,1.857,0,0,1,1.7-1.651,2.35,2.35,0,0,1,1.215.165,1.008,1.008,0,0,0,.279.074,2.79,2.79,0,0,1,1.774,1.235A.353.353,0,0,1,79.12,75c-.173.256-.193.6-.516.77A.285.285,0,0,0,78.419,76.116Zm5.486,7.393a6.107,6.107,0,0,0-.279.849.7.7,0,0,1-.472.58,3.533,3.533,0,0,0-.764.463,2.423,2.423,0,0,1-3.006-.242,1.989,1.989,0,0,1-.8-1.271c.066-.4.1-.726.174-1.041a1.07,1.07,0,0,1,.7-.72,6.652,6.652,0,0,1,1.873-.5A2.212,2.212,0,0,1,83.3,82.5q.225.251.476.48A.419.419,0,0,1,83.905,83.509Zm4.608-7.241a1.32,1.32,0,0,1-.885.688c-.183.054-.358.135-.539.2-.126.044-.258.075-.387.112a4.279,4.279,0,0,1-1.562-.329.84.84,0,0,1-.338-.268,1.649,1.649,0,0,1-.417-1.193.279.279,0,0,0-.02-.19c-.255-.315-.085-.656-.061-.98.01-.126.156-.249.253-.363.074-.088.172-.158.253-.241.046-.046.082-.147.122-.147.557.007.7-.494,1.053-.742.145-.1.236-.173.366,0a.271.271,0,0,0,.159.111c.834.058,1.333.7,2.016,1.017.091.043.147.187.179.294a1.12,1.12,0,0,0,.253.451c.135.153.071.458.095.7C88.708,75.584,88.669,75.966,88.513,76.268Z"/>
    <path d="M28.542,83.733c-.2-.033-.236-.184-.237-.378a.7.7,0,0,0-.5-.68c-.186-.062-.355-.085-.447.151a7.456,7.456,0,0,1-.307.7c-.047.091-.144.211-.228.219-.585.061-1.173.1-1.76.139q-1.9.135-3.8.271c-1,.072-1.989.192-2.985.213-1.194.024-2.391-.049-3.587-.054-1.284,0-2.569.027-3.854.032-1.1,0-2.2-.009-3.3-.008a.372.372,0,0,1-.392-.289,1.952,1.952,0,0,0-.363-.567.532.532,0,0,0-.856.048,3.239,3.239,0,0,0-.317.5.391.391,0,0,1-.45.257A1.541,1.541,0,0,0,3.7,85.1a12.7,12.7,0,0,0-.763,2.079c-.093.27-.148.552-.232.826-.259.853-.531,1.7-.785,2.558-.237.8-.443,1.6-.691,2.395C1.049,93.543.766,94.1.624,94.7c-.134.562-.61,1.034-.448,1.671-.467.521.123.742.315,1.071a.374.374,0,0,0,.265.145c.6.044,1.2.082,1.807.1.346.009.7-.071,1.04-.035a10.311,10.311,0,0,0,2.8-.015c.381-.063.567-.192.643-.578a3.028,3.028,0,0,1,.63-1.751.357.357,0,0,0,.06-.122q.7-1.77,1.4-3.542a3.057,3.057,0,0,1,.166-.374c.031-.055.105-.087.16-.129a.637.637,0,0,1,.11.178,4.831,4.831,0,0,1,.089.536,1.25,1.25,0,0,0,.732.917,11.76,11.76,0,0,1,1.1.626.866.866,0,0,0,.9.1,4.877,4.877,0,0,0,1.019-.66.706.706,0,0,0,.225-.381,11.692,11.692,0,0,0,.232-1.2c.067-.5.1-.563.608-.6a1.828,1.828,0,0,1,.358.041,20.36,20.36,0,0,0,3.483.386c.547-.018.829-.133,1.017-.654a9.563,9.563,0,0,0,.355-1.4c.079-.407.206-.574.579-.553,1,.056,1.992.131,2.988.2.53.036,1.059.084,1.589.1.269.008.57,0,.719-.289a2.321,2.321,0,0,0,.419-1.229,1.6,1.6,0,0,1,.121-.666c.052-.132.2-.31.32-.318a8.319,8.319,0,0,1,1.4.013c.338.034.676.23.917-.179.578-.165.633-.618.612-1.112,0-.03,0-.061-.006-.091C29.3,84.36,29.219,83.845,28.542,83.733ZM11.028,90.751l.234.271L11,90.783Zm1.146,1.21a.348.348,0,0,1-.319-.032,1.607,1.607,0,0,1-.539-.852c.157.067.317.128.47.2.119.059.229.138.344.207.086.053.174.1.26.155C12.321,91.753,12.274,91.9,12.174,91.961Z"/>
    <path d="M86.439,73.548a.975.975,0,0,0-.813.331,1.973,1.973,0,0,0-.477,1.7,1.361,1.361,0,0,0,1.234.987c.219-.072.44-.138.655-.22.127-.049.243-.124.366-.184a1.894,1.894,0,0,0,.968-1.157.551.551,0,0,0-.078-.444A2.208,2.208,0,0,0,86.439,73.548Z"/>
    <path d="M77.136,73.763c-.274-.044-.545-.105-.819-.151A1.349,1.349,0,0,0,74.556,74.8a.994.994,0,0,0,1.016,1.163c.139.008.278,0,.418,0a3.747,3.747,0,0,0,1.989-.46.689.689,0,0,0,.208-1.168A1.706,1.706,0,0,0,77.136,73.763Z"/>
  </g>
</svg>
