<svg xmlns="http://www.w3.org/2000/svg" width="55.248" height="30.432" viewBox="0 0 55.248 30.432">
  <path d="M41.24,12.835q4.347-.437,8.7-.871c1.523-.15,3.047-.3,4.574-.406.237-.017.492.209.739.323-.191.159-.358.4-.576.463-1.62.445-3.256.83-4.875,1.278-3.17.876-6.333,1.778-9.495,2.683a2.572,2.572,0,0,0-.594.368c.188.106.372.221.566.315.339.165.974.068.862.629-.046.226-.635.4-1,.493-.832.2-1.684.323-2.523.5-.518.112-.657.414-.409.913,1.368,2.747,2.737,5.493,4.073,8.255.231.477.593,1.225.4,1.5-.409.589-.989-.043-1.475-.221Q34.144,26.843,28.1,24.577a.808.808,0,0,0-1.133.363c-.345.579-.65,1.183-1.015,1.748-.419.651-.661.679-1.254.2a17.3,17.3,0,0,1-1.364-1.167c-.52-.522-.955-.417-1.455.025-1.235,1.09-2.492,2.155-3.741,3.229-.511.438-1.013.888-1.545,1.3a1.649,1.649,0,0,1-.59.159,1.708,1.708,0,0,1-.05-.615c.346-1.106.723-2.2,1.092-3.3a2.734,2.734,0,0,0,.168-.415c.039-.249.038-.5.053-.756a2.994,2.994,0,0,0-.7.169c-.764.4-1.5.846-2.27,1.233a3.063,3.063,0,0,1-.827.157c.02-.279.035-.557.066-.835.007-.068.083-.127.1-.2.05-.205.088-.414.13-.621a2.82,2.82,0,0,0-.718.068c-4.005,1.459-8,2.937-12.012,4.389a4.209,4.209,0,0,1-1.039.1,3.93,3.93,0,0,1,.74-.755c2.749-1.6,5.514-3.172,8.276-4.748.747-.427,1.507-.832,2.248-1.269.145-.085.23-.272.343-.412-.151-.079-.307-.15-.452-.239-.237-.145-.467-.3-.7-.453a3.065,3.065,0,0,1,.709-.584c.55-.226,1.141-.35,1.705-.546a2.624,2.624,0,0,0,.529-.343,1.945,1.945,0,0,0-.506-.349C11.6,19.745,10.3,19.4,9,19.052c-.107-.029-.244,0-.329-.055-.229-.151-.438-.333-.656-.5.22-.161.422-.428.66-.466,1.659-.266,3.325-.486,4.99-.716,1.22-.169,2.445-.3,3.66-.506.8-.132.864-.344.4-.991-.439-.607-.93-1.179-1.329-1.81a2.539,2.539,0,0,1-.162-.914A3.329,3.329,0,0,1,17.063,13c1.4.2,2.807.411,4.2.666a1.1,1.1,0,0,0,1.319-.751c.635-1.313,1.293-2.615,1.942-3.921a3.906,3.906,0,0,1,.256-.5c.392-.564.7-.6,1.143-.07.7.831,1.366,1.686,2.033,2.542.682.875.718.895,1.6.274Q37.228,5.854,44.9.472A5.588,5.588,0,0,1,46.063,0a5.991,5.991,0,0,1-.557,1.146C43.23,4.067,40.93,6.97,38.637,9.878a.629.629,0,0,0-.126.184c-.058.2-.1.4-.146.6a1.811,1.811,0,0,0,.53.056c.878-.172,1.75-.374,2.626-.557.768-.16,1.535-.326,2.308-.45a1.75,1.75,0,0,1,.617.143c-.108.178-.173.428-.331.522-.739.438-1.5.837-2.26,1.243-.4.213-.811.392-1.192.627a4.281,4.281,0,0,0-.6.541c.242.021.483.05.725.058a3.781,3.781,0,0,0,.448-.033ZM22.294,16.022l-1.048.2a4.68,4.68,0,0,0,.517.811.75.75,0,0,1-.055,1.244c-.253.222-.52.429-.788.632-.866.652-1.739,1.295-2.6,1.955a1.255,1.255,0,0,0-.229.364,1.36,1.36,0,0,0,.4-.015c.951-.331,1.891-.694,2.847-1.01.606-.2.85.053.666.666-.084.282-.255.537-.361.815a1.611,1.611,0,0,0-.049.415c.167-.016.386.03.491-.059.57-.483,1.107-1,1.664-1.5.652-.587.8-.567,1.3.142.526.76.539.762,1.052.1.873-1.13.877-1.143,2.218-.684,1.378.471,2.742.981,4.12,1.451a1.76,1.76,0,0,0,.607-.017,1.79,1.79,0,0,0-.176-.512c-.509-.692-1.062-1.351-1.557-2.051-.556-.786-.48-.966.412-1.22.251-.071.508-.127.754-.213.087-.03.151-.126.225-.192-.075-.075-.139-.2-.226-.218-.58-.125-1.169-.215-1.749-.342-.853-.186-.958-.454-.38-1.075.663-.712,1.375-1.378,2.059-2.07a2.3,2.3,0,0,0,.244-.36,1.482,1.482,0,0,0-.5.029c-1.131.491-2.247,1.017-3.38,1.5-1.645.7-1.65.692-2.744-.7-.444-.564-.618-.54-.9.124C24.321,16.16,24.321,16.16,22.294,16.022Z"/>
</svg>
