<svg xmlns="http://www.w3.org/2000/svg" width="63.569" height="42.495" viewBox="0 0 63.569 42.495">
  <g>
    <path d="M37.88,23.311l-5.828,6.426a.61.61,0,0,1-.157.1L23.846,30.95l6.679,1.165-3.292,6.647,5.827-6.426a.613.613,0,0,1,.158-.095l8.048-1.118-6.678-1.165Zm-1.7,7.718-3.071.441a1.113,1.113,0,0,0-.63.33L30.43,34.068,31.548,31.8c.079-.173.032-.3-.141-.33l-2.473-.441,3.071-.426a1.049,1.049,0,0,0,.63-.346L34.683,28l-1.119,2.253c-.094.189-.031.315.142.346Z"/>
    <path d="M51.426,16.381,63.569,14.7,53.221,12.884,58.182,2.819,49.614,12.27a1.9,1.9,0,0,1-.992.551l-12.144,1.7,10.364,1.8-1.937,3.921L32.241,18.113a.564.564,0,0,1-.378-.189c-.047-.079-.047-.283.111-.567L40.447,0,25.421,16.475A5.482,5.482,0,0,1,22.4,18.113L0,21.169,19.058,24.4c.205.031.347.094.378.173a.728.728,0,0,1-.094.583L10.852,42.5,25.894,26.02A5.451,5.451,0,0,1,28.918,24.4L43.865,22.35l-2,4.032,3.89-4.3h.016l5.544-.756-4.221-.709,3.339-3.685A1.9,1.9,0,0,1,51.426,16.381ZM46.181,20.46l-.6.646H45.6l.913.157.552.095-.725.094-1.181.142-.095.095.032-.095-.914.11L28.808,23.61a6.3,6.3,0,0,0-3.5,1.89L13.971,37.912,20.05,25.5c.473-.961.126-1.717-.866-1.89L5.213,21.247l17.295-2.362a6.146,6.146,0,0,0,3.48-1.874L37.329,4.583,31.265,17.011c-.473.96-.126,1.716.85,1.874l12.443,2.063.8.126.346-.693,1.969-3.969c.2-.409.063-.74-.347-.8L41.566,14.6l7.166-1.008a2.5,2.5,0,0,0,1.465-.788l4.788-5.276-2.6,5.276c-.2.41-.078.725.331.788L58.5,14.6l-7.183,1.008a2.623,2.623,0,0,0-1.465.8Z"/>
  </g>
</svg>
