<svg width="46.849" height="30.834" xmlns="http://www.w3.org/2000/svg">

 <g>
  <title>Layer 1</title>
  <path fill="#39ff14" id="svg_1" d="m46.285,8.969c-2.491,-0.012 -4.983,-0.008 -7.474,-0.008l0,0.039l-6.834,0c-1.631,0 -1.643,-0.007 -1.164,-1.509c0.67,-2.1 1.371,-4.184 2.026,-6.285a5.829,5.829 0 0 0 0.119,-1.206a5.562,5.562 0 0 0 -1.02,0.6c-2.667,2.458 -5.345,4.905 -7.951,7.425a3.473,3.473 0 0 1 -2.678,0.989c-4.058,-0.038 -8.116,-0.02 -12.174,0c-0.285,0 -0.72,0.1 -0.811,0.29s0.068,0.6 0.235,0.836c0.54,0.748 1.139,1.452 1.705,2.181c1.11,1.431 2.2,2.877 3.326,4.3c0.408,0.516 0.423,0.848 -0.128,1.317c-1.3,1.106 -2.523,2.294 -3.772,3.457q-3.238,3.017 -6.471,6.04c-0.936,0.873 -1.9,1.721 -2.815,2.612a2.762,2.762 0 0 0 -0.4,0.792c0.3,-0.024 0.6,-0.047 0.9,-0.075a0.344,0.344 0 0 0 0.1,-0.043q8.069,-3.747 16.137,-7.5c1.046,-0.487 1.145,-0.5 1.857,0.426c1.281,1.659 2.519,3.35 3.8,5.01a3.855,3.855 0 0 0 0.779,0.6a3.294,3.294 0 0 0 0.506,-0.761q1.45,-4.512 2.848,-9.04a1.933,1.933 0 0 1 1.143,-1.3q1.809,-0.787 3.6,-1.606q7.173,-3.285 14.341,-6.582a1.923,1.923 0 0 0 0.547,-0.321a2.081,2.081 0 0 0 0.292,-0.51a2.077,2.077 0 0 0 -0.569,-0.168zm-8.626,2.889c-3.031,1.4 -6.044,2.84 -9.108,4.166c-2.718,1.177 -2.741,1.119 -3.634,3.929c-0.377,1.185 -0.751,2.372 -1.149,3.549a2.6,2.6 0 0 1 -0.393,0.579a3.11,3.11 0 0 1 -0.467,-0.416q-0.974,-1.267 -1.92,-2.556c-0.832,-1.136 -0.936,-1.159 -2.167,-0.584q-4.734,2.208 -9.477,4.394a2.588,2.588 0 0 1 -0.487,0.12a1.806,1.806 0 0 1 0.256,-0.434c1.66,-1.556 3.332,-3.1 4.994,-4.655c0.935,-0.875 1.872,-1.748 2.779,-2.65c0.565,-0.562 0.544,-0.83 0.051,-1.467c-0.979,-1.262 -1.958,-2.524 -2.923,-3.8a2.061,2.061 0 0 1 -0.208,-0.539a1.924,1.924 0 0 1 0.571,-0.182c1.954,0.025 3.908,0.074 5.862,0.105a20.028,20.028 0 0 0 2.338,-0.03a2.111,2.111 0 0 0 1.131,-0.493c1.707,-1.554 3.374,-3.153 5.063,-4.727a2.177,2.177 0 0 1 0.519,-0.267a2.509,2.509 0 0 1 -0.036,0.6c-0.368,1.184 -0.738,2.368 -1.139,3.541c-0.378,1.1 -0.232,1.347 0.905,1.376c0.213,0 0.427,0 0.64,0c2.052,0 4.1,0.011 6.155,-0.006c0.565,-0.005 1.13,-0.115 1.7,-0.127c0.173,0 0.348,0.162 0.523,0.251a1.852,1.852 0 0 1 -0.379,0.323z"/>
 </g>
</svg>