<svg xmlns="http://www.w3.org/2000/svg" width="126.662" height="14.969" viewBox="0 0 126.662 14.969">
  <path d="M33.174,14.716c-1.644,0-3.288,0-4.931,0-.478,0-.956-.054-1.434-.056-1.525,0-3.053-.032-4.576.019-1.266.042-1.9-.308-1.986-1.284-.046-.531.023-1.069-.042-1.6-.027-.212-.274-.408-.42-.611a3.186,3.186,0,0,0-.635.356c-.333.311-.618.654-.916.988-1.445,1.614-3.751,1.81-5.935,2.093a36.237,36.237,0,0,1-3.846.018c-1.885.039-3.777.051-5.649.2C1.015,14.984.146,14.085.06,12.92-.032,11.677,0,10.427.031,9.181.065,7.742.185,6.305.209,4.866.221,4.182.063,3.5.046,2.811A3.539,3.539,0,0,1,.214,1.519c.29-.8.946-1.137,2-.995,1.36.184,2.761-.041,4.051.1C8.439.856,10.59.592,12.74.79a9.362,9.362,0,0,1,6.226,2.859,6.959,6.959,0,0,0,.785.627,4.692,4.692,0,0,0,.291-.96c.042-.5-.035-1-.013-1.5.034-.8.335-1.045,1.376-1.117.479-.034.964,0,1.445-.018C23.93.637,25.01.538,26.088.552c1.361.019,2.719.164,4.081.185C32,.765,33.834.726,35.667.714A8.144,8.144,0,0,1,36.748.7,6.567,6.567,0,0,0,40.234.212a1.938,1.938,0,0,1,1.891.07A4.833,4.833,0,0,0,43.688.7a1.531,1.531,0,0,1,1.423.979c.21.6.641,1.142.907,1.729.386.852.673,1.732,1.076,2.578.213.445.49,1.124.9,1.205.809.162.879-.6,1.091-1.023A39.135,39.135,0,0,0,50.845,2.28,2.327,2.327,0,0,1,53.139.766C53.817.72,54.5.71,55.181.685A8.715,8.715,0,0,0,56.617.619a1.829,1.829,0,0,1,1.827.373,1.293,1.293,0,0,0,1.619.037A3.109,3.109,0,0,1,62.219.657a2.071,2.071,0,0,0,.719.011,2.607,2.607,0,0,1,2.565.611c.338.338.714.252,1.143,0,1.789-1.046,3.729-.659,5.616-.236a1.156,1.156,0,0,1,.693.894c.068,1.645.818,3.27.2,4.941a3.847,3.847,0,0,0,.007,1.306,5.665,5.665,0,0,1-.033,1.106c-.2,1.012.559,1.61,1.886,1.462a15.047,15.047,0,0,1,5.35.149c.495.122.78-.014.939-.359A1.267,1.267,0,0,0,81.446,10Q81.394,8.5,81.3,7.013c-.09-1.439-.235-2.878-.278-4.318-.032-1.042.612-1.638,1.913-1.867A23.04,23.04,0,0,1,85.424.51a2.62,2.62,0,0,1,2.851,2.062c.036.529.073,1.058.16,1.583.019.11.257.2.394.3a1.637,1.637,0,0,0,.308-.271,3.314,3.314,0,0,0,.454-.767c.47-1.425,1.8-2.18,3.422-2.691A9.579,9.579,0,0,1,97.448.1a12.043,12.043,0,0,0,2.281.1,8.742,8.742,0,0,1,5.432,1.713c.741.5.906.51,1.333-.157a2.136,2.136,0,0,1,2.148-.9,29.343,29.343,0,0,0,3.122-.083c.979-.062,1.588.187,1.75.93a5.4,5.4,0,0,1-.025,1.49,9.111,9.111,0,0,0-.126,1.211c.041.6.589.99,1.328,1q1.614.011,3.229-.018c1.127-.019,1.389-.234,1.408-1.141.012-.565-.033-1.131,0-1.694.088-1.367.759-1.879,2.48-1.85a22.314,22.314,0,0,1,3.209.192c1.176.192,1.623.761,1.619,1.721-.008,2,.1,4.005-.093,5.994a19.433,19.433,0,0,0-.011,4.113c.154,1.353-.6,1.881-2.318,1.9-.884.012-1.768.02-2.651.014-1.5-.009-2.194-.54-2.233-1.731-.023-.689.043-1.38.038-2.07-.006-.843-.43-1.22-1.506-1.258s-2.159-.033-3.235.006c-.96.035-1.469.595-1.385,1.32a12.823,12.823,0,0,1,.083,2.063c-.059,1.259-1.219,1.976-2.839,1.81-.714-.073-1.428-.15-2.146-.2-1.125-.071-1.465-.269-1.8-1.114a3,3,0,0,0-.174-.447c-.312-.527-.808-.628-1.149-.139-.95,1.362-2.877,1.374-4.324,2.038a1.478,1.478,0,0,1-.588.049c-1.883-.043-3.765-.11-5.648-.136a5.952,5.952,0,0,1-4.659-1.772,2.37,2.37,0,0,0-.676-.525c-.668-.344-1.106-.189-1.308.427-.542,1.656-.542,1.681-2.716,1.66-1.157-.011-2.312-.136-3.47-.194a12.74,12.74,0,0,0-1.311,0c-1.916.1-3.829.267-5.747.316-1.44.037-2.886-.07-4.329-.105a4.8,4.8,0,0,0-.961.04,3.518,3.518,0,0,1-2.99-.612.784.784,0,0,0-1.053.045,3.29,3.29,0,0,1-2.226.524c-.838-.022-1.688.087-2.518.023-1.375-.105-1.824-.508-1.883-1.574-.042-.752-.012-1.505-.032-2.257-.033-1.222-.1-2.443-.118-3.665-.013-.783.027-1.566.054-2.348.009-.25.143-.519.062-.744a4.282,4.282,0,0,0-.567-.862c-.316.2-.765.356-.919.616-.333.564-.467,1.2-.773,1.776-.393.743-.87,1.459-1.32,2.183C54.821,8.4,54.4,9,54.041,9.627c-.778,1.367-1.481,2.76-2.3,4.112a3.138,3.138,0,0,1-2.9.971,10.854,10.854,0,0,0-2-.081,2.46,2.46,0,0,1-2.127-.862,7.43,7.43,0,0,1-.725-1.082Q41.756,9,39.536,5.3a1.875,1.875,0,0,0-1.916-.915c-2.284.292-4.564-.025-6.842.077-.641.028-1.285,0-1.928.006a1.694,1.694,0,0,0-.705.06c-.3.173-.707.432-.706.654s.408.481.679.689a.939.939,0,0,0,.467.047c2.034-.036,4.069-.079,6.1-.113a8.746,8.746,0,0,1,1.317.036c1.434.2,1.912.669,1.9,1.8-.018,1.187-.61,1.816-2.121,1.853-2.279.057-4.567-.022-6.848-.09a2.18,2.18,0,0,0-1.743.412.586.586,0,0,0,0,.681,2.224,2.224,0,0,0,1.732.468c2.807-.07,5.615-.113,8.423-.149a1.7,1.7,0,0,1,.783.181,2.418,2.418,0,0,1,.645,2.959,1.859,1.859,0,0,1-1.5.659c-1.364-.014-2.729,0-4.094,0ZM13.682,8.025c.027-1.226-.326-1.635-1.5-2.4-1.112-.728-2.464-.679-3.73-.883-.51-.082-1.168.112-1.167.706,0,.812.08,1.625.085,2.437a4.9,4.9,0,0,1-.128,1.466c-.28.917.212,1.492,1.411,1.472.557-.009,1.118-.157,1.668-.131A3.152,3.152,0,0,0,13.682,8.025Zm74.524-.142c.077.411.162.939.274,1.463.154.718.452.939,1.27.685,1.4-.434,2.779.11,4.158-.08a.794.794,0,0,1,.53.188c1.013.961,2.457,1.063,3.879,1.225.936.107,1.837-.33,1.912-.947.057-.465-.779-1.1-1.584-1.025-2.473.212-4.572-.807-6.855-1.207a4.3,4.3,0,0,1-1.371-.728c-.281-.172-.484-.428-.779-.578s-.766-.345-.932-.257c-.266.141-.362.5-.493.769C88.163,7.5,88.206,7.639,88.206,7.883Zm9.517-4.155-.085.12a6.425,6.425,0,0,0-.83.088c-.515.122-1.02.32-1.016.8,0,.534.564.571,1.1.661,1.424.24,2.994-.072,4.284.682a.345.345,0,0,0,.233.019,3.248,3.248,0,0,1,2.365.369c.467.172.9.4,1.355.594.789.348,1.3.116,1.336-.6a1.8,1.8,0,0,0-1.716-1.577,6.816,6.816,0,0,0-1.9.1,4.061,4.061,0,0,1-3.148-.479A12.633,12.633,0,0,0,97.723,3.728Zm-32.28.333.617,1a3.2,3.2,0,0,0,.376-1.026c0-.247-.308-.5-.478-.745Zm.291,6.236c.113.252.219.491.326.731a2.609,2.609,0,0,0,.231-.76,2.43,2.43,0,0,0-.247-.739Z"/>
</svg>
