<svg xmlns="http://www.w3.org/2000/svg" width="103.354" height="23.25" viewBox="0 0 103.354 23.25">
  <path d="M103.273,7.459a2,2,0,0,0-1.818-1.223c-.206-.006-.414-.026-.62-.024a3.7,3.7,0,0,0-1.89.533,9.628,9.628,0,0,0-2.209,1.716,10.426,10.426,0,0,0-1.442,1.7,2.107,2.107,0,0,1-.413.511c-.082.073-.24.061-.364.087a1.1,1.1,0,0,1,.055-.34c.332-.648.685-1.286,1.016-1.936s.65-1.325.967-1.993a.3.3,0,0,0-.005-.223c-.015-.031-.121-.032-.183-.025-.27.03-.541.075-.811.1-.821.08-1.644.151-2.466.231-.273.026-.545.084-.82.1a8.655,8.655,0,0,1-1.806.076.491.491,0,0,0-.241.045,1.964,1.964,0,0,1-1.41-.089,6.11,6.11,0,0,0-1.435-.374c-.974-.076-1.954-.078-2.932-.081a4.615,4.615,0,0,0-1.066.131,13.235,13.235,0,0,0-3.016,1.006,22.716,22.716,0,0,0-2.076,1.194A14.3,14.3,0,0,0,76.8,9.754,6.853,6.853,0,0,0,75.755,10.8a8.888,8.888,0,0,0-1.075,1.8,3.571,3.571,0,0,0-.328,2.321,1.9,1.9,0,0,1,.09.526.732.732,0,0,1-.154.484,4.826,4.826,0,0,1-.923.6,1.035,1.035,0,0,1-.561.078.535.535,0,0,1-.469-.777c.135-.329.314-.64.469-.961.524-1.092,1.2-2.1,1.662-3.233.316-.774.716-1.515,1.109-2.256A2.971,2.971,0,0,0,75.8,7.732a1.949,1.949,0,0,0-.989-1.2,6.464,6.464,0,0,0-2.737-.287,5.676,5.676,0,0,0-1.7.332,6.525,6.525,0,0,0-1.741.836,10.192,10.192,0,0,1-.923.621,14.243,14.243,0,0,0-2.855,2.292.545.545,0,0,1-.149.143,1.277,1.277,0,0,1-.259.066.69.69,0,0,1-.032-.26,4.324,4.324,0,0,1,.2-.455c.125-.291.254-.581.371-.877.367-.921.724-1.848,1.094-2.768.323-.806.659-1.606.989-2.409.237-.572.479-1.143.709-1.719s.463-1.183.682-1.778c.081-.223.014-.294-.2-.262-.527.086-1.054.182-1.585.248-.628.078-1.261.135-1.892.191-.767.07-1.533.13-2.3.194-.014,0-.026.008-.04.009-.328.025-.657.044-.983.076a6.083,6.083,0,0,0-.9.124.444.444,0,0,0-.276.3c-.023.181.167.172.3.178a9.648,9.648,0,0,0,1.032.043,1.16,1.16,0,0,1,1.023.515.675.675,0,0,1,.1.7c-.381.96-.753,1.924-1.142,2.882a5.881,5.881,0,0,1-.38.73.608.608,0,0,1-.623.312c-.411-.024-.825,0-1.238-.009-.115,0-.3-.019-.328-.084a.546.546,0,0,1,.033-.38c.077-.191.205-.359.285-.549.257-.609.5-1.224.751-1.836.089-.216.2-.426.284-.644.058-.147.048-.283-.157-.293A7.523,7.523,0,0,0,59.4,2.7a.594.594,0,0,0-.363.144,11.9,11.9,0,0,1-1.995,1.6,12.74,12.74,0,0,1-2.712,1.394c-.8.3-1.621.54-2.441.781a1.109,1.109,0,0,1-.513-.062,5.012,5.012,0,0,0-.75-.2c-.8-.051-1.6-.06-2.395-.1a8.209,8.209,0,0,0-3.666.659,9.1,9.1,0,0,0-2.713,1.37.347.347,0,0,1-.109.058c-.267.106-.394.021-.394-.26,0-.234.009-.469,0-.7-.013-.3-.076-.368-.371-.368-1.187,0-2.373.013-3.56,0a2.592,2.592,0,0,1-.883-.154,10.5,10.5,0,0,0-3.684-.612c-.593-.008-1.188-.031-1.779,0a19.439,19.439,0,0,0-2.09.194,11.06,11.06,0,0,0-1.345.4,6.807,6.807,0,0,0-2.868,1.587c-.219.21-.419.2-.585-.056a3.29,3.29,0,0,0-1.488-1.2c-.2-.093-.413-.156-.605-.263a4.722,4.722,0,0,0-1.767-.534c-.75-.082-1.511-.1-2.267-.113a8.939,8.939,0,0,0-1.446.052,19.856,19.856,0,0,0-2.391.445,12.543,12.543,0,0,0-1.72.7A11.778,11.778,0,0,0,9.686,9.306c-.38.316-.709.694-1.068,1.037A5.7,5.7,0,0,0,7.051,12.68a3.937,3.937,0,0,0-.114,2.786c.115.3.034.443-.255.613-.249.147-.507.28-.76.421-.358.2-.444.194-.773-.075a.529.529,0,0,1-.191-.728c.274-.719.558-1.434.858-2.143.452-1.066.926-2.121,1.383-3.185.352-.819.68-1.649,1.043-2.465.107-.244.241-.512.592-.5.454.024.91.041,1.363.063l0,.031c.316,0,.634,0,.951,0,.517-.007.688-.2.667-.721-.01-.225-.1-.315-.335-.307-.7.023-1.4.028-2.106.042-.354.008-.508-.234-.348-.544.134-.255.275-.506.393-.769.325-.729.641-1.462.956-2.194.088-.2.036-.283-.182-.292A7.1,7.1,0,0,0,9.452,2.7a.666.666,0,0,0-.41.132A11.263,11.263,0,0,1,6.73,4.619a7.307,7.307,0,0,1-1.565.818c-.362.116-.69.338-1.05.465-.661.234-1.337.434-2.006.649a.546.546,0,0,0-.41.59c.04.293.263.327.493.329.355,0,.713,0,1.068-.012.28-.014.37.06.292.329a8.495,8.495,0,0,1-.359,1.054c-.28.658-.6,1.3-.884,1.954C1.865,11.818,1.433,12.846,1,13.873c-.3.7-.6,1.388-.878,2.093a1.277,1.277,0,0,0,.2,1.4,2.491,2.491,0,0,0,1.754.9,7.315,7.315,0,0,0,3.288-.465,7.633,7.633,0,0,0,1.81-.983c.258-.214.384-.192.651.014a4.078,4.078,0,0,0,.751.5,10.724,10.724,0,0,0,2.867.906c.245.039.5.044.738.093a5.258,5.258,0,0,0,2.374-.024,1.2,1.2,0,0,1,.286-.039,8.747,8.747,0,0,0,2.9-.61,13.011,13.011,0,0,0,4.206-2.425,10.565,10.565,0,0,0,1.927-2.144c.352-.545.216-.658.918-.2a2.6,2.6,0,0,0,1.26.58c.1.006.187.127.279.2a1.459,1.459,0,0,1-.274.214c-.826.374-1.658.741-2.489,1.105a1.287,1.287,0,0,0-.669.853.943.943,0,0,0,.186.973,2.345,2.345,0,0,0,1.208.83c.146.03.336.088.281.279-.025.088-.2.159-.323.188-.334.08-.677.12-1.011.2a8.495,8.495,0,0,0-1.031.3,5.626,5.626,0,0,0-1.8.91,1.287,1.287,0,0,0-.276,1.828,2.456,2.456,0,0,0,.994.848,8.578,8.578,0,0,0,2.607.784,22.761,22.761,0,0,0,3.7.269c1.074,0,2.14-.08,3.21-.166a12.791,12.791,0,0,0,2.716-.507,16.974,16.974,0,0,0,2.115-.822,3.039,3.039,0,0,0,1.639-1.664,1.544,1.544,0,0,0,.119-.8,2.2,2.2,0,0,0-.929-1.362,6.245,6.245,0,0,0-2.5-1.037c-1.61-.311-3.216-.651-4.82-.992a13.548,13.548,0,0,1-1.477-.393.7.7,0,0,1-.307-1.207c.083-.092.176-.176.263-.262a.6.6,0,0,1,.564-.168,10.457,10.457,0,0,0,1.223.13c.343.018.69-.036,1.034-.012a13.05,13.05,0,0,0,2.346-.128,9.235,9.235,0,0,0,1.467-.228c.663-.183,1.3-.445,1.953-.671a4.505,4.505,0,0,0,1.821-1.236.853.853,0,0,1,.27-.127c.005.112.05.244.007.334a4.413,4.413,0,0,1-.3.44,4.717,4.717,0,0,0-.4,2.9.8.8,0,0,0,.073.192,3.413,3.413,0,0,0,1.744,1.95,10.618,10.618,0,0,0,1.372.563,7.35,7.35,0,0,0,2.671.471c.56-.012,1.118-.141,1.678-.208a8,8,0,0,0,3.274-1.067A4.341,4.341,0,0,0,49.7,16.084a.431.431,0,0,1,.2-.145c.07-.027.189-.047.225-.009a.337.337,0,0,1,.079.251c-.015.105-.1.2-.122.3a.732.732,0,0,0-.03.394,2.079,2.079,0,0,0,1.369,1.234,6.156,6.156,0,0,0,3.858-.262,3.925,3.925,0,0,0,.6-.266c.319-.183.347-.193.421.163.056.268.2.324.445.3.314-.026.632-.041.947-.041.939,0,1.878.01,2.816.013.239,0,.48,0,.609-.256.119-.233.233-.468.346-.7.459-.941.878-1.9,1.385-2.818a15.662,15.662,0,0,1,2.077-2.926,18.62,18.62,0,0,1,1.616-1.587c.456-.394.981-.709,1.472-1.064a3.75,3.75,0,0,1,1.867-.709,1.087,1.087,0,0,1,1.059.428c.221.322.045.667-.12.976-.155.291-.332.573-.481.868q-.594,1.179-1.171,2.368c-.468.967-.959,1.925-1.371,2.916a3.012,3.012,0,0,0-.169,1.256,1.37,1.37,0,0,0,1.134,1.31,15.3,15.3,0,0,0,2.474.123,5.752,5.752,0,0,0,2.9-1.112c.2-.139.4-.294.6-.436.239-.169.371-.145.57.071a1.972,1.972,0,0,0,.333.3,7.677,7.677,0,0,0,1.988.988,8.051,8.051,0,0,0,2.6.417,12.887,12.887,0,0,0,2.743-.365,6.636,6.636,0,0,0,2.194-.839,9.377,9.377,0,0,0,2.3-1.8.885.885,0,0,1,.252-.212.827.827,0,0,1,.259-.044c.011.089.058.194.025.263a2.545,2.545,0,0,1-.32.529,6.169,6.169,0,0,0-.811,1.8c-.068.173.03.263.208.255.247-.009.494-.03.741-.03,1.035,0,2.07-.01,3.106.011.545.012.641-.021.9-.507.19-.365.394-.724.581-1.091q.387-.75.755-1.508c.169-.346.291-.721.492-1.047.443-.712.958-1.382,1.377-2.109A13.163,13.163,0,0,1,96.6,9.821,4.492,4.492,0,0,1,97.44,9.1a3.588,3.588,0,0,1,.769-.4.547.547,0,0,1,.4.015,8.96,8.96,0,0,1,.848.49,2.556,2.556,0,0,0,1.5.507A2.379,2.379,0,0,0,103.2,8.376,1.026,1.026,0,0,0,103.273,7.459Zm-83.279.972a11.963,11.963,0,0,1-.772,3.577,17.9,17.9,0,0,1-1.552,3.006,6.106,6.106,0,0,1-3.032,2.579,5.281,5.281,0,0,1-1.021.164,3.958,3.958,0,0,1-1-.188,1.947,1.947,0,0,1-1.11-2.121,14.487,14.487,0,0,1,1.055-3.557,12.825,12.825,0,0,1,1.461-2.634A6.935,6.935,0,0,1,15.8,7.547a3.162,3.162,0,0,1,3.714-.192A1.1,1.1,0,0,1,19.994,8.431ZM27.13,18.31a3.411,3.411,0,0,0,.684.145,26.57,26.57,0,0,1,3.582.817,2.2,2.2,0,0,1,1.206.753,1.208,1.208,0,0,1,.018,1.314,2.065,2.065,0,0,1-1.181.788c-.551.155-1.125.23-1.484.3-.792.035-1.369.062-1.947.084a10.99,10.99,0,0,1-2.749-.27,2.686,2.686,0,0,1-1.788-1.3,1.063,1.063,0,0,1,.234-1.285,4.617,4.617,0,0,1,1.75-1.13,1.442,1.442,0,0,0,.268-.1A1.36,1.36,0,0,1,27.13,18.31Zm7.077-9.383a7.163,7.163,0,0,1-1.487,3.091,4.512,4.512,0,0,1-2.632,1.421,2.053,2.053,0,0,1-1.99-1.252,1.487,1.487,0,0,1-.025-.765,7.721,7.721,0,0,1,.744-2.046A6.281,6.281,0,0,1,30.09,7.719,2.912,2.912,0,0,1,33.258,7.1,1.669,1.669,0,0,1,34.207,8.927Zm6.875-.186A.409.409,0,0,1,40.9,8.9a5.291,5.291,0,0,0-1.675,1.546,3.126,3.126,0,0,1-.443.425c-.051.042-.149.03-.224.042-.01-.088-.022-.177-.026-.266,0-.022.025-.047.041-.07a1.887,1.887,0,0,0,.209-1.689c-.087-.359,0-.531.3-.443.352,0,.7.011,1.054,0,.245-.011.487-.071.732-.085.095-.006.245.025.279.089S41.127,8.651,41.082,8.741Zm2.046,3.529a7.006,7.006,0,0,1,.356-.653c.324-.593.651-1.183.97-1.778a7.589,7.589,0,0,1,1.6-1.882A4.361,4.361,0,0,1,48.063,6.9,1.251,1.251,0,0,1,49.6,8.148,3.14,3.14,0,0,1,49.03,9.6a6.276,6.276,0,0,1-2.584,2.121,6.672,6.672,0,0,1-2.139.6,2.04,2.04,0,0,0-.512.153,2.678,2.678,0,0,1-.39.133C43.153,12.655,43.026,12.506,43.128,12.27Zm9.309-1.662c-.123.272-.282.529-.4.8-.349.807-.687,1.621-1.027,2.433-.032.075-.057.154-.083.231-.156.462-.261.531-.753.461a.524.524,0,0,0-.5.211,7.8,7.8,0,0,1-1.893,1.437,4.623,4.623,0,0,1-2.157.639,3.952,3.952,0,0,1-1.941-.254,2.181,2.181,0,0,1-1.183-1.9c.068-.309.148-.684.235-1.06a.426.426,0,0,1,.409-.342c1.148-.153,2.3-.259,3.435-.5a20.943,20.943,0,0,0,2.589-.819,12.49,12.49,0,0,0,1.4-.6A4.877,4.877,0,0,0,52.1,10.323a1.661,1.661,0,0,1,.522-.262C52.741,10.3,52.516,10.434,52.437,10.608Zm.892-2.434A.345.345,0,0,1,53,7.788a.371.371,0,0,1,.356-.378c.2,0,.306.13.3.359S53.515,8.171,53.329,8.174Zm7.2-.327a4.22,4.22,0,0,1-.214.581c-.5,1.149-1,2.3-1.5,3.447-.324.744-.654,1.485-.966,2.233-.17.4-.309.823-.459,1.235a1.255,1.255,0,0,1-.616.746c-.35.176-.637.51-1.029.441-.724-.016-.972-.335-.746-.969.289-.8.621-1.589.943-2.378q.393-.957.812-1.9c.441-.994.9-1.981,1.342-2.973.062-.136.112-.28.163-.421.145-.4.324-.5.751-.466.4.028.8.026,1.191.016C60.48,7.432,60.605,7.562,60.529,7.847Zm19.6,4.4c.145-.355.311-.7.475-1.05a4.984,4.984,0,0,1,.3-.585c.313-.487.648-.958.959-1.446A5.6,5.6,0,0,1,84.64,6.986a1.5,1.5,0,0,1,1.728.423,2.817,2.817,0,0,1,.289.56L86.6,8a.807.807,0,0,1-.016.164,4.109,4.109,0,0,1-.947,1.895,14.714,14.714,0,0,1-1.151,1.113,6.853,6.853,0,0,1-1.1.549,7.446,7.446,0,0,1-2.37.68,4.767,4.767,0,0,0-.532.218,1.517,1.517,0,0,1-.388.009A1.4,1.4,0,0,1,80.133,12.243Zm10.581-3.81a6.36,6.36,0,0,1-.268.868c-.322.79-.669,1.572-.994,2.362-.267.649-.513,1.307-.777,1.957-.13.318-.276.629-.423.941a.354.354,0,0,1-.5.207,2.516,2.516,0,0,1-.266-.116c-.468-.231-.557-.233-.894.137a7.193,7.193,0,0,1-2.616,1.756,4.706,4.706,0,0,1-.759.189c-.2.045-.4.085-.6.126a.7.7,0,0,1-.2.038,3.646,3.646,0,0,1-2.328-.774,1.967,1.967,0,0,1-.553-1.507c.033-.263.07-.619.122-.974.037-.255.2-.358.455-.4,1.415-.209,2.842-.371,4.239-.673a12.173,12.173,0,0,0,2.825-1.034A12.456,12.456,0,0,0,89.2,10.23a2.161,2.161,0,0,0,.917-1.771,5.213,5.213,0,0,0-.1-.522.329.329,0,0,1,.064-.259.324.324,0,0,1,.262.006A.635.635,0,0,1,90.714,8.433Z"/>
</svg>
